G04 EAGLE Gerber RS-274X export*
G75*
%MOMM*%
%FSLAX34Y34*%
%LPD*%
%INTop Copper*%
%IPPOS*%
%AMOC8*
5,1,8,0,0,1.08239X$1,22.5*%
G01*
%ADD10C,1.422400*%
%ADD11C,1.320800*%
%ADD12C,0.609600*%

G36*
X491568Y187967D02*
X491568Y187967D01*
X491644Y187965D01*
X491813Y187987D01*
X491984Y188001D01*
X492058Y188019D01*
X492133Y188029D01*
X492297Y188078D01*
X492463Y188119D01*
X492532Y188149D01*
X492606Y188171D01*
X492759Y188247D01*
X492916Y188314D01*
X492980Y188355D01*
X493049Y188388D01*
X493188Y188487D01*
X493332Y188579D01*
X493389Y188630D01*
X493451Y188674D01*
X493572Y188794D01*
X493700Y188908D01*
X493748Y188967D01*
X493802Y189021D01*
X493903Y189159D01*
X494010Y189292D01*
X494047Y189358D01*
X494092Y189419D01*
X494169Y189572D01*
X494254Y189720D01*
X494280Y189792D01*
X494315Y189860D01*
X494366Y190023D01*
X494425Y190183D01*
X494440Y190258D01*
X494463Y190330D01*
X494475Y190435D01*
X494520Y190667D01*
X494527Y190903D01*
X494539Y191008D01*
X494539Y277356D01*
X494536Y277394D01*
X494538Y277432D01*
X494516Y277640D01*
X494499Y277848D01*
X494490Y277885D01*
X494486Y277923D01*
X494431Y278124D01*
X494381Y278327D01*
X494366Y278362D01*
X494355Y278399D01*
X494268Y278588D01*
X494186Y278780D01*
X494166Y278813D01*
X494150Y278847D01*
X494033Y279020D01*
X493921Y279196D01*
X493896Y279225D01*
X493874Y279256D01*
X493731Y279409D01*
X493592Y279564D01*
X493563Y279588D01*
X493537Y279616D01*
X493371Y279743D01*
X493208Y279874D01*
X493175Y279893D01*
X493145Y279916D01*
X492961Y280015D01*
X492780Y280118D01*
X492744Y280131D01*
X492710Y280149D01*
X492513Y280217D01*
X492317Y280290D01*
X492280Y280297D01*
X492244Y280309D01*
X492037Y280345D01*
X491833Y280384D01*
X491795Y280386D01*
X491757Y280392D01*
X491548Y280393D01*
X491340Y280400D01*
X491302Y280395D01*
X491264Y280395D01*
X491057Y280363D01*
X490851Y280335D01*
X490814Y280324D01*
X490777Y280318D01*
X490578Y280253D01*
X490379Y280193D01*
X490344Y280176D01*
X490308Y280164D01*
X490123Y280068D01*
X489935Y279976D01*
X489904Y279954D01*
X489870Y279936D01*
X489798Y279878D01*
X489533Y279691D01*
X489411Y279570D01*
X489337Y279511D01*
X487492Y277666D01*
X484318Y276351D01*
X480882Y276351D01*
X477708Y277666D01*
X475278Y280096D01*
X473963Y283270D01*
X473963Y300930D01*
X474953Y303320D01*
X475020Y303527D01*
X475091Y303734D01*
X475096Y303762D01*
X475104Y303789D01*
X475137Y304005D01*
X475174Y304221D01*
X475174Y304249D01*
X475178Y304277D01*
X475175Y304495D01*
X475177Y304714D01*
X475172Y304742D01*
X475172Y304770D01*
X475134Y304985D01*
X475100Y305201D01*
X475091Y305228D01*
X475086Y305256D01*
X475014Y305462D01*
X474946Y305670D01*
X474933Y305695D01*
X474923Y305722D01*
X474819Y305913D01*
X474718Y306107D01*
X474703Y306126D01*
X474687Y306155D01*
X474384Y306545D01*
X474325Y306599D01*
X474293Y306641D01*
X468898Y312035D01*
X468814Y312107D01*
X468760Y312161D01*
X468759Y312162D01*
X468731Y312190D01*
X468624Y312268D01*
X468522Y312354D01*
X468425Y312413D01*
X468332Y312480D01*
X468214Y312540D01*
X468100Y312609D01*
X467994Y312651D01*
X467892Y312703D01*
X467765Y312743D01*
X467642Y312792D01*
X467531Y312817D01*
X467421Y312851D01*
X467328Y312861D01*
X467160Y312899D01*
X466836Y312917D01*
X466744Y312927D01*
X461977Y312927D01*
X461835Y312916D01*
X461692Y312914D01*
X461589Y312896D01*
X461485Y312887D01*
X461347Y312853D01*
X461206Y312828D01*
X461108Y312794D01*
X461006Y312769D01*
X460875Y312712D01*
X460741Y312665D01*
X460649Y312615D01*
X460553Y312574D01*
X460433Y312498D01*
X460308Y312429D01*
X460225Y312365D01*
X460137Y312309D01*
X460031Y312214D01*
X459918Y312127D01*
X459847Y312050D01*
X459769Y311980D01*
X459679Y311869D01*
X459582Y311765D01*
X459525Y311678D01*
X459459Y311596D01*
X459389Y311473D01*
X459310Y311354D01*
X459267Y311258D01*
X459215Y311168D01*
X459165Y311034D01*
X459107Y310904D01*
X459080Y310803D01*
X459043Y310705D01*
X459016Y310566D01*
X458979Y310428D01*
X458969Y310323D01*
X458949Y310221D01*
X458944Y310079D01*
X458930Y309937D01*
X458937Y309832D01*
X458933Y309728D01*
X458952Y309587D01*
X458961Y309444D01*
X458984Y309343D01*
X458998Y309239D01*
X459039Y309102D01*
X459071Y308963D01*
X459110Y308867D01*
X459140Y308767D01*
X459203Y308638D01*
X459257Y308506D01*
X459311Y308417D01*
X459357Y308323D01*
X459440Y308207D01*
X459514Y308086D01*
X459582Y308006D01*
X459643Y307921D01*
X459743Y307820D01*
X459836Y307712D01*
X459916Y307644D01*
X459989Y307570D01*
X460104Y307486D01*
X460214Y307395D01*
X460283Y307357D01*
X460388Y307280D01*
X460775Y307084D01*
X460811Y307065D01*
X462092Y306534D01*
X464522Y304104D01*
X465837Y300930D01*
X465837Y283270D01*
X464522Y280096D01*
X462092Y277666D01*
X458918Y276351D01*
X455482Y276351D01*
X452308Y277666D01*
X449878Y280096D01*
X448563Y283270D01*
X448563Y300930D01*
X449878Y304104D01*
X452308Y306534D01*
X453589Y307065D01*
X453716Y307130D01*
X453847Y307186D01*
X453935Y307242D01*
X454028Y307290D01*
X454143Y307375D01*
X454263Y307451D01*
X454341Y307521D01*
X454425Y307583D01*
X454525Y307685D01*
X454631Y307780D01*
X454697Y307861D01*
X454770Y307936D01*
X454852Y308053D01*
X454941Y308164D01*
X454993Y308254D01*
X455053Y308340D01*
X455114Y308468D01*
X455185Y308592D01*
X455221Y308690D01*
X455267Y308785D01*
X455307Y308921D01*
X455357Y309055D01*
X455377Y309157D01*
X455406Y309258D01*
X455424Y309399D01*
X455451Y309539D01*
X455455Y309643D01*
X455468Y309747D01*
X455462Y309890D01*
X455467Y310032D01*
X455453Y310136D01*
X455449Y310240D01*
X455421Y310380D01*
X455402Y310521D01*
X455372Y310621D01*
X455351Y310724D01*
X455301Y310857D01*
X455260Y310994D01*
X455214Y311087D01*
X455177Y311185D01*
X455105Y311309D01*
X455043Y311437D01*
X454982Y311522D01*
X454930Y311612D01*
X454840Y311723D01*
X454757Y311839D01*
X454684Y311913D01*
X454618Y311994D01*
X454511Y312089D01*
X454411Y312190D01*
X454326Y312251D01*
X454248Y312321D01*
X454127Y312397D01*
X454012Y312480D01*
X453919Y312527D01*
X453830Y312583D01*
X453699Y312638D01*
X453571Y312703D01*
X453472Y312734D01*
X453375Y312775D01*
X453237Y312808D01*
X453101Y312851D01*
X453023Y312860D01*
X452896Y312890D01*
X452463Y312923D01*
X452423Y312927D01*
X436577Y312927D01*
X436435Y312916D01*
X436292Y312914D01*
X436189Y312896D01*
X436085Y312887D01*
X435947Y312853D01*
X435806Y312828D01*
X435708Y312794D01*
X435606Y312769D01*
X435475Y312712D01*
X435341Y312665D01*
X435249Y312615D01*
X435153Y312574D01*
X435033Y312498D01*
X434908Y312429D01*
X434825Y312365D01*
X434737Y312309D01*
X434631Y312214D01*
X434518Y312127D01*
X434447Y312050D01*
X434369Y311980D01*
X434279Y311869D01*
X434182Y311765D01*
X434125Y311678D01*
X434059Y311596D01*
X433989Y311473D01*
X433910Y311354D01*
X433867Y311258D01*
X433815Y311168D01*
X433765Y311034D01*
X433707Y310904D01*
X433680Y310803D01*
X433643Y310705D01*
X433616Y310566D01*
X433579Y310428D01*
X433569Y310323D01*
X433549Y310221D01*
X433544Y310079D01*
X433530Y309937D01*
X433537Y309832D01*
X433533Y309728D01*
X433552Y309587D01*
X433561Y309444D01*
X433584Y309343D01*
X433598Y309239D01*
X433639Y309102D01*
X433671Y308963D01*
X433710Y308867D01*
X433740Y308767D01*
X433803Y308638D01*
X433857Y308506D01*
X433911Y308417D01*
X433957Y308323D01*
X434040Y308207D01*
X434114Y308086D01*
X434182Y308006D01*
X434243Y307921D01*
X434343Y307820D01*
X434436Y307712D01*
X434516Y307644D01*
X434589Y307570D01*
X434704Y307486D01*
X434814Y307395D01*
X434883Y307357D01*
X434988Y307280D01*
X435375Y307084D01*
X435411Y307065D01*
X436692Y306534D01*
X439122Y304104D01*
X440437Y300930D01*
X440437Y283270D01*
X439122Y280096D01*
X436692Y277666D01*
X433518Y276351D01*
X430082Y276351D01*
X426908Y277666D01*
X424478Y280096D01*
X423163Y283270D01*
X423163Y300930D01*
X424478Y304104D01*
X426908Y306534D01*
X428189Y307065D01*
X428316Y307130D01*
X428447Y307186D01*
X428535Y307242D01*
X428628Y307290D01*
X428743Y307375D01*
X428863Y307451D01*
X428941Y307521D01*
X429025Y307583D01*
X429125Y307685D01*
X429231Y307780D01*
X429297Y307861D01*
X429370Y307936D01*
X429452Y308053D01*
X429541Y308164D01*
X429593Y308254D01*
X429653Y308340D01*
X429714Y308468D01*
X429785Y308592D01*
X429821Y308690D01*
X429867Y308785D01*
X429907Y308921D01*
X429957Y309055D01*
X429977Y309157D01*
X430006Y309258D01*
X430024Y309399D01*
X430051Y309539D01*
X430055Y309643D01*
X430068Y309747D01*
X430062Y309890D01*
X430067Y310032D01*
X430053Y310136D01*
X430049Y310240D01*
X430021Y310380D01*
X430002Y310521D01*
X429972Y310621D01*
X429951Y310724D01*
X429901Y310857D01*
X429860Y310994D01*
X429814Y311087D01*
X429777Y311185D01*
X429705Y311309D01*
X429643Y311437D01*
X429582Y311522D01*
X429530Y311612D01*
X429440Y311723D01*
X429357Y311839D01*
X429284Y311913D01*
X429218Y311994D01*
X429111Y312089D01*
X429011Y312190D01*
X428926Y312251D01*
X428848Y312321D01*
X428727Y312397D01*
X428612Y312480D01*
X428519Y312527D01*
X428430Y312583D01*
X428299Y312638D01*
X428171Y312703D01*
X428072Y312734D01*
X427975Y312775D01*
X427837Y312808D01*
X427701Y312851D01*
X427623Y312860D01*
X427496Y312890D01*
X427063Y312923D01*
X427023Y312927D01*
X411177Y312927D01*
X411035Y312916D01*
X410892Y312914D01*
X410789Y312896D01*
X410685Y312887D01*
X410547Y312853D01*
X410406Y312828D01*
X410308Y312794D01*
X410206Y312769D01*
X410075Y312712D01*
X409941Y312665D01*
X409849Y312615D01*
X409753Y312574D01*
X409633Y312498D01*
X409508Y312429D01*
X409425Y312365D01*
X409337Y312309D01*
X409231Y312214D01*
X409118Y312127D01*
X409047Y312050D01*
X408969Y311980D01*
X408879Y311869D01*
X408782Y311765D01*
X408725Y311678D01*
X408659Y311596D01*
X408589Y311473D01*
X408510Y311354D01*
X408467Y311258D01*
X408415Y311168D01*
X408365Y311034D01*
X408307Y310904D01*
X408280Y310803D01*
X408243Y310705D01*
X408216Y310566D01*
X408179Y310428D01*
X408169Y310323D01*
X408149Y310221D01*
X408144Y310079D01*
X408130Y309937D01*
X408137Y309832D01*
X408133Y309728D01*
X408152Y309587D01*
X408161Y309444D01*
X408184Y309343D01*
X408198Y309239D01*
X408239Y309102D01*
X408271Y308963D01*
X408310Y308867D01*
X408340Y308767D01*
X408403Y308638D01*
X408457Y308506D01*
X408511Y308417D01*
X408557Y308323D01*
X408640Y308207D01*
X408714Y308086D01*
X408782Y308006D01*
X408843Y307921D01*
X408943Y307820D01*
X409036Y307712D01*
X409116Y307644D01*
X409189Y307570D01*
X409304Y307486D01*
X409414Y307395D01*
X409483Y307357D01*
X409588Y307280D01*
X409975Y307084D01*
X410011Y307065D01*
X411292Y306534D01*
X413722Y304104D01*
X415037Y300930D01*
X415037Y283270D01*
X413722Y280096D01*
X411292Y277666D01*
X408118Y276351D01*
X404682Y276351D01*
X401508Y277666D01*
X399078Y280096D01*
X397763Y283270D01*
X397763Y300930D01*
X399078Y304104D01*
X401508Y306534D01*
X402789Y307065D01*
X402916Y307130D01*
X403047Y307186D01*
X403135Y307242D01*
X403228Y307290D01*
X403343Y307375D01*
X403463Y307451D01*
X403541Y307521D01*
X403625Y307583D01*
X403725Y307685D01*
X403831Y307780D01*
X403897Y307861D01*
X403970Y307936D01*
X404052Y308053D01*
X404141Y308164D01*
X404193Y308254D01*
X404253Y308340D01*
X404314Y308468D01*
X404385Y308592D01*
X404421Y308690D01*
X404467Y308785D01*
X404507Y308921D01*
X404557Y309055D01*
X404577Y309157D01*
X404606Y309258D01*
X404624Y309399D01*
X404651Y309539D01*
X404655Y309643D01*
X404668Y309747D01*
X404662Y309890D01*
X404667Y310032D01*
X404653Y310136D01*
X404649Y310240D01*
X404621Y310380D01*
X404602Y310521D01*
X404572Y310621D01*
X404551Y310724D01*
X404501Y310857D01*
X404460Y310994D01*
X404414Y311087D01*
X404377Y311185D01*
X404305Y311309D01*
X404243Y311437D01*
X404182Y311522D01*
X404130Y311612D01*
X404040Y311723D01*
X403957Y311839D01*
X403884Y311913D01*
X403818Y311994D01*
X403711Y312089D01*
X403611Y312190D01*
X403526Y312251D01*
X403448Y312321D01*
X403327Y312397D01*
X403212Y312480D01*
X403119Y312527D01*
X403030Y312583D01*
X402899Y312638D01*
X402771Y312703D01*
X402672Y312734D01*
X402575Y312775D01*
X402437Y312808D01*
X402301Y312851D01*
X402223Y312860D01*
X402096Y312890D01*
X401663Y312923D01*
X401623Y312927D01*
X333356Y312927D01*
X333243Y312918D01*
X333128Y312919D01*
X332997Y312898D01*
X332865Y312887D01*
X332754Y312860D01*
X332641Y312842D01*
X332515Y312801D01*
X332386Y312769D01*
X332281Y312724D01*
X332172Y312688D01*
X332054Y312626D01*
X331932Y312574D01*
X331836Y312513D01*
X331735Y312460D01*
X331661Y312401D01*
X331516Y312309D01*
X331274Y312093D01*
X331202Y312035D01*
X325270Y306103D01*
X325128Y305936D01*
X324984Y305773D01*
X324969Y305749D01*
X324950Y305727D01*
X324837Y305540D01*
X324721Y305355D01*
X324710Y305329D01*
X324696Y305305D01*
X324615Y305102D01*
X324530Y304900D01*
X324523Y304873D01*
X324513Y304846D01*
X324465Y304633D01*
X324414Y304421D01*
X324412Y304393D01*
X324406Y304365D01*
X324394Y304146D01*
X324377Y303929D01*
X324380Y303901D01*
X324378Y303872D01*
X324401Y303655D01*
X324420Y303437D01*
X324427Y303415D01*
X324430Y303382D01*
X324561Y302906D01*
X324595Y302833D01*
X324609Y302782D01*
X325629Y300321D01*
X325629Y283879D01*
X324391Y280891D01*
X322105Y278605D01*
X319117Y277367D01*
X315883Y277367D01*
X312895Y278605D01*
X310609Y280891D01*
X309371Y283879D01*
X309371Y300321D01*
X310609Y303309D01*
X312440Y305140D01*
X312447Y305147D01*
X312454Y305154D01*
X312606Y305335D01*
X312760Y305516D01*
X312765Y305524D01*
X312771Y305532D01*
X312790Y305567D01*
X313014Y305939D01*
X313063Y306060D01*
X313101Y306129D01*
X313623Y307390D01*
X327610Y321377D01*
X329290Y322073D01*
X401623Y322073D01*
X401765Y322084D01*
X401908Y322086D01*
X402011Y322104D01*
X402115Y322113D01*
X402253Y322147D01*
X402394Y322172D01*
X402492Y322206D01*
X402594Y322231D01*
X402725Y322288D01*
X402859Y322335D01*
X402951Y322385D01*
X403047Y322426D01*
X403167Y322502D01*
X403292Y322571D01*
X403375Y322635D01*
X403463Y322691D01*
X403569Y322786D01*
X403682Y322873D01*
X403753Y322950D01*
X403831Y323020D01*
X403921Y323131D01*
X404018Y323235D01*
X404075Y323322D01*
X404141Y323404D01*
X404211Y323527D01*
X404290Y323646D01*
X404333Y323742D01*
X404385Y323832D01*
X404435Y323966D01*
X404493Y324096D01*
X404520Y324197D01*
X404557Y324295D01*
X404584Y324434D01*
X404621Y324572D01*
X404631Y324677D01*
X404651Y324779D01*
X404656Y324921D01*
X404670Y325063D01*
X404663Y325168D01*
X404667Y325272D01*
X404648Y325413D01*
X404639Y325556D01*
X404616Y325657D01*
X404602Y325761D01*
X404561Y325898D01*
X404529Y326037D01*
X404490Y326133D01*
X404460Y326233D01*
X404397Y326362D01*
X404343Y326494D01*
X404289Y326583D01*
X404243Y326677D01*
X404160Y326793D01*
X404086Y326914D01*
X404018Y326994D01*
X403957Y327079D01*
X403857Y327180D01*
X403764Y327288D01*
X403684Y327356D01*
X403611Y327430D01*
X403496Y327514D01*
X403386Y327605D01*
X403317Y327643D01*
X403212Y327720D01*
X402825Y327916D01*
X402789Y327935D01*
X401508Y328466D01*
X399078Y330896D01*
X397763Y334070D01*
X397763Y351730D01*
X399078Y354904D01*
X401508Y357334D01*
X404682Y358649D01*
X408118Y358649D01*
X411292Y357334D01*
X413722Y354904D01*
X415037Y351730D01*
X415037Y334070D01*
X413722Y330896D01*
X411292Y328466D01*
X410011Y327935D01*
X409884Y327870D01*
X409753Y327814D01*
X409665Y327758D01*
X409572Y327710D01*
X409457Y327625D01*
X409337Y327549D01*
X409259Y327479D01*
X409175Y327417D01*
X409075Y327315D01*
X408969Y327220D01*
X408903Y327139D01*
X408830Y327064D01*
X408748Y326947D01*
X408659Y326836D01*
X408607Y326746D01*
X408547Y326660D01*
X408486Y326532D01*
X408415Y326408D01*
X408379Y326310D01*
X408333Y326215D01*
X408293Y326079D01*
X408243Y325945D01*
X408223Y325843D01*
X408194Y325742D01*
X408176Y325601D01*
X408149Y325461D01*
X408145Y325357D01*
X408132Y325253D01*
X408138Y325110D01*
X408133Y324968D01*
X408147Y324864D01*
X408151Y324760D01*
X408179Y324620D01*
X408198Y324479D01*
X408228Y324379D01*
X408249Y324276D01*
X408299Y324143D01*
X408340Y324006D01*
X408386Y323913D01*
X408423Y323815D01*
X408495Y323691D01*
X408557Y323563D01*
X408618Y323478D01*
X408670Y323388D01*
X408760Y323277D01*
X408843Y323161D01*
X408916Y323087D01*
X408982Y323006D01*
X409089Y322911D01*
X409189Y322810D01*
X409274Y322749D01*
X409352Y322679D01*
X409473Y322603D01*
X409588Y322520D01*
X409681Y322473D01*
X409770Y322417D01*
X409901Y322362D01*
X410029Y322297D01*
X410128Y322266D01*
X410225Y322225D01*
X410363Y322192D01*
X410499Y322149D01*
X410577Y322140D01*
X410704Y322110D01*
X411137Y322077D01*
X411177Y322073D01*
X427023Y322073D01*
X427165Y322084D01*
X427308Y322086D01*
X427411Y322104D01*
X427515Y322113D01*
X427653Y322147D01*
X427794Y322172D01*
X427892Y322206D01*
X427994Y322231D01*
X428125Y322288D01*
X428259Y322335D01*
X428351Y322385D01*
X428447Y322426D01*
X428567Y322502D01*
X428692Y322571D01*
X428775Y322635D01*
X428863Y322691D01*
X428969Y322786D01*
X429082Y322873D01*
X429153Y322950D01*
X429231Y323020D01*
X429321Y323131D01*
X429418Y323235D01*
X429475Y323322D01*
X429541Y323404D01*
X429611Y323527D01*
X429690Y323646D01*
X429733Y323742D01*
X429785Y323832D01*
X429835Y323966D01*
X429893Y324096D01*
X429920Y324197D01*
X429957Y324295D01*
X429984Y324434D01*
X430021Y324572D01*
X430031Y324677D01*
X430051Y324779D01*
X430056Y324921D01*
X430070Y325063D01*
X430063Y325168D01*
X430067Y325272D01*
X430048Y325413D01*
X430039Y325556D01*
X430016Y325657D01*
X430002Y325761D01*
X429961Y325898D01*
X429929Y326037D01*
X429890Y326133D01*
X429860Y326233D01*
X429797Y326362D01*
X429743Y326494D01*
X429689Y326583D01*
X429643Y326677D01*
X429560Y326793D01*
X429486Y326914D01*
X429418Y326994D01*
X429357Y327079D01*
X429257Y327180D01*
X429164Y327288D01*
X429084Y327356D01*
X429011Y327430D01*
X428896Y327514D01*
X428786Y327605D01*
X428717Y327643D01*
X428612Y327720D01*
X428225Y327916D01*
X428189Y327935D01*
X426908Y328466D01*
X424478Y330896D01*
X423163Y334070D01*
X423163Y351730D01*
X424478Y354904D01*
X426908Y357334D01*
X430082Y358649D01*
X433518Y358649D01*
X436692Y357334D01*
X439122Y354904D01*
X440437Y351730D01*
X440437Y334070D01*
X439122Y330896D01*
X436692Y328466D01*
X435411Y327935D01*
X435284Y327870D01*
X435153Y327814D01*
X435065Y327758D01*
X434972Y327710D01*
X434857Y327625D01*
X434737Y327549D01*
X434659Y327479D01*
X434575Y327417D01*
X434475Y327315D01*
X434369Y327220D01*
X434303Y327139D01*
X434230Y327064D01*
X434148Y326947D01*
X434059Y326836D01*
X434007Y326746D01*
X433947Y326660D01*
X433886Y326532D01*
X433815Y326408D01*
X433779Y326310D01*
X433733Y326215D01*
X433693Y326079D01*
X433643Y325945D01*
X433623Y325843D01*
X433594Y325742D01*
X433576Y325601D01*
X433549Y325461D01*
X433545Y325357D01*
X433532Y325253D01*
X433538Y325110D01*
X433533Y324968D01*
X433547Y324864D01*
X433551Y324760D01*
X433579Y324620D01*
X433598Y324479D01*
X433628Y324379D01*
X433649Y324276D01*
X433699Y324143D01*
X433740Y324006D01*
X433786Y323913D01*
X433823Y323815D01*
X433895Y323691D01*
X433957Y323563D01*
X434018Y323478D01*
X434070Y323388D01*
X434160Y323277D01*
X434243Y323161D01*
X434316Y323087D01*
X434382Y323006D01*
X434489Y322911D01*
X434589Y322810D01*
X434674Y322749D01*
X434752Y322679D01*
X434873Y322603D01*
X434988Y322520D01*
X435081Y322473D01*
X435170Y322417D01*
X435301Y322362D01*
X435429Y322297D01*
X435528Y322266D01*
X435625Y322225D01*
X435763Y322192D01*
X435899Y322149D01*
X435977Y322140D01*
X436104Y322110D01*
X436537Y322077D01*
X436577Y322073D01*
X452423Y322073D01*
X452565Y322084D01*
X452708Y322086D01*
X452811Y322104D01*
X452915Y322113D01*
X453053Y322147D01*
X453194Y322172D01*
X453292Y322206D01*
X453394Y322231D01*
X453525Y322288D01*
X453659Y322335D01*
X453751Y322385D01*
X453847Y322426D01*
X453967Y322502D01*
X454092Y322571D01*
X454175Y322635D01*
X454263Y322691D01*
X454369Y322786D01*
X454482Y322873D01*
X454553Y322950D01*
X454631Y323020D01*
X454721Y323131D01*
X454818Y323235D01*
X454875Y323322D01*
X454941Y323404D01*
X455011Y323527D01*
X455090Y323646D01*
X455133Y323742D01*
X455185Y323832D01*
X455235Y323966D01*
X455293Y324096D01*
X455320Y324197D01*
X455357Y324295D01*
X455384Y324434D01*
X455421Y324572D01*
X455431Y324677D01*
X455451Y324779D01*
X455456Y324921D01*
X455470Y325063D01*
X455463Y325168D01*
X455467Y325272D01*
X455448Y325413D01*
X455439Y325556D01*
X455416Y325657D01*
X455402Y325761D01*
X455361Y325898D01*
X455329Y326037D01*
X455290Y326133D01*
X455260Y326233D01*
X455197Y326362D01*
X455143Y326494D01*
X455089Y326583D01*
X455043Y326677D01*
X454960Y326793D01*
X454886Y326914D01*
X454818Y326994D01*
X454757Y327079D01*
X454657Y327180D01*
X454564Y327288D01*
X454484Y327356D01*
X454411Y327430D01*
X454296Y327514D01*
X454186Y327605D01*
X454117Y327643D01*
X454012Y327720D01*
X453625Y327916D01*
X453589Y327935D01*
X452308Y328466D01*
X449878Y330896D01*
X448563Y334070D01*
X448563Y351730D01*
X449878Y354904D01*
X452308Y357334D01*
X455482Y358649D01*
X458918Y358649D01*
X462092Y357334D01*
X464522Y354904D01*
X465837Y351730D01*
X465837Y334070D01*
X464522Y330896D01*
X462092Y328466D01*
X460811Y327935D01*
X460684Y327870D01*
X460553Y327814D01*
X460465Y327758D01*
X460372Y327710D01*
X460257Y327625D01*
X460137Y327549D01*
X460059Y327479D01*
X459975Y327417D01*
X459875Y327315D01*
X459769Y327220D01*
X459703Y327139D01*
X459630Y327064D01*
X459548Y326947D01*
X459459Y326836D01*
X459407Y326746D01*
X459347Y326660D01*
X459286Y326532D01*
X459215Y326408D01*
X459179Y326310D01*
X459133Y326215D01*
X459093Y326079D01*
X459043Y325945D01*
X459023Y325843D01*
X458994Y325742D01*
X458976Y325601D01*
X458949Y325461D01*
X458945Y325357D01*
X458932Y325253D01*
X458938Y325110D01*
X458933Y324968D01*
X458947Y324864D01*
X458951Y324760D01*
X458979Y324620D01*
X458998Y324479D01*
X459028Y324379D01*
X459049Y324276D01*
X459099Y324143D01*
X459140Y324006D01*
X459186Y323913D01*
X459223Y323815D01*
X459295Y323691D01*
X459357Y323563D01*
X459418Y323478D01*
X459470Y323388D01*
X459560Y323277D01*
X459643Y323161D01*
X459716Y323087D01*
X459782Y323006D01*
X459889Y322911D01*
X459989Y322810D01*
X460074Y322749D01*
X460152Y322679D01*
X460273Y322603D01*
X460388Y322520D01*
X460481Y322473D01*
X460570Y322417D01*
X460701Y322362D01*
X460829Y322297D01*
X460928Y322266D01*
X461025Y322225D01*
X461163Y322192D01*
X461299Y322149D01*
X461377Y322140D01*
X461504Y322110D01*
X461937Y322077D01*
X461977Y322073D01*
X470810Y322073D01*
X472490Y321377D01*
X484762Y309105D01*
X486792Y307075D01*
X486799Y307069D01*
X486806Y307061D01*
X486986Y306910D01*
X487168Y306756D01*
X487176Y306751D01*
X487184Y306744D01*
X487219Y306725D01*
X487426Y306600D01*
X489337Y304689D01*
X489366Y304664D01*
X489392Y304636D01*
X489554Y304505D01*
X489713Y304369D01*
X489746Y304350D01*
X489776Y304326D01*
X489957Y304223D01*
X490136Y304115D01*
X490171Y304101D01*
X490204Y304082D01*
X490400Y304009D01*
X490594Y303932D01*
X490631Y303923D01*
X490667Y303910D01*
X490872Y303870D01*
X491076Y303825D01*
X491114Y303823D01*
X491151Y303816D01*
X491359Y303809D01*
X491568Y303797D01*
X491606Y303801D01*
X491644Y303800D01*
X491851Y303827D01*
X492059Y303850D01*
X492095Y303860D01*
X492133Y303865D01*
X492333Y303925D01*
X492534Y303980D01*
X492569Y303996D01*
X492606Y304007D01*
X492793Y304099D01*
X492983Y304186D01*
X493014Y304207D01*
X493049Y304224D01*
X493219Y304345D01*
X493392Y304461D01*
X493420Y304487D01*
X493451Y304509D01*
X493599Y304656D01*
X493752Y304799D01*
X493775Y304829D01*
X493802Y304856D01*
X493925Y305025D01*
X494052Y305190D01*
X494070Y305224D01*
X494092Y305255D01*
X494186Y305441D01*
X494285Y305625D01*
X494298Y305661D01*
X494315Y305695D01*
X494377Y305895D01*
X494445Y306092D01*
X494451Y306129D01*
X494463Y306166D01*
X494473Y306259D01*
X494528Y306578D01*
X494529Y306750D01*
X494539Y306844D01*
X494539Y328156D01*
X494536Y328194D01*
X494538Y328232D01*
X494535Y328266D01*
X494535Y328286D01*
X494521Y328400D01*
X494516Y328440D01*
X494499Y328648D01*
X494490Y328685D01*
X494486Y328723D01*
X494431Y328924D01*
X494381Y329127D01*
X494366Y329162D01*
X494355Y329199D01*
X494268Y329389D01*
X494186Y329580D01*
X494166Y329613D01*
X494150Y329647D01*
X494033Y329820D01*
X493921Y329996D01*
X493896Y330025D01*
X493874Y330056D01*
X493731Y330209D01*
X493592Y330364D01*
X493563Y330388D01*
X493537Y330416D01*
X493371Y330543D01*
X493208Y330674D01*
X493175Y330693D01*
X493145Y330716D01*
X492961Y330815D01*
X492780Y330918D01*
X492744Y330931D01*
X492710Y330949D01*
X492513Y331017D01*
X492317Y331090D01*
X492280Y331097D01*
X492244Y331109D01*
X492037Y331145D01*
X491833Y331184D01*
X491795Y331186D01*
X491757Y331192D01*
X491548Y331193D01*
X491340Y331200D01*
X491302Y331195D01*
X491264Y331195D01*
X491057Y331163D01*
X490851Y331135D01*
X490814Y331124D01*
X490777Y331118D01*
X490578Y331053D01*
X490379Y330993D01*
X490344Y330976D01*
X490308Y330964D01*
X490123Y330868D01*
X489935Y330776D01*
X489904Y330754D01*
X489870Y330736D01*
X489798Y330678D01*
X489685Y330598D01*
X489630Y330563D01*
X489608Y330544D01*
X489533Y330491D01*
X489411Y330370D01*
X489337Y330311D01*
X487492Y328466D01*
X484318Y327151D01*
X480882Y327151D01*
X477708Y328466D01*
X475278Y330896D01*
X473963Y334070D01*
X473963Y351730D01*
X475278Y354904D01*
X477708Y357334D01*
X480882Y358649D01*
X484318Y358649D01*
X487492Y357334D01*
X489337Y355489D01*
X489366Y355464D01*
X489392Y355436D01*
X489554Y355305D01*
X489713Y355169D01*
X489746Y355150D01*
X489776Y355126D01*
X489957Y355023D01*
X490136Y354915D01*
X490171Y354901D01*
X490204Y354882D01*
X490400Y354809D01*
X490594Y354732D01*
X490631Y354723D01*
X490667Y354710D01*
X490872Y354670D01*
X491076Y354625D01*
X491114Y354623D01*
X491151Y354616D01*
X491359Y354609D01*
X491568Y354597D01*
X491606Y354601D01*
X491644Y354600D01*
X491851Y354627D01*
X492059Y354650D01*
X492095Y354660D01*
X492133Y354665D01*
X492333Y354725D01*
X492534Y354780D01*
X492569Y354796D01*
X492606Y354807D01*
X492793Y354899D01*
X492983Y354986D01*
X493014Y355007D01*
X493049Y355024D01*
X493219Y355145D01*
X493392Y355261D01*
X493420Y355287D01*
X493451Y355309D01*
X493599Y355456D01*
X493752Y355599D01*
X493775Y355629D01*
X493802Y355656D01*
X493925Y355825D01*
X494052Y355990D01*
X494070Y356024D01*
X494092Y356055D01*
X494186Y356241D01*
X494285Y356425D01*
X494298Y356461D01*
X494315Y356495D01*
X494377Y356695D01*
X494445Y356892D01*
X494451Y356929D01*
X494463Y356966D01*
X494473Y357059D01*
X494528Y357378D01*
X494529Y357550D01*
X494539Y357644D01*
X494539Y544056D01*
X494536Y544094D01*
X494538Y544132D01*
X494516Y544340D01*
X494499Y544548D01*
X494490Y544585D01*
X494486Y544623D01*
X494431Y544824D01*
X494381Y545027D01*
X494366Y545062D01*
X494355Y545099D01*
X494268Y545288D01*
X494186Y545480D01*
X494166Y545513D01*
X494150Y545547D01*
X494033Y545720D01*
X493921Y545896D01*
X493896Y545925D01*
X493874Y545956D01*
X493731Y546109D01*
X493592Y546264D01*
X493563Y546288D01*
X493537Y546316D01*
X493371Y546443D01*
X493208Y546574D01*
X493175Y546593D01*
X493145Y546616D01*
X492961Y546715D01*
X492780Y546818D01*
X492744Y546831D01*
X492710Y546849D01*
X492513Y546917D01*
X492317Y546990D01*
X492280Y546997D01*
X492244Y547009D01*
X492037Y547045D01*
X491833Y547084D01*
X491795Y547086D01*
X491757Y547092D01*
X491548Y547093D01*
X491340Y547100D01*
X491302Y547095D01*
X491264Y547095D01*
X491057Y547063D01*
X490851Y547035D01*
X490814Y547024D01*
X490777Y547018D01*
X490578Y546953D01*
X490379Y546893D01*
X490344Y546876D01*
X490308Y546864D01*
X490123Y546768D01*
X489935Y546676D01*
X489904Y546654D01*
X489870Y546636D01*
X489798Y546578D01*
X489533Y546391D01*
X489411Y546270D01*
X489337Y546211D01*
X487492Y544366D01*
X484318Y543051D01*
X480882Y543051D01*
X477708Y544366D01*
X475278Y546796D01*
X473963Y549970D01*
X473963Y567630D01*
X474953Y570020D01*
X475020Y570227D01*
X475091Y570434D01*
X475096Y570462D01*
X475104Y570489D01*
X475137Y570705D01*
X475174Y570921D01*
X475174Y570949D01*
X475178Y570977D01*
X475175Y571195D01*
X475177Y571414D01*
X475172Y571442D01*
X475172Y571470D01*
X475134Y571685D01*
X475100Y571901D01*
X475091Y571928D01*
X475086Y571956D01*
X475014Y572162D01*
X474946Y572370D01*
X474933Y572395D01*
X474923Y572422D01*
X474819Y572613D01*
X474718Y572807D01*
X474703Y572826D01*
X474687Y572855D01*
X474384Y573245D01*
X474325Y573299D01*
X474293Y573341D01*
X468898Y578735D01*
X468811Y578809D01*
X468731Y578890D01*
X468624Y578968D01*
X468522Y579054D01*
X468425Y579113D01*
X468332Y579180D01*
X468214Y579240D01*
X468100Y579309D01*
X467994Y579351D01*
X467892Y579403D01*
X467765Y579443D01*
X467642Y579492D01*
X467531Y579517D01*
X467421Y579551D01*
X467328Y579561D01*
X467160Y579599D01*
X466836Y579617D01*
X466744Y579627D01*
X461977Y579627D01*
X461835Y579616D01*
X461692Y579614D01*
X461589Y579596D01*
X461485Y579587D01*
X461347Y579553D01*
X461206Y579528D01*
X461108Y579494D01*
X461006Y579469D01*
X460875Y579412D01*
X460741Y579365D01*
X460649Y579315D01*
X460553Y579274D01*
X460433Y579198D01*
X460307Y579129D01*
X460225Y579065D01*
X460137Y579009D01*
X460031Y578914D01*
X459918Y578827D01*
X459847Y578750D01*
X459769Y578680D01*
X459679Y578569D01*
X459582Y578465D01*
X459525Y578378D01*
X459459Y578296D01*
X459388Y578173D01*
X459310Y578054D01*
X459267Y577959D01*
X459215Y577868D01*
X459165Y577734D01*
X459107Y577604D01*
X459080Y577503D01*
X459043Y577405D01*
X459016Y577265D01*
X458979Y577128D01*
X458969Y577023D01*
X458949Y576921D01*
X458944Y576779D01*
X458930Y576637D01*
X458937Y576532D01*
X458933Y576428D01*
X458952Y576287D01*
X458961Y576144D01*
X458984Y576043D01*
X458998Y575939D01*
X459039Y575802D01*
X459071Y575663D01*
X459110Y575567D01*
X459140Y575467D01*
X459203Y575338D01*
X459257Y575206D01*
X459311Y575117D01*
X459357Y575023D01*
X459440Y574907D01*
X459514Y574786D01*
X459582Y574706D01*
X459643Y574621D01*
X459743Y574520D01*
X459836Y574412D01*
X459916Y574344D01*
X459989Y574270D01*
X460105Y574186D01*
X460214Y574095D01*
X460282Y574057D01*
X460388Y573980D01*
X460775Y573784D01*
X460811Y573765D01*
X462092Y573234D01*
X464522Y570804D01*
X465837Y567630D01*
X465837Y549970D01*
X464522Y546796D01*
X462092Y544366D01*
X458918Y543051D01*
X455482Y543051D01*
X452308Y544366D01*
X449878Y546796D01*
X448563Y549970D01*
X448563Y567630D01*
X449878Y570804D01*
X452308Y573234D01*
X453589Y573765D01*
X453716Y573830D01*
X453847Y573886D01*
X453935Y573942D01*
X454028Y573990D01*
X454143Y574074D01*
X454263Y574151D01*
X454341Y574221D01*
X454425Y574283D01*
X454525Y574385D01*
X454631Y574480D01*
X454697Y574561D01*
X454770Y574636D01*
X454851Y574753D01*
X454941Y574864D01*
X454993Y574954D01*
X455053Y575040D01*
X455114Y575168D01*
X455185Y575292D01*
X455221Y575390D01*
X455267Y575484D01*
X455307Y575621D01*
X455357Y575755D01*
X455377Y575857D01*
X455406Y575958D01*
X455424Y576099D01*
X455451Y576239D01*
X455455Y576343D01*
X455468Y576447D01*
X455462Y576590D01*
X455467Y576732D01*
X455453Y576836D01*
X455449Y576940D01*
X455421Y577080D01*
X455402Y577221D01*
X455372Y577321D01*
X455351Y577424D01*
X455301Y577557D01*
X455260Y577694D01*
X455214Y577787D01*
X455177Y577885D01*
X455106Y578009D01*
X455043Y578137D01*
X454982Y578222D01*
X454930Y578312D01*
X454840Y578423D01*
X454757Y578539D01*
X454684Y578613D01*
X454618Y578694D01*
X454511Y578789D01*
X454411Y578890D01*
X454326Y578951D01*
X454248Y579021D01*
X454127Y579097D01*
X454012Y579180D01*
X453919Y579227D01*
X453830Y579283D01*
X453699Y579339D01*
X453571Y579403D01*
X453472Y579434D01*
X453375Y579475D01*
X453237Y579508D01*
X453101Y579551D01*
X453023Y579560D01*
X452896Y579590D01*
X452463Y579623D01*
X452423Y579627D01*
X436577Y579627D01*
X436435Y579616D01*
X436292Y579614D01*
X436189Y579596D01*
X436085Y579587D01*
X435947Y579553D01*
X435806Y579528D01*
X435708Y579494D01*
X435606Y579469D01*
X435475Y579412D01*
X435341Y579365D01*
X435249Y579315D01*
X435153Y579274D01*
X435033Y579198D01*
X434907Y579129D01*
X434825Y579065D01*
X434737Y579009D01*
X434631Y578914D01*
X434518Y578827D01*
X434447Y578750D01*
X434369Y578680D01*
X434279Y578569D01*
X434182Y578465D01*
X434125Y578378D01*
X434059Y578296D01*
X433988Y578173D01*
X433910Y578054D01*
X433867Y577959D01*
X433815Y577868D01*
X433765Y577734D01*
X433707Y577604D01*
X433680Y577503D01*
X433643Y577405D01*
X433616Y577265D01*
X433579Y577128D01*
X433569Y577023D01*
X433549Y576921D01*
X433544Y576779D01*
X433530Y576637D01*
X433537Y576532D01*
X433533Y576428D01*
X433552Y576287D01*
X433561Y576144D01*
X433584Y576043D01*
X433598Y575939D01*
X433639Y575802D01*
X433671Y575663D01*
X433710Y575567D01*
X433740Y575467D01*
X433803Y575338D01*
X433857Y575206D01*
X433911Y575117D01*
X433957Y575023D01*
X434040Y574907D01*
X434114Y574786D01*
X434182Y574706D01*
X434243Y574621D01*
X434343Y574520D01*
X434436Y574412D01*
X434516Y574344D01*
X434589Y574270D01*
X434705Y574186D01*
X434814Y574095D01*
X434882Y574057D01*
X434988Y573980D01*
X435375Y573784D01*
X435411Y573765D01*
X436692Y573234D01*
X439122Y570804D01*
X440437Y567630D01*
X440437Y549970D01*
X439122Y546796D01*
X436692Y544366D01*
X433518Y543051D01*
X430082Y543051D01*
X426908Y544366D01*
X424478Y546796D01*
X423163Y549970D01*
X423163Y567630D01*
X424478Y570804D01*
X426908Y573234D01*
X428189Y573765D01*
X428316Y573830D01*
X428447Y573886D01*
X428535Y573942D01*
X428628Y573990D01*
X428743Y574074D01*
X428863Y574151D01*
X428941Y574221D01*
X429025Y574283D01*
X429125Y574385D01*
X429231Y574480D01*
X429297Y574561D01*
X429370Y574636D01*
X429451Y574753D01*
X429541Y574864D01*
X429593Y574954D01*
X429653Y575040D01*
X429714Y575168D01*
X429785Y575292D01*
X429821Y575390D01*
X429867Y575484D01*
X429907Y575621D01*
X429957Y575755D01*
X429977Y575857D01*
X430006Y575958D01*
X430024Y576099D01*
X430051Y576239D01*
X430055Y576343D01*
X430068Y576447D01*
X430062Y576590D01*
X430067Y576732D01*
X430053Y576836D01*
X430049Y576940D01*
X430021Y577080D01*
X430002Y577221D01*
X429972Y577321D01*
X429951Y577424D01*
X429901Y577557D01*
X429860Y577694D01*
X429814Y577787D01*
X429777Y577885D01*
X429706Y578009D01*
X429643Y578137D01*
X429582Y578222D01*
X429530Y578312D01*
X429440Y578423D01*
X429357Y578539D01*
X429284Y578613D01*
X429218Y578694D01*
X429111Y578789D01*
X429011Y578890D01*
X428926Y578951D01*
X428848Y579021D01*
X428727Y579097D01*
X428612Y579180D01*
X428519Y579227D01*
X428430Y579283D01*
X428299Y579339D01*
X428171Y579403D01*
X428072Y579434D01*
X427975Y579475D01*
X427837Y579508D01*
X427701Y579551D01*
X427623Y579560D01*
X427496Y579590D01*
X427063Y579623D01*
X427023Y579627D01*
X411177Y579627D01*
X411035Y579616D01*
X410892Y579614D01*
X410789Y579596D01*
X410685Y579587D01*
X410547Y579553D01*
X410406Y579528D01*
X410308Y579494D01*
X410206Y579469D01*
X410075Y579412D01*
X409941Y579365D01*
X409849Y579315D01*
X409753Y579274D01*
X409633Y579198D01*
X409507Y579129D01*
X409425Y579065D01*
X409337Y579009D01*
X409231Y578914D01*
X409118Y578827D01*
X409047Y578750D01*
X408969Y578680D01*
X408879Y578569D01*
X408782Y578465D01*
X408725Y578378D01*
X408659Y578296D01*
X408588Y578173D01*
X408510Y578054D01*
X408467Y577959D01*
X408415Y577868D01*
X408365Y577734D01*
X408307Y577604D01*
X408280Y577503D01*
X408243Y577405D01*
X408216Y577265D01*
X408179Y577128D01*
X408169Y577023D01*
X408149Y576921D01*
X408144Y576779D01*
X408130Y576637D01*
X408137Y576532D01*
X408133Y576428D01*
X408152Y576287D01*
X408161Y576144D01*
X408184Y576043D01*
X408198Y575939D01*
X408239Y575802D01*
X408271Y575663D01*
X408310Y575567D01*
X408340Y575467D01*
X408403Y575338D01*
X408457Y575206D01*
X408511Y575117D01*
X408557Y575023D01*
X408640Y574907D01*
X408714Y574786D01*
X408782Y574706D01*
X408843Y574621D01*
X408943Y574520D01*
X409036Y574412D01*
X409116Y574344D01*
X409189Y574270D01*
X409305Y574186D01*
X409414Y574095D01*
X409482Y574057D01*
X409588Y573980D01*
X409975Y573784D01*
X410011Y573765D01*
X411292Y573234D01*
X413722Y570804D01*
X415037Y567630D01*
X415037Y549970D01*
X413722Y546796D01*
X411292Y544366D01*
X408118Y543051D01*
X404682Y543051D01*
X401508Y544366D01*
X399078Y546796D01*
X397763Y549970D01*
X397763Y567630D01*
X399078Y570804D01*
X401508Y573234D01*
X402789Y573765D01*
X402916Y573830D01*
X403047Y573886D01*
X403135Y573942D01*
X403228Y573990D01*
X403343Y574074D01*
X403463Y574151D01*
X403541Y574221D01*
X403625Y574283D01*
X403725Y574385D01*
X403831Y574480D01*
X403897Y574561D01*
X403970Y574636D01*
X404051Y574753D01*
X404141Y574864D01*
X404193Y574954D01*
X404253Y575040D01*
X404314Y575168D01*
X404385Y575292D01*
X404421Y575390D01*
X404467Y575484D01*
X404507Y575621D01*
X404557Y575755D01*
X404577Y575857D01*
X404606Y575958D01*
X404624Y576099D01*
X404651Y576239D01*
X404655Y576343D01*
X404668Y576447D01*
X404662Y576590D01*
X404667Y576732D01*
X404653Y576836D01*
X404649Y576940D01*
X404621Y577080D01*
X404602Y577221D01*
X404572Y577321D01*
X404551Y577424D01*
X404501Y577557D01*
X404460Y577694D01*
X404414Y577787D01*
X404377Y577885D01*
X404306Y578009D01*
X404243Y578137D01*
X404182Y578222D01*
X404130Y578312D01*
X404040Y578423D01*
X403957Y578539D01*
X403884Y578613D01*
X403818Y578694D01*
X403711Y578789D01*
X403611Y578890D01*
X403526Y578951D01*
X403448Y579021D01*
X403327Y579097D01*
X403212Y579180D01*
X403119Y579227D01*
X403030Y579283D01*
X402899Y579339D01*
X402771Y579403D01*
X402672Y579434D01*
X402575Y579475D01*
X402437Y579508D01*
X402301Y579551D01*
X402223Y579560D01*
X402096Y579590D01*
X401663Y579623D01*
X401623Y579627D01*
X333356Y579627D01*
X333243Y579618D01*
X333128Y579619D01*
X332997Y579598D01*
X332865Y579587D01*
X332754Y579560D01*
X332641Y579542D01*
X332515Y579501D01*
X332386Y579469D01*
X332281Y579424D01*
X332172Y579388D01*
X332054Y579326D01*
X331932Y579274D01*
X331836Y579213D01*
X331735Y579160D01*
X331661Y579101D01*
X331516Y579009D01*
X331274Y578793D01*
X331202Y578735D01*
X325270Y572803D01*
X325128Y572636D01*
X324984Y572473D01*
X324969Y572449D01*
X324950Y572427D01*
X324837Y572240D01*
X324721Y572055D01*
X324710Y572029D01*
X324696Y572005D01*
X324615Y571802D01*
X324530Y571600D01*
X324523Y571573D01*
X324513Y571546D01*
X324465Y571333D01*
X324414Y571121D01*
X324412Y571093D01*
X324406Y571065D01*
X324394Y570846D01*
X324377Y570629D01*
X324380Y570601D01*
X324378Y570572D01*
X324401Y570355D01*
X324420Y570137D01*
X324427Y570115D01*
X324430Y570082D01*
X324561Y569606D01*
X324595Y569533D01*
X324609Y569482D01*
X325629Y567021D01*
X325629Y550579D01*
X324391Y547591D01*
X322105Y545305D01*
X319117Y544067D01*
X315883Y544067D01*
X312895Y545305D01*
X310609Y547591D01*
X309371Y550579D01*
X309371Y567021D01*
X310609Y570009D01*
X312440Y571840D01*
X312447Y571847D01*
X312454Y571854D01*
X312606Y572035D01*
X312760Y572216D01*
X312765Y572224D01*
X312771Y572232D01*
X312790Y572267D01*
X313014Y572639D01*
X313063Y572760D01*
X313101Y572829D01*
X313623Y574090D01*
X327610Y588077D01*
X329290Y588773D01*
X401623Y588773D01*
X401765Y588784D01*
X401908Y588786D01*
X402011Y588804D01*
X402115Y588813D01*
X402253Y588847D01*
X402394Y588872D01*
X402492Y588906D01*
X402594Y588931D01*
X402725Y588988D01*
X402859Y589035D01*
X402951Y589085D01*
X403047Y589126D01*
X403167Y589202D01*
X403293Y589271D01*
X403375Y589335D01*
X403463Y589391D01*
X403569Y589486D01*
X403682Y589573D01*
X403753Y589650D01*
X403831Y589720D01*
X403921Y589831D01*
X404018Y589935D01*
X404075Y590022D01*
X404141Y590104D01*
X404212Y590227D01*
X404290Y590346D01*
X404333Y590441D01*
X404385Y590532D01*
X404435Y590666D01*
X404493Y590796D01*
X404520Y590897D01*
X404557Y590995D01*
X404584Y591135D01*
X404621Y591272D01*
X404631Y591377D01*
X404651Y591479D01*
X404656Y591621D01*
X404670Y591763D01*
X404663Y591868D01*
X404667Y591972D01*
X404648Y592113D01*
X404639Y592256D01*
X404616Y592357D01*
X404602Y592461D01*
X404561Y592598D01*
X404529Y592737D01*
X404490Y592833D01*
X404460Y592933D01*
X404397Y593062D01*
X404343Y593194D01*
X404289Y593283D01*
X404243Y593377D01*
X404160Y593493D01*
X404086Y593614D01*
X404018Y593694D01*
X403957Y593779D01*
X403857Y593880D01*
X403764Y593988D01*
X403684Y594056D01*
X403611Y594130D01*
X403495Y594214D01*
X403386Y594305D01*
X403318Y594343D01*
X403212Y594420D01*
X402825Y594616D01*
X402789Y594635D01*
X401508Y595166D01*
X399078Y597596D01*
X397763Y600770D01*
X397763Y618430D01*
X399078Y621604D01*
X401508Y624034D01*
X404682Y625349D01*
X408118Y625349D01*
X411292Y624034D01*
X413722Y621604D01*
X415037Y618430D01*
X415037Y600770D01*
X413722Y597596D01*
X411292Y595166D01*
X410011Y594635D01*
X409884Y594570D01*
X409753Y594514D01*
X409665Y594458D01*
X409572Y594410D01*
X409457Y594326D01*
X409337Y594249D01*
X409259Y594179D01*
X409175Y594117D01*
X409075Y594015D01*
X408969Y593920D01*
X408903Y593839D01*
X408830Y593764D01*
X408749Y593647D01*
X408659Y593536D01*
X408607Y593446D01*
X408547Y593360D01*
X408486Y593232D01*
X408415Y593108D01*
X408379Y593010D01*
X408333Y592916D01*
X408293Y592779D01*
X408243Y592645D01*
X408223Y592543D01*
X408194Y592442D01*
X408176Y592301D01*
X408149Y592161D01*
X408145Y592057D01*
X408132Y591953D01*
X408138Y591810D01*
X408133Y591668D01*
X408147Y591564D01*
X408151Y591460D01*
X408179Y591320D01*
X408198Y591179D01*
X408228Y591079D01*
X408249Y590976D01*
X408299Y590843D01*
X408340Y590706D01*
X408386Y590613D01*
X408423Y590515D01*
X408494Y590391D01*
X408557Y590263D01*
X408618Y590178D01*
X408670Y590088D01*
X408760Y589977D01*
X408843Y589861D01*
X408916Y589787D01*
X408982Y589706D01*
X409089Y589611D01*
X409189Y589510D01*
X409274Y589449D01*
X409352Y589379D01*
X409473Y589303D01*
X409588Y589220D01*
X409681Y589173D01*
X409770Y589117D01*
X409901Y589061D01*
X410029Y588997D01*
X410128Y588966D01*
X410225Y588925D01*
X410363Y588892D01*
X410499Y588849D01*
X410577Y588840D01*
X410704Y588810D01*
X411137Y588777D01*
X411177Y588773D01*
X427023Y588773D01*
X427165Y588784D01*
X427308Y588786D01*
X427411Y588804D01*
X427515Y588813D01*
X427653Y588847D01*
X427794Y588872D01*
X427892Y588906D01*
X427994Y588931D01*
X428125Y588988D01*
X428259Y589035D01*
X428351Y589085D01*
X428447Y589126D01*
X428567Y589202D01*
X428693Y589271D01*
X428775Y589335D01*
X428863Y589391D01*
X428969Y589486D01*
X429082Y589573D01*
X429153Y589650D01*
X429231Y589720D01*
X429321Y589831D01*
X429418Y589935D01*
X429475Y590022D01*
X429541Y590104D01*
X429612Y590227D01*
X429690Y590346D01*
X429733Y590441D01*
X429785Y590532D01*
X429835Y590666D01*
X429893Y590796D01*
X429920Y590897D01*
X429957Y590995D01*
X429984Y591135D01*
X430021Y591272D01*
X430031Y591377D01*
X430051Y591479D01*
X430056Y591621D01*
X430070Y591763D01*
X430063Y591868D01*
X430067Y591972D01*
X430048Y592113D01*
X430039Y592256D01*
X430016Y592357D01*
X430002Y592461D01*
X429961Y592598D01*
X429929Y592737D01*
X429890Y592833D01*
X429860Y592933D01*
X429797Y593062D01*
X429743Y593194D01*
X429689Y593283D01*
X429643Y593377D01*
X429560Y593493D01*
X429486Y593614D01*
X429418Y593694D01*
X429357Y593779D01*
X429257Y593880D01*
X429164Y593988D01*
X429084Y594056D01*
X429011Y594130D01*
X428895Y594214D01*
X428786Y594305D01*
X428718Y594343D01*
X428612Y594420D01*
X428225Y594616D01*
X428189Y594635D01*
X426908Y595166D01*
X424478Y597596D01*
X423163Y600770D01*
X423163Y618430D01*
X424478Y621604D01*
X426908Y624034D01*
X430082Y625349D01*
X433518Y625349D01*
X436692Y624034D01*
X439122Y621604D01*
X440437Y618430D01*
X440437Y600770D01*
X439122Y597596D01*
X436692Y595166D01*
X435411Y594635D01*
X435284Y594570D01*
X435153Y594514D01*
X435065Y594458D01*
X434972Y594410D01*
X434857Y594326D01*
X434737Y594249D01*
X434659Y594179D01*
X434575Y594117D01*
X434475Y594015D01*
X434369Y593920D01*
X434303Y593839D01*
X434230Y593764D01*
X434149Y593647D01*
X434059Y593536D01*
X434007Y593446D01*
X433947Y593360D01*
X433886Y593232D01*
X433815Y593108D01*
X433779Y593010D01*
X433733Y592916D01*
X433693Y592779D01*
X433643Y592645D01*
X433623Y592543D01*
X433594Y592442D01*
X433576Y592301D01*
X433549Y592161D01*
X433545Y592057D01*
X433532Y591953D01*
X433538Y591810D01*
X433533Y591668D01*
X433547Y591564D01*
X433551Y591460D01*
X433579Y591320D01*
X433598Y591179D01*
X433628Y591079D01*
X433649Y590976D01*
X433699Y590843D01*
X433740Y590706D01*
X433786Y590613D01*
X433823Y590515D01*
X433894Y590391D01*
X433957Y590263D01*
X434018Y590178D01*
X434070Y590088D01*
X434160Y589977D01*
X434243Y589861D01*
X434316Y589787D01*
X434382Y589706D01*
X434489Y589611D01*
X434589Y589510D01*
X434674Y589449D01*
X434752Y589379D01*
X434873Y589303D01*
X434988Y589220D01*
X435081Y589173D01*
X435170Y589117D01*
X435301Y589061D01*
X435429Y588997D01*
X435528Y588966D01*
X435625Y588925D01*
X435763Y588892D01*
X435899Y588849D01*
X435977Y588840D01*
X436104Y588810D01*
X436537Y588777D01*
X436577Y588773D01*
X452423Y588773D01*
X452565Y588784D01*
X452708Y588786D01*
X452811Y588804D01*
X452915Y588813D01*
X453053Y588847D01*
X453194Y588872D01*
X453292Y588906D01*
X453394Y588931D01*
X453525Y588988D01*
X453659Y589035D01*
X453751Y589085D01*
X453847Y589126D01*
X453967Y589202D01*
X454093Y589271D01*
X454175Y589335D01*
X454263Y589391D01*
X454369Y589486D01*
X454482Y589573D01*
X454553Y589650D01*
X454631Y589720D01*
X454721Y589831D01*
X454818Y589935D01*
X454875Y590022D01*
X454941Y590104D01*
X455012Y590227D01*
X455090Y590346D01*
X455133Y590441D01*
X455185Y590532D01*
X455235Y590666D01*
X455293Y590796D01*
X455320Y590897D01*
X455357Y590995D01*
X455384Y591135D01*
X455421Y591272D01*
X455431Y591377D01*
X455451Y591479D01*
X455456Y591621D01*
X455470Y591763D01*
X455463Y591868D01*
X455467Y591972D01*
X455448Y592113D01*
X455439Y592256D01*
X455416Y592357D01*
X455402Y592461D01*
X455361Y592598D01*
X455329Y592737D01*
X455290Y592833D01*
X455260Y592933D01*
X455197Y593062D01*
X455143Y593194D01*
X455089Y593283D01*
X455043Y593377D01*
X454960Y593493D01*
X454886Y593614D01*
X454818Y593694D01*
X454757Y593779D01*
X454657Y593880D01*
X454564Y593988D01*
X454484Y594056D01*
X454411Y594130D01*
X454295Y594214D01*
X454186Y594305D01*
X454118Y594343D01*
X454012Y594420D01*
X453625Y594616D01*
X453589Y594635D01*
X452308Y595166D01*
X449878Y597596D01*
X448563Y600770D01*
X448563Y618430D01*
X449878Y621604D01*
X452308Y624034D01*
X455482Y625349D01*
X458918Y625349D01*
X462092Y624034D01*
X464522Y621604D01*
X465837Y618430D01*
X465837Y600770D01*
X464522Y597596D01*
X462092Y595166D01*
X460811Y594635D01*
X460684Y594570D01*
X460553Y594514D01*
X460465Y594458D01*
X460372Y594410D01*
X460257Y594326D01*
X460137Y594249D01*
X460059Y594179D01*
X459975Y594117D01*
X459875Y594015D01*
X459769Y593920D01*
X459703Y593839D01*
X459630Y593764D01*
X459549Y593647D01*
X459459Y593536D01*
X459407Y593446D01*
X459347Y593360D01*
X459286Y593232D01*
X459215Y593108D01*
X459179Y593010D01*
X459133Y592916D01*
X459093Y592779D01*
X459043Y592645D01*
X459023Y592543D01*
X458994Y592442D01*
X458976Y592301D01*
X458949Y592161D01*
X458945Y592057D01*
X458932Y591953D01*
X458938Y591810D01*
X458933Y591668D01*
X458947Y591564D01*
X458951Y591460D01*
X458979Y591320D01*
X458998Y591179D01*
X459028Y591079D01*
X459049Y590976D01*
X459099Y590843D01*
X459140Y590706D01*
X459186Y590613D01*
X459223Y590515D01*
X459294Y590391D01*
X459357Y590263D01*
X459418Y590178D01*
X459470Y590088D01*
X459560Y589977D01*
X459643Y589861D01*
X459716Y589787D01*
X459782Y589706D01*
X459889Y589611D01*
X459989Y589510D01*
X460074Y589449D01*
X460152Y589379D01*
X460273Y589303D01*
X460388Y589220D01*
X460481Y589173D01*
X460570Y589117D01*
X460701Y589061D01*
X460829Y588997D01*
X460928Y588966D01*
X461025Y588925D01*
X461163Y588892D01*
X461299Y588849D01*
X461377Y588840D01*
X461504Y588810D01*
X461937Y588777D01*
X461977Y588773D01*
X470810Y588773D01*
X472490Y588077D01*
X486792Y573775D01*
X486799Y573769D01*
X486805Y573761D01*
X486987Y573609D01*
X487168Y573456D01*
X487176Y573451D01*
X487183Y573444D01*
X487218Y573425D01*
X487426Y573300D01*
X489337Y571389D01*
X489366Y571364D01*
X489392Y571336D01*
X489554Y571205D01*
X489713Y571069D01*
X489746Y571050D01*
X489776Y571026D01*
X489957Y570923D01*
X490136Y570815D01*
X490171Y570801D01*
X490204Y570782D01*
X490400Y570709D01*
X490594Y570632D01*
X490631Y570623D01*
X490667Y570610D01*
X490872Y570570D01*
X491076Y570525D01*
X491114Y570523D01*
X491151Y570516D01*
X491359Y570509D01*
X491568Y570497D01*
X491606Y570501D01*
X491644Y570500D01*
X491851Y570527D01*
X492059Y570550D01*
X492095Y570560D01*
X492133Y570565D01*
X492333Y570625D01*
X492534Y570680D01*
X492569Y570696D01*
X492606Y570707D01*
X492793Y570799D01*
X492983Y570886D01*
X493014Y570907D01*
X493049Y570924D01*
X493219Y571045D01*
X493392Y571161D01*
X493420Y571187D01*
X493451Y571209D01*
X493599Y571356D01*
X493752Y571499D01*
X493775Y571529D01*
X493802Y571556D01*
X493925Y571725D01*
X494052Y571890D01*
X494070Y571924D01*
X494092Y571955D01*
X494186Y572141D01*
X494285Y572325D01*
X494298Y572361D01*
X494315Y572395D01*
X494377Y572595D01*
X494445Y572792D01*
X494451Y572829D01*
X494463Y572866D01*
X494473Y572959D01*
X494528Y573278D01*
X494529Y573450D01*
X494539Y573544D01*
X494539Y594856D01*
X494536Y594894D01*
X494538Y594932D01*
X494516Y595140D01*
X494499Y595348D01*
X494490Y595385D01*
X494486Y595423D01*
X494431Y595624D01*
X494381Y595827D01*
X494366Y595862D01*
X494355Y595899D01*
X494268Y596089D01*
X494186Y596280D01*
X494166Y596313D01*
X494150Y596347D01*
X494033Y596520D01*
X493921Y596696D01*
X493896Y596725D01*
X493874Y596756D01*
X493731Y596909D01*
X493592Y597064D01*
X493563Y597088D01*
X493537Y597116D01*
X493371Y597243D01*
X493208Y597374D01*
X493175Y597393D01*
X493145Y597416D01*
X492961Y597515D01*
X492780Y597618D01*
X492744Y597631D01*
X492710Y597649D01*
X492513Y597717D01*
X492317Y597790D01*
X492280Y597797D01*
X492244Y597809D01*
X492037Y597845D01*
X491833Y597884D01*
X491795Y597886D01*
X491757Y597892D01*
X491548Y597893D01*
X491340Y597900D01*
X491302Y597895D01*
X491264Y597895D01*
X491057Y597863D01*
X490851Y597835D01*
X490814Y597824D01*
X490777Y597818D01*
X490578Y597753D01*
X490379Y597693D01*
X490344Y597676D01*
X490308Y597664D01*
X490123Y597568D01*
X489935Y597476D01*
X489904Y597454D01*
X489870Y597436D01*
X489798Y597378D01*
X489533Y597191D01*
X489411Y597070D01*
X489337Y597011D01*
X487492Y595166D01*
X484318Y593851D01*
X480882Y593851D01*
X477708Y595166D01*
X475278Y597596D01*
X473963Y600770D01*
X473963Y618430D01*
X475278Y621604D01*
X477708Y624034D01*
X480882Y625349D01*
X484318Y625349D01*
X487492Y624034D01*
X489337Y622189D01*
X489366Y622164D01*
X489392Y622136D01*
X489554Y622005D01*
X489713Y621869D01*
X489746Y621850D01*
X489776Y621826D01*
X489957Y621723D01*
X490136Y621615D01*
X490171Y621601D01*
X490204Y621582D01*
X490400Y621509D01*
X490594Y621432D01*
X490631Y621423D01*
X490667Y621410D01*
X490872Y621370D01*
X491076Y621325D01*
X491114Y621323D01*
X491151Y621316D01*
X491359Y621309D01*
X491568Y621297D01*
X491606Y621301D01*
X491644Y621300D01*
X491851Y621327D01*
X492059Y621350D01*
X492095Y621360D01*
X492133Y621365D01*
X492333Y621425D01*
X492534Y621480D01*
X492569Y621496D01*
X492606Y621507D01*
X492793Y621599D01*
X492983Y621686D01*
X493014Y621707D01*
X493049Y621724D01*
X493219Y621845D01*
X493392Y621961D01*
X493420Y621987D01*
X493451Y622009D01*
X493599Y622156D01*
X493752Y622299D01*
X493775Y622329D01*
X493802Y622356D01*
X493925Y622525D01*
X494052Y622690D01*
X494070Y622724D01*
X494092Y622755D01*
X494186Y622941D01*
X494285Y623125D01*
X494298Y623161D01*
X494315Y623195D01*
X494377Y623395D01*
X494445Y623592D01*
X494451Y623629D01*
X494463Y623666D01*
X494473Y623759D01*
X494528Y624078D01*
X494529Y624250D01*
X494539Y624344D01*
X494539Y715008D01*
X494530Y715122D01*
X494531Y715236D01*
X494510Y715367D01*
X494499Y715500D01*
X494472Y715610D01*
X494454Y715723D01*
X494413Y715850D01*
X494381Y715979D01*
X494336Y716083D01*
X494300Y716192D01*
X494238Y716310D01*
X494186Y716432D01*
X494125Y716528D01*
X494072Y716630D01*
X494013Y716703D01*
X493921Y716848D01*
X493705Y717090D01*
X493647Y717163D01*
X485363Y725447D01*
X485276Y725521D01*
X485195Y725602D01*
X485088Y725680D01*
X484987Y725766D01*
X484889Y725825D01*
X484797Y725892D01*
X484678Y725952D01*
X484564Y726021D01*
X484458Y726063D01*
X484356Y726115D01*
X484229Y726155D01*
X484106Y726204D01*
X483995Y726229D01*
X483886Y726263D01*
X483792Y726273D01*
X483624Y726311D01*
X483300Y726329D01*
X483208Y726339D01*
X164492Y726339D01*
X164378Y726330D01*
X164264Y726331D01*
X164133Y726310D01*
X164000Y726299D01*
X163890Y726272D01*
X163777Y726254D01*
X163650Y726213D01*
X163521Y726181D01*
X163417Y726136D01*
X163308Y726100D01*
X163190Y726038D01*
X163068Y725986D01*
X162972Y725925D01*
X162870Y725872D01*
X162797Y725813D01*
X162652Y725721D01*
X162410Y725505D01*
X162337Y725447D01*
X150753Y713863D01*
X150679Y713776D01*
X150598Y713695D01*
X150520Y713588D01*
X150434Y713487D01*
X150375Y713389D01*
X150308Y713297D01*
X150248Y713178D01*
X150179Y713064D01*
X150137Y712958D01*
X150085Y712856D01*
X150045Y712729D01*
X149996Y712606D01*
X149971Y712495D01*
X149937Y712386D01*
X149927Y712292D01*
X149889Y712124D01*
X149871Y711800D01*
X149861Y711708D01*
X149861Y191008D01*
X149867Y190932D01*
X149865Y190856D01*
X149887Y190687D01*
X149901Y190516D01*
X149919Y190442D01*
X149929Y190367D01*
X149978Y190203D01*
X150019Y190037D01*
X150049Y189968D01*
X150071Y189894D01*
X150147Y189741D01*
X150214Y189584D01*
X150255Y189520D01*
X150288Y189451D01*
X150387Y189312D01*
X150479Y189168D01*
X150530Y189111D01*
X150574Y189049D01*
X150694Y188928D01*
X150808Y188800D01*
X150867Y188752D01*
X150921Y188698D01*
X151059Y188597D01*
X151192Y188490D01*
X151258Y188453D01*
X151319Y188408D01*
X151472Y188331D01*
X151620Y188246D01*
X151692Y188220D01*
X151760Y188185D01*
X151923Y188134D01*
X152083Y188075D01*
X152158Y188060D01*
X152230Y188037D01*
X152335Y188025D01*
X152567Y187980D01*
X152803Y187973D01*
X152908Y187961D01*
X491492Y187961D01*
X491568Y187967D01*
G37*
%LPC*%
G36*
X214283Y201167D02*
X214283Y201167D01*
X211295Y202405D01*
X209009Y204691D01*
X207771Y207679D01*
X207771Y224121D01*
X209009Y227109D01*
X210435Y228534D01*
X210509Y228622D01*
X210590Y228702D01*
X210668Y228809D01*
X210754Y228910D01*
X210813Y229008D01*
X210880Y229101D01*
X210940Y229219D01*
X211009Y229333D01*
X211051Y229439D01*
X211103Y229541D01*
X211143Y229668D01*
X211192Y229791D01*
X211217Y229902D01*
X211251Y230011D01*
X211261Y230105D01*
X211299Y230273D01*
X211317Y230597D01*
X211327Y230689D01*
X211327Y259080D01*
X211321Y259156D01*
X211323Y259232D01*
X211301Y259401D01*
X211287Y259572D01*
X211269Y259646D01*
X211259Y259721D01*
X211210Y259885D01*
X211169Y260051D01*
X211139Y260120D01*
X211117Y260194D01*
X211041Y260347D01*
X210974Y260504D01*
X210933Y260568D01*
X210900Y260637D01*
X210801Y260776D01*
X210709Y260920D01*
X210658Y260977D01*
X210614Y261039D01*
X210494Y261160D01*
X210380Y261288D01*
X210321Y261336D01*
X210267Y261390D01*
X210129Y261491D01*
X209996Y261598D01*
X209930Y261635D01*
X209869Y261680D01*
X209716Y261757D01*
X209568Y261842D01*
X209496Y261868D01*
X209428Y261903D01*
X209265Y261954D01*
X209105Y262013D01*
X209030Y262028D01*
X208958Y262051D01*
X208853Y262063D01*
X208621Y262108D01*
X208385Y262115D01*
X208280Y262127D01*
X202290Y262127D01*
X200610Y262823D01*
X186623Y276810D01*
X186101Y278071D01*
X186096Y278080D01*
X186093Y278089D01*
X185984Y278299D01*
X185876Y278510D01*
X185870Y278518D01*
X185866Y278527D01*
X185840Y278558D01*
X185583Y278907D01*
X185489Y278998D01*
X185440Y279060D01*
X183609Y280891D01*
X182371Y283879D01*
X182371Y300321D01*
X183609Y303309D01*
X185895Y305595D01*
X188883Y306833D01*
X192117Y306833D01*
X195105Y305595D01*
X197391Y303309D01*
X198629Y300321D01*
X198629Y283879D01*
X197609Y281418D01*
X197543Y281211D01*
X197471Y281003D01*
X197467Y280975D01*
X197458Y280948D01*
X197426Y280733D01*
X197389Y280517D01*
X197389Y280489D01*
X197384Y280460D01*
X197387Y280243D01*
X197386Y280024D01*
X197390Y279996D01*
X197391Y279967D01*
X197428Y279753D01*
X197462Y279536D01*
X197471Y279509D01*
X197476Y279481D01*
X197548Y279276D01*
X197617Y279068D01*
X197630Y279043D01*
X197639Y279016D01*
X197743Y278824D01*
X197845Y278630D01*
X197859Y278612D01*
X197875Y278582D01*
X198178Y278193D01*
X198237Y278138D01*
X198270Y278097D01*
X204202Y272165D01*
X204289Y272091D01*
X204369Y272010D01*
X204476Y271932D01*
X204578Y271846D01*
X204675Y271787D01*
X204768Y271720D01*
X204886Y271660D01*
X205000Y271591D01*
X205106Y271549D01*
X205208Y271497D01*
X205335Y271457D01*
X205458Y271408D01*
X205569Y271383D01*
X205679Y271349D01*
X205772Y271339D01*
X205940Y271301D01*
X206264Y271283D01*
X206356Y271273D01*
X261779Y271273D01*
X261802Y271275D01*
X261825Y271273D01*
X262048Y271295D01*
X262271Y271313D01*
X262293Y271318D01*
X262316Y271320D01*
X262533Y271378D01*
X262750Y271431D01*
X262771Y271440D01*
X262793Y271446D01*
X262998Y271538D01*
X263203Y271626D01*
X263222Y271638D01*
X263243Y271648D01*
X263431Y271771D01*
X263619Y271891D01*
X263636Y271906D01*
X263655Y271919D01*
X263820Y272071D01*
X263987Y272220D01*
X264001Y272238D01*
X264018Y272253D01*
X264156Y272430D01*
X264297Y272604D01*
X264308Y272623D01*
X264322Y272641D01*
X264430Y272837D01*
X264541Y273032D01*
X264549Y273054D01*
X264560Y273074D01*
X264634Y273285D01*
X264712Y273495D01*
X264717Y273517D01*
X264724Y273539D01*
X264764Y273760D01*
X264807Y273979D01*
X264808Y274002D01*
X264812Y274024D01*
X264816Y274250D01*
X264822Y274472D01*
X264820Y274495D01*
X264820Y274518D01*
X264787Y274740D01*
X264758Y274961D01*
X264751Y274983D01*
X264748Y275006D01*
X264680Y275219D01*
X264616Y275433D01*
X264606Y275454D01*
X264599Y275476D01*
X264497Y275676D01*
X264399Y275877D01*
X264386Y275895D01*
X264375Y275916D01*
X264243Y276096D01*
X264113Y276279D01*
X264097Y276295D01*
X264084Y276314D01*
X263924Y276470D01*
X263767Y276630D01*
X263748Y276643D01*
X263732Y276659D01*
X263671Y276700D01*
X263368Y276920D01*
X263234Y276988D01*
X263162Y277035D01*
X261907Y277675D01*
X260743Y278521D01*
X259725Y279539D01*
X258879Y280703D01*
X258225Y281986D01*
X257780Y283355D01*
X257555Y284776D01*
X257555Y289053D01*
X266700Y289053D01*
X275845Y289053D01*
X275845Y284776D01*
X275620Y283355D01*
X275175Y281986D01*
X274521Y280703D01*
X273675Y279539D01*
X272657Y278521D01*
X271493Y277675D01*
X270238Y277035D01*
X270218Y277023D01*
X270197Y277014D01*
X270009Y276894D01*
X269818Y276776D01*
X269800Y276761D01*
X269781Y276749D01*
X269614Y276600D01*
X269445Y276453D01*
X269430Y276436D01*
X269413Y276420D01*
X269272Y276246D01*
X269129Y276074D01*
X269118Y276054D01*
X269103Y276036D01*
X268992Y275842D01*
X268879Y275649D01*
X268871Y275628D01*
X268859Y275608D01*
X268781Y275398D01*
X268700Y275189D01*
X268695Y275167D01*
X268688Y275145D01*
X268645Y274926D01*
X268598Y274706D01*
X268597Y274683D01*
X268593Y274661D01*
X268586Y274438D01*
X268576Y274214D01*
X268578Y274191D01*
X268578Y274168D01*
X268607Y273945D01*
X268633Y273723D01*
X268639Y273701D01*
X268642Y273679D01*
X268707Y273464D01*
X268768Y273249D01*
X268778Y273229D01*
X268784Y273206D01*
X268883Y273005D01*
X268978Y272803D01*
X268991Y272784D01*
X269001Y272763D01*
X269131Y272581D01*
X269258Y272396D01*
X269274Y272380D01*
X269287Y272361D01*
X269444Y272202D01*
X269599Y272040D01*
X269617Y272026D01*
X269633Y272010D01*
X269815Y271878D01*
X269993Y271744D01*
X270014Y271733D01*
X270032Y271720D01*
X270233Y271619D01*
X270431Y271515D01*
X270452Y271508D01*
X270473Y271497D01*
X270687Y271430D01*
X270899Y271360D01*
X270921Y271356D01*
X270943Y271349D01*
X271016Y271341D01*
X271386Y271282D01*
X271535Y271282D01*
X271621Y271273D01*
X276244Y271273D01*
X276357Y271282D01*
X276472Y271281D01*
X276603Y271302D01*
X276735Y271313D01*
X276846Y271340D01*
X276959Y271358D01*
X277085Y271399D01*
X277214Y271431D01*
X277319Y271476D01*
X277428Y271512D01*
X277546Y271574D01*
X277668Y271626D01*
X277764Y271687D01*
X277865Y271740D01*
X277939Y271799D01*
X278084Y271891D01*
X278326Y272107D01*
X278398Y272165D01*
X284330Y278097D01*
X284472Y278264D01*
X284616Y278427D01*
X284631Y278451D01*
X284650Y278473D01*
X284763Y278660D01*
X284879Y278845D01*
X284890Y278871D01*
X284904Y278895D01*
X284985Y279098D01*
X285070Y279300D01*
X285077Y279327D01*
X285087Y279354D01*
X285135Y279567D01*
X285186Y279779D01*
X285188Y279807D01*
X285194Y279835D01*
X285206Y280054D01*
X285223Y280271D01*
X285220Y280299D01*
X285222Y280328D01*
X285199Y280545D01*
X285180Y280763D01*
X285173Y280785D01*
X285170Y280818D01*
X285039Y281294D01*
X285005Y281367D01*
X284991Y281418D01*
X283971Y283879D01*
X283971Y300321D01*
X285209Y303309D01*
X286635Y304734D01*
X286709Y304822D01*
X286790Y304902D01*
X286868Y305009D01*
X286954Y305110D01*
X287013Y305208D01*
X287080Y305301D01*
X287140Y305419D01*
X287209Y305533D01*
X287251Y305639D01*
X287303Y305741D01*
X287343Y305868D01*
X287392Y305991D01*
X287417Y306102D01*
X287451Y306211D01*
X287461Y306305D01*
X287499Y306473D01*
X287517Y306797D01*
X287527Y306889D01*
X287527Y328111D01*
X287518Y328224D01*
X287519Y328339D01*
X287498Y328470D01*
X287487Y328602D01*
X287460Y328713D01*
X287442Y328826D01*
X287401Y328952D01*
X287369Y329081D01*
X287324Y329186D01*
X287288Y329295D01*
X287226Y329413D01*
X287174Y329535D01*
X287113Y329631D01*
X287060Y329732D01*
X287001Y329806D01*
X286909Y329951D01*
X286825Y330045D01*
X286791Y330093D01*
X286697Y330188D01*
X286693Y330193D01*
X286635Y330265D01*
X285209Y331691D01*
X283971Y334679D01*
X283971Y335280D01*
X283965Y335356D01*
X283967Y335432D01*
X283945Y335601D01*
X283931Y335772D01*
X283913Y335846D01*
X283903Y335921D01*
X283854Y336085D01*
X283813Y336251D01*
X283783Y336320D01*
X283761Y336394D01*
X283685Y336547D01*
X283618Y336704D01*
X283577Y336768D01*
X283544Y336837D01*
X283445Y336976D01*
X283353Y337120D01*
X283302Y337177D01*
X283258Y337239D01*
X283138Y337360D01*
X283024Y337488D01*
X282965Y337536D01*
X282911Y337590D01*
X282773Y337691D01*
X282640Y337798D01*
X282574Y337835D01*
X282513Y337880D01*
X282360Y337957D01*
X282212Y338042D01*
X282140Y338068D01*
X282072Y338103D01*
X281909Y338154D01*
X281749Y338213D01*
X281674Y338228D01*
X281602Y338251D01*
X281497Y338263D01*
X281265Y338308D01*
X281029Y338315D01*
X280924Y338327D01*
X277876Y338327D01*
X277800Y338321D01*
X277724Y338323D01*
X277555Y338301D01*
X277384Y338287D01*
X277310Y338269D01*
X277235Y338259D01*
X277071Y338210D01*
X276905Y338169D01*
X276836Y338139D01*
X276762Y338117D01*
X276609Y338041D01*
X276452Y337974D01*
X276388Y337933D01*
X276319Y337900D01*
X276180Y337801D01*
X276036Y337709D01*
X275979Y337658D01*
X275917Y337614D01*
X275796Y337494D01*
X275668Y337380D01*
X275620Y337321D01*
X275566Y337267D01*
X275465Y337129D01*
X275358Y336996D01*
X275321Y336930D01*
X275276Y336869D01*
X275199Y336716D01*
X275114Y336568D01*
X275088Y336496D01*
X275053Y336428D01*
X275002Y336265D01*
X274943Y336105D01*
X274928Y336030D01*
X274905Y335958D01*
X274893Y335853D01*
X274848Y335621D01*
X274841Y335385D01*
X274829Y335280D01*
X274829Y334679D01*
X273591Y331691D01*
X271305Y329405D01*
X268317Y328167D01*
X265083Y328167D01*
X262095Y329405D01*
X259809Y331691D01*
X258571Y334679D01*
X258571Y351121D01*
X259809Y354109D01*
X262095Y356395D01*
X265083Y357633D01*
X268317Y357633D01*
X271305Y356395D01*
X273591Y354109D01*
X274829Y351121D01*
X274829Y350520D01*
X274835Y350444D01*
X274833Y350368D01*
X274855Y350199D01*
X274869Y350028D01*
X274887Y349954D01*
X274897Y349879D01*
X274946Y349715D01*
X274987Y349549D01*
X275017Y349480D01*
X275039Y349406D01*
X275115Y349253D01*
X275182Y349096D01*
X275223Y349032D01*
X275256Y348963D01*
X275355Y348824D01*
X275447Y348680D01*
X275498Y348623D01*
X275542Y348561D01*
X275662Y348440D01*
X275776Y348312D01*
X275835Y348264D01*
X275889Y348210D01*
X276027Y348109D01*
X276160Y348002D01*
X276226Y347965D01*
X276287Y347920D01*
X276440Y347843D01*
X276588Y347758D01*
X276660Y347732D01*
X276728Y347697D01*
X276891Y347646D01*
X277051Y347587D01*
X277126Y347572D01*
X277198Y347549D01*
X277303Y347537D01*
X277535Y347492D01*
X277771Y347485D01*
X277876Y347473D01*
X280924Y347473D01*
X281000Y347479D01*
X281076Y347477D01*
X281245Y347499D01*
X281416Y347513D01*
X281490Y347531D01*
X281565Y347541D01*
X281729Y347590D01*
X281895Y347631D01*
X281964Y347661D01*
X282038Y347683D01*
X282191Y347759D01*
X282348Y347826D01*
X282412Y347867D01*
X282481Y347900D01*
X282620Y347999D01*
X282764Y348091D01*
X282821Y348142D01*
X282883Y348186D01*
X283004Y348306D01*
X283132Y348420D01*
X283180Y348479D01*
X283234Y348533D01*
X283335Y348671D01*
X283442Y348804D01*
X283479Y348870D01*
X283524Y348931D01*
X283601Y349084D01*
X283686Y349232D01*
X283712Y349304D01*
X283747Y349372D01*
X283798Y349535D01*
X283857Y349695D01*
X283872Y349770D01*
X283895Y349842D01*
X283907Y349947D01*
X283952Y350179D01*
X283959Y350415D01*
X283971Y350520D01*
X283971Y351121D01*
X285209Y354109D01*
X286635Y355534D01*
X286709Y355622D01*
X286790Y355702D01*
X286868Y355809D01*
X286954Y355910D01*
X287013Y356008D01*
X287080Y356101D01*
X287140Y356219D01*
X287209Y356333D01*
X287251Y356439D01*
X287303Y356541D01*
X287343Y356668D01*
X287392Y356791D01*
X287417Y356902D01*
X287451Y357011D01*
X287461Y357105D01*
X287499Y357273D01*
X287517Y357597D01*
X287527Y357689D01*
X287527Y388004D01*
X287524Y388042D01*
X287526Y388080D01*
X287504Y388288D01*
X287487Y388495D01*
X287478Y388532D01*
X287474Y388570D01*
X287419Y388772D01*
X287369Y388974D01*
X287354Y389009D01*
X287343Y389046D01*
X287256Y389236D01*
X287174Y389428D01*
X287154Y389460D01*
X287138Y389495D01*
X287021Y389668D01*
X286909Y389844D01*
X286884Y389872D01*
X286862Y389904D01*
X286719Y390056D01*
X286580Y390212D01*
X286551Y390236D01*
X286524Y390263D01*
X286359Y390390D01*
X286196Y390522D01*
X286163Y390540D01*
X286133Y390564D01*
X285949Y390662D01*
X285768Y390766D01*
X285732Y390779D01*
X285698Y390797D01*
X285501Y390865D01*
X285305Y390937D01*
X285268Y390944D01*
X285232Y390957D01*
X285026Y390992D01*
X284821Y391032D01*
X284783Y391033D01*
X284745Y391039D01*
X284536Y391041D01*
X284328Y391047D01*
X284290Y391042D01*
X284252Y391042D01*
X284046Y391010D01*
X283839Y390983D01*
X283802Y390972D01*
X283765Y390966D01*
X283567Y390901D01*
X283367Y390840D01*
X283332Y390823D01*
X283296Y390812D01*
X283111Y390715D01*
X282923Y390623D01*
X282892Y390601D01*
X282858Y390584D01*
X282785Y390526D01*
X282521Y390338D01*
X282399Y390217D01*
X282325Y390158D01*
X281990Y389823D01*
X280310Y389127D01*
X223520Y389127D01*
X223444Y389121D01*
X223368Y389123D01*
X223199Y389101D01*
X223028Y389087D01*
X222954Y389069D01*
X222879Y389059D01*
X222715Y389010D01*
X222549Y388969D01*
X222480Y388939D01*
X222406Y388917D01*
X222253Y388841D01*
X222096Y388774D01*
X222032Y388733D01*
X221963Y388700D01*
X221824Y388601D01*
X221680Y388509D01*
X221623Y388458D01*
X221561Y388414D01*
X221440Y388294D01*
X221312Y388180D01*
X221264Y388121D01*
X221210Y388067D01*
X221109Y387929D01*
X221002Y387796D01*
X220965Y387730D01*
X220920Y387669D01*
X220843Y387516D01*
X220758Y387368D01*
X220732Y387296D01*
X220697Y387228D01*
X220646Y387065D01*
X220587Y386905D01*
X220572Y386830D01*
X220549Y386758D01*
X220537Y386653D01*
X220492Y386421D01*
X220485Y386185D01*
X220473Y386080D01*
X220473Y357689D01*
X220482Y357576D01*
X220481Y357461D01*
X220502Y357330D01*
X220513Y357198D01*
X220540Y357087D01*
X220558Y356974D01*
X220599Y356848D01*
X220631Y356719D01*
X220676Y356614D01*
X220712Y356505D01*
X220774Y356387D01*
X220826Y356265D01*
X220887Y356169D01*
X220940Y356068D01*
X220999Y355994D01*
X221091Y355849D01*
X221307Y355607D01*
X221365Y355534D01*
X222791Y354109D01*
X224029Y351121D01*
X224029Y334679D01*
X222791Y331691D01*
X220505Y329405D01*
X217517Y328167D01*
X214283Y328167D01*
X211295Y329405D01*
X209009Y331691D01*
X207771Y334679D01*
X207771Y351121D01*
X209009Y354109D01*
X210435Y355534D01*
X210509Y355622D01*
X210590Y355702D01*
X210668Y355809D01*
X210754Y355910D01*
X210813Y356008D01*
X210880Y356101D01*
X210940Y356219D01*
X211009Y356333D01*
X211051Y356439D01*
X211103Y356541D01*
X211143Y356668D01*
X211192Y356791D01*
X211217Y356902D01*
X211251Y357011D01*
X211261Y357105D01*
X211299Y357273D01*
X211317Y357597D01*
X211327Y357689D01*
X211327Y386080D01*
X211322Y386143D01*
X211323Y386184D01*
X211322Y386193D01*
X211323Y386232D01*
X211301Y386401D01*
X211287Y386572D01*
X211269Y386646D01*
X211259Y386721D01*
X211210Y386885D01*
X211169Y387051D01*
X211139Y387120D01*
X211117Y387194D01*
X211041Y387347D01*
X210974Y387504D01*
X210933Y387568D01*
X210900Y387637D01*
X210801Y387776D01*
X210709Y387920D01*
X210658Y387977D01*
X210614Y388039D01*
X210494Y388160D01*
X210380Y388288D01*
X210321Y388336D01*
X210267Y388390D01*
X210129Y388491D01*
X209996Y388598D01*
X209930Y388635D01*
X209869Y388680D01*
X209716Y388757D01*
X209568Y388842D01*
X209496Y388868D01*
X209428Y388903D01*
X209265Y388954D01*
X209105Y389013D01*
X209030Y389028D01*
X208958Y389051D01*
X208853Y389063D01*
X208621Y389108D01*
X208385Y389115D01*
X208280Y389127D01*
X202290Y389127D01*
X200610Y389823D01*
X186623Y403810D01*
X186101Y405071D01*
X186096Y405080D01*
X186093Y405089D01*
X185984Y405299D01*
X185876Y405510D01*
X185870Y405518D01*
X185866Y405527D01*
X185840Y405558D01*
X185583Y405907D01*
X185489Y405998D01*
X185440Y406060D01*
X183609Y407891D01*
X182371Y410879D01*
X182371Y427321D01*
X183609Y430309D01*
X185895Y432595D01*
X188883Y433833D01*
X192117Y433833D01*
X195105Y432595D01*
X197391Y430309D01*
X198629Y427321D01*
X198629Y410879D01*
X197609Y408418D01*
X197543Y408211D01*
X197471Y408003D01*
X197467Y407975D01*
X197458Y407948D01*
X197426Y407733D01*
X197389Y407517D01*
X197389Y407489D01*
X197384Y407460D01*
X197387Y407243D01*
X197386Y407024D01*
X197390Y406996D01*
X197391Y406967D01*
X197428Y406753D01*
X197462Y406536D01*
X197471Y406509D01*
X197476Y406481D01*
X197548Y406276D01*
X197617Y406068D01*
X197630Y406043D01*
X197639Y406016D01*
X197743Y405824D01*
X197845Y405630D01*
X197859Y405612D01*
X197875Y405582D01*
X198178Y405193D01*
X198237Y405138D01*
X198270Y405097D01*
X204202Y399165D01*
X204289Y399091D01*
X204369Y399010D01*
X204476Y398932D01*
X204578Y398846D01*
X204675Y398787D01*
X204768Y398720D01*
X204886Y398660D01*
X205000Y398591D01*
X205106Y398549D01*
X205208Y398497D01*
X205335Y398457D01*
X205458Y398408D01*
X205569Y398383D01*
X205679Y398349D01*
X205772Y398339D01*
X205940Y398301D01*
X206264Y398283D01*
X206356Y398273D01*
X261779Y398273D01*
X261802Y398275D01*
X261825Y398273D01*
X262048Y398295D01*
X262271Y398313D01*
X262293Y398318D01*
X262316Y398320D01*
X262532Y398378D01*
X262750Y398431D01*
X262771Y398440D01*
X262793Y398446D01*
X262997Y398537D01*
X263203Y398626D01*
X263222Y398638D01*
X263243Y398648D01*
X263431Y398771D01*
X263619Y398891D01*
X263636Y398906D01*
X263655Y398919D01*
X263820Y399071D01*
X263987Y399220D01*
X264001Y399238D01*
X264018Y399253D01*
X264157Y399430D01*
X264297Y399604D01*
X264308Y399623D01*
X264322Y399641D01*
X264430Y399838D01*
X264541Y400032D01*
X264549Y400054D01*
X264560Y400074D01*
X264635Y400285D01*
X264712Y400495D01*
X264717Y400517D01*
X264724Y400539D01*
X264764Y400760D01*
X264807Y400979D01*
X264808Y401002D01*
X264812Y401024D01*
X264816Y401250D01*
X264822Y401472D01*
X264819Y401495D01*
X264820Y401518D01*
X264787Y401740D01*
X264758Y401961D01*
X264751Y401983D01*
X264748Y402006D01*
X264680Y402219D01*
X264616Y402433D01*
X264605Y402454D01*
X264599Y402476D01*
X264497Y402676D01*
X264399Y402877D01*
X264385Y402895D01*
X264375Y402916D01*
X264242Y403097D01*
X264113Y403279D01*
X264097Y403295D01*
X264084Y403314D01*
X263923Y403471D01*
X263766Y403630D01*
X263748Y403643D01*
X263732Y403659D01*
X263671Y403700D01*
X263368Y403920D01*
X263235Y403988D01*
X263162Y404035D01*
X261907Y404675D01*
X260743Y405521D01*
X259725Y406539D01*
X258879Y407703D01*
X258225Y408986D01*
X257780Y410355D01*
X257555Y411776D01*
X257555Y416053D01*
X266700Y416053D01*
X275845Y416053D01*
X275845Y411776D01*
X275620Y410355D01*
X275175Y408986D01*
X274521Y407703D01*
X273675Y406539D01*
X272657Y405521D01*
X271493Y404675D01*
X270238Y404035D01*
X270218Y404023D01*
X270197Y404014D01*
X270009Y403894D01*
X269818Y403776D01*
X269800Y403761D01*
X269781Y403749D01*
X269614Y403600D01*
X269445Y403453D01*
X269430Y403436D01*
X269413Y403420D01*
X269273Y403247D01*
X269129Y403074D01*
X269117Y403054D01*
X269103Y403036D01*
X268993Y402843D01*
X268879Y402649D01*
X268870Y402628D01*
X268859Y402608D01*
X268781Y402398D01*
X268700Y402189D01*
X268696Y402167D01*
X268688Y402145D01*
X268645Y401926D01*
X268598Y401706D01*
X268597Y401683D01*
X268593Y401661D01*
X268586Y401437D01*
X268576Y401213D01*
X268578Y401191D01*
X268578Y401168D01*
X268607Y400946D01*
X268633Y400723D01*
X268639Y400702D01*
X268642Y400679D01*
X268707Y400464D01*
X268768Y400249D01*
X268778Y400228D01*
X268784Y400206D01*
X268883Y400005D01*
X268978Y399803D01*
X268991Y399784D01*
X269001Y399763D01*
X269131Y399581D01*
X269258Y399396D01*
X269274Y399380D01*
X269287Y399361D01*
X269444Y399202D01*
X269599Y399040D01*
X269618Y399026D01*
X269634Y399010D01*
X269814Y398879D01*
X269994Y398744D01*
X270014Y398733D01*
X270032Y398720D01*
X270231Y398619D01*
X270431Y398515D01*
X270452Y398508D01*
X270473Y398497D01*
X270686Y398430D01*
X270899Y398360D01*
X270921Y398356D01*
X270943Y398349D01*
X271016Y398341D01*
X271386Y398282D01*
X271535Y398282D01*
X271621Y398273D01*
X276244Y398273D01*
X276357Y398282D01*
X276472Y398281D01*
X276603Y398302D01*
X276735Y398313D01*
X276846Y398340D01*
X276959Y398358D01*
X277085Y398399D01*
X277214Y398431D01*
X277319Y398476D01*
X277428Y398512D01*
X277546Y398574D01*
X277668Y398626D01*
X277764Y398687D01*
X277865Y398740D01*
X277939Y398799D01*
X278084Y398891D01*
X278326Y399107D01*
X278398Y399165D01*
X284330Y405097D01*
X284472Y405264D01*
X284616Y405427D01*
X284631Y405451D01*
X284650Y405473D01*
X284763Y405660D01*
X284879Y405845D01*
X284890Y405871D01*
X284904Y405895D01*
X284985Y406098D01*
X285070Y406300D01*
X285077Y406327D01*
X285087Y406354D01*
X285135Y406567D01*
X285186Y406779D01*
X285188Y406807D01*
X285194Y406835D01*
X285206Y407054D01*
X285223Y407271D01*
X285220Y407299D01*
X285222Y407328D01*
X285199Y407545D01*
X285180Y407763D01*
X285173Y407785D01*
X285170Y407818D01*
X285039Y408294D01*
X285005Y408367D01*
X284991Y408418D01*
X283971Y410879D01*
X283971Y427321D01*
X285209Y430309D01*
X286635Y431735D01*
X286709Y431821D01*
X286790Y431902D01*
X286868Y432009D01*
X286954Y432110D01*
X287013Y432208D01*
X287080Y432301D01*
X287140Y432419D01*
X287209Y432533D01*
X287251Y432639D01*
X287303Y432741D01*
X287343Y432868D01*
X287392Y432991D01*
X287417Y433102D01*
X287451Y433212D01*
X287461Y433305D01*
X287499Y433473D01*
X287517Y433797D01*
X287527Y433889D01*
X287527Y467811D01*
X287518Y467924D01*
X287519Y468039D01*
X287498Y468170D01*
X287487Y468302D01*
X287460Y468413D01*
X287442Y468526D01*
X287401Y468652D01*
X287369Y468781D01*
X287324Y468886D01*
X287288Y468995D01*
X287226Y469113D01*
X287174Y469235D01*
X287113Y469331D01*
X287060Y469432D01*
X287001Y469506D01*
X286909Y469651D01*
X286693Y469893D01*
X286635Y469966D01*
X285209Y471391D01*
X283971Y474379D01*
X283971Y474980D01*
X283965Y475056D01*
X283967Y475132D01*
X283945Y475301D01*
X283931Y475472D01*
X283913Y475546D01*
X283903Y475621D01*
X283854Y475785D01*
X283813Y475951D01*
X283783Y476020D01*
X283761Y476094D01*
X283685Y476247D01*
X283618Y476404D01*
X283577Y476468D01*
X283544Y476537D01*
X283445Y476676D01*
X283353Y476820D01*
X283302Y476877D01*
X283258Y476939D01*
X283138Y477060D01*
X283024Y477188D01*
X282965Y477236D01*
X282911Y477290D01*
X282773Y477391D01*
X282640Y477498D01*
X282574Y477535D01*
X282513Y477580D01*
X282360Y477657D01*
X282212Y477742D01*
X282140Y477768D01*
X282072Y477803D01*
X281909Y477854D01*
X281749Y477913D01*
X281674Y477928D01*
X281602Y477951D01*
X281497Y477963D01*
X281265Y478008D01*
X281029Y478015D01*
X280924Y478027D01*
X277876Y478027D01*
X277800Y478021D01*
X277724Y478023D01*
X277555Y478001D01*
X277384Y477987D01*
X277310Y477969D01*
X277235Y477959D01*
X277071Y477910D01*
X276905Y477869D01*
X276836Y477839D01*
X276762Y477817D01*
X276609Y477741D01*
X276452Y477674D01*
X276388Y477633D01*
X276319Y477600D01*
X276180Y477501D01*
X276036Y477409D01*
X275979Y477358D01*
X275917Y477314D01*
X275796Y477194D01*
X275668Y477080D01*
X275620Y477021D01*
X275566Y476967D01*
X275465Y476829D01*
X275358Y476696D01*
X275321Y476630D01*
X275276Y476569D01*
X275199Y476416D01*
X275114Y476268D01*
X275088Y476196D01*
X275053Y476128D01*
X275002Y475965D01*
X274943Y475805D01*
X274928Y475730D01*
X274905Y475658D01*
X274893Y475553D01*
X274848Y475321D01*
X274841Y475085D01*
X274829Y474980D01*
X274829Y474379D01*
X273591Y471391D01*
X271305Y469105D01*
X268317Y467867D01*
X265083Y467867D01*
X262095Y469105D01*
X259809Y471391D01*
X258571Y474379D01*
X258571Y490821D01*
X259809Y493809D01*
X262095Y496095D01*
X265083Y497333D01*
X268317Y497333D01*
X271305Y496095D01*
X273591Y493809D01*
X274829Y490821D01*
X274829Y490220D01*
X274835Y490144D01*
X274833Y490068D01*
X274855Y489899D01*
X274869Y489728D01*
X274887Y489654D01*
X274897Y489579D01*
X274946Y489415D01*
X274987Y489249D01*
X275017Y489180D01*
X275039Y489106D01*
X275115Y488953D01*
X275182Y488796D01*
X275223Y488732D01*
X275256Y488663D01*
X275355Y488524D01*
X275447Y488380D01*
X275498Y488323D01*
X275542Y488261D01*
X275662Y488140D01*
X275776Y488012D01*
X275835Y487964D01*
X275889Y487910D01*
X276027Y487809D01*
X276160Y487702D01*
X276226Y487665D01*
X276287Y487620D01*
X276440Y487543D01*
X276588Y487458D01*
X276660Y487432D01*
X276728Y487397D01*
X276891Y487346D01*
X277051Y487287D01*
X277126Y487272D01*
X277198Y487249D01*
X277303Y487237D01*
X277535Y487192D01*
X277771Y487185D01*
X277876Y487173D01*
X280924Y487173D01*
X281000Y487179D01*
X281076Y487177D01*
X281245Y487199D01*
X281416Y487213D01*
X281490Y487231D01*
X281565Y487241D01*
X281729Y487290D01*
X281895Y487331D01*
X281964Y487361D01*
X282038Y487383D01*
X282191Y487459D01*
X282348Y487526D01*
X282412Y487567D01*
X282481Y487600D01*
X282620Y487699D01*
X282764Y487791D01*
X282821Y487842D01*
X282883Y487886D01*
X283004Y488006D01*
X283132Y488120D01*
X283180Y488179D01*
X283234Y488233D01*
X283335Y488371D01*
X283442Y488504D01*
X283479Y488570D01*
X283524Y488631D01*
X283601Y488784D01*
X283686Y488932D01*
X283712Y489004D01*
X283747Y489072D01*
X283798Y489235D01*
X283857Y489395D01*
X283872Y489470D01*
X283895Y489542D01*
X283907Y489647D01*
X283952Y489879D01*
X283959Y490115D01*
X283971Y490220D01*
X283971Y490821D01*
X285209Y493809D01*
X286635Y495234D01*
X286709Y495322D01*
X286790Y495402D01*
X286868Y495509D01*
X286954Y495610D01*
X287013Y495708D01*
X287080Y495801D01*
X287140Y495919D01*
X287209Y496033D01*
X287251Y496139D01*
X287303Y496241D01*
X287343Y496368D01*
X287392Y496491D01*
X287417Y496602D01*
X287451Y496711D01*
X287461Y496805D01*
X287499Y496973D01*
X287517Y497297D01*
X287527Y497389D01*
X287527Y527704D01*
X287524Y527742D01*
X287526Y527780D01*
X287504Y527988D01*
X287487Y528195D01*
X287478Y528232D01*
X287474Y528270D01*
X287419Y528472D01*
X287369Y528674D01*
X287354Y528709D01*
X287343Y528746D01*
X287256Y528936D01*
X287174Y529128D01*
X287154Y529160D01*
X287138Y529195D01*
X287021Y529368D01*
X286909Y529544D01*
X286884Y529572D01*
X286862Y529604D01*
X286719Y529756D01*
X286580Y529912D01*
X286551Y529936D01*
X286524Y529963D01*
X286359Y530090D01*
X286196Y530222D01*
X286163Y530240D01*
X286133Y530264D01*
X285949Y530362D01*
X285768Y530466D01*
X285732Y530479D01*
X285698Y530497D01*
X285501Y530565D01*
X285305Y530637D01*
X285268Y530644D01*
X285232Y530657D01*
X285026Y530692D01*
X284821Y530732D01*
X284783Y530733D01*
X284745Y530739D01*
X284536Y530741D01*
X284328Y530747D01*
X284290Y530742D01*
X284252Y530742D01*
X284046Y530710D01*
X283839Y530683D01*
X283802Y530672D01*
X283765Y530666D01*
X283567Y530601D01*
X283367Y530540D01*
X283332Y530523D01*
X283296Y530512D01*
X283111Y530415D01*
X282923Y530323D01*
X282892Y530301D01*
X282858Y530284D01*
X282785Y530226D01*
X282521Y530038D01*
X282399Y529917D01*
X282325Y529858D01*
X281990Y529523D01*
X280310Y528827D01*
X223520Y528827D01*
X223444Y528821D01*
X223368Y528823D01*
X223199Y528801D01*
X223028Y528787D01*
X222954Y528769D01*
X222879Y528759D01*
X222715Y528710D01*
X222549Y528669D01*
X222480Y528639D01*
X222406Y528617D01*
X222253Y528541D01*
X222096Y528474D01*
X222032Y528433D01*
X221963Y528400D01*
X221824Y528301D01*
X221680Y528209D01*
X221623Y528158D01*
X221561Y528114D01*
X221440Y527994D01*
X221312Y527880D01*
X221264Y527821D01*
X221210Y527767D01*
X221109Y527629D01*
X221002Y527496D01*
X220965Y527430D01*
X220920Y527369D01*
X220843Y527216D01*
X220758Y527068D01*
X220732Y526996D01*
X220697Y526928D01*
X220646Y526765D01*
X220587Y526605D01*
X220572Y526530D01*
X220549Y526458D01*
X220537Y526353D01*
X220492Y526121D01*
X220485Y525885D01*
X220473Y525780D01*
X220473Y497389D01*
X220482Y497276D01*
X220481Y497161D01*
X220502Y497030D01*
X220513Y496898D01*
X220540Y496787D01*
X220558Y496674D01*
X220599Y496548D01*
X220631Y496419D01*
X220676Y496314D01*
X220712Y496205D01*
X220774Y496087D01*
X220826Y495965D01*
X220887Y495869D01*
X220940Y495768D01*
X220999Y495694D01*
X221091Y495549D01*
X221307Y495307D01*
X221365Y495235D01*
X222791Y493809D01*
X224029Y490821D01*
X224029Y474379D01*
X222791Y471391D01*
X220505Y469105D01*
X217517Y467867D01*
X214283Y467867D01*
X211295Y469105D01*
X209009Y471391D01*
X207771Y474379D01*
X207771Y490821D01*
X209009Y493809D01*
X210435Y495235D01*
X210509Y495321D01*
X210590Y495402D01*
X210668Y495509D01*
X210754Y495610D01*
X210813Y495708D01*
X210880Y495801D01*
X210940Y495919D01*
X211009Y496033D01*
X211051Y496139D01*
X211103Y496241D01*
X211143Y496368D01*
X211192Y496491D01*
X211217Y496602D01*
X211251Y496712D01*
X211261Y496805D01*
X211299Y496973D01*
X211317Y497297D01*
X211327Y497389D01*
X211327Y525780D01*
X211321Y525856D01*
X211323Y525932D01*
X211301Y526101D01*
X211287Y526272D01*
X211269Y526346D01*
X211259Y526421D01*
X211210Y526585D01*
X211169Y526751D01*
X211139Y526820D01*
X211117Y526894D01*
X211041Y527047D01*
X210974Y527204D01*
X210933Y527268D01*
X210900Y527337D01*
X210801Y527476D01*
X210709Y527620D01*
X210658Y527677D01*
X210614Y527739D01*
X210494Y527860D01*
X210380Y527988D01*
X210321Y528036D01*
X210267Y528090D01*
X210129Y528191D01*
X209996Y528298D01*
X209930Y528335D01*
X209869Y528380D01*
X209716Y528457D01*
X209568Y528542D01*
X209496Y528568D01*
X209428Y528603D01*
X209265Y528654D01*
X209105Y528713D01*
X209030Y528728D01*
X208958Y528751D01*
X208853Y528763D01*
X208621Y528808D01*
X208385Y528815D01*
X208280Y528827D01*
X202290Y528827D01*
X200610Y529523D01*
X186623Y543510D01*
X186101Y544771D01*
X186096Y544780D01*
X186093Y544789D01*
X185984Y544999D01*
X185876Y545210D01*
X185870Y545218D01*
X185866Y545227D01*
X185840Y545258D01*
X185583Y545607D01*
X185489Y545698D01*
X185440Y545760D01*
X183609Y547591D01*
X182371Y550579D01*
X182371Y567021D01*
X183609Y570009D01*
X185895Y572295D01*
X188883Y573533D01*
X192117Y573533D01*
X195105Y572295D01*
X197391Y570009D01*
X198629Y567021D01*
X198629Y550579D01*
X197609Y548118D01*
X197543Y547911D01*
X197471Y547703D01*
X197467Y547675D01*
X197458Y547648D01*
X197426Y547433D01*
X197389Y547217D01*
X197389Y547189D01*
X197384Y547160D01*
X197387Y546943D01*
X197386Y546724D01*
X197390Y546696D01*
X197391Y546667D01*
X197428Y546453D01*
X197462Y546236D01*
X197471Y546209D01*
X197476Y546181D01*
X197548Y545976D01*
X197617Y545768D01*
X197630Y545743D01*
X197639Y545716D01*
X197743Y545524D01*
X197845Y545330D01*
X197859Y545312D01*
X197875Y545282D01*
X198178Y544893D01*
X198237Y544838D01*
X198270Y544797D01*
X204202Y538865D01*
X204289Y538791D01*
X204369Y538710D01*
X204476Y538632D01*
X204578Y538546D01*
X204675Y538487D01*
X204768Y538420D01*
X204886Y538360D01*
X205000Y538291D01*
X205106Y538249D01*
X205208Y538197D01*
X205335Y538157D01*
X205458Y538108D01*
X205569Y538083D01*
X205679Y538049D01*
X205772Y538039D01*
X205940Y538001D01*
X206264Y537983D01*
X206356Y537973D01*
X261779Y537973D01*
X261802Y537975D01*
X261825Y537973D01*
X262048Y537995D01*
X262271Y538013D01*
X262293Y538018D01*
X262316Y538020D01*
X262533Y538078D01*
X262750Y538131D01*
X262771Y538140D01*
X262793Y538146D01*
X262998Y538238D01*
X263203Y538326D01*
X263222Y538338D01*
X263243Y538348D01*
X263431Y538471D01*
X263619Y538591D01*
X263636Y538606D01*
X263655Y538619D01*
X263820Y538771D01*
X263987Y538920D01*
X264001Y538938D01*
X264018Y538953D01*
X264156Y539130D01*
X264297Y539304D01*
X264308Y539323D01*
X264322Y539341D01*
X264430Y539538D01*
X264541Y539732D01*
X264549Y539754D01*
X264560Y539774D01*
X264634Y539985D01*
X264712Y540195D01*
X264717Y540217D01*
X264724Y540239D01*
X264764Y540460D01*
X264807Y540679D01*
X264808Y540702D01*
X264812Y540724D01*
X264816Y540950D01*
X264822Y541172D01*
X264820Y541195D01*
X264820Y541218D01*
X264787Y541440D01*
X264758Y541661D01*
X264751Y541683D01*
X264748Y541706D01*
X264680Y541919D01*
X264616Y542133D01*
X264606Y542154D01*
X264599Y542176D01*
X264497Y542376D01*
X264399Y542577D01*
X264386Y542595D01*
X264375Y542616D01*
X264243Y542796D01*
X264113Y542979D01*
X264097Y542995D01*
X264084Y543014D01*
X263924Y543170D01*
X263767Y543330D01*
X263748Y543343D01*
X263732Y543359D01*
X263671Y543400D01*
X263368Y543620D01*
X263234Y543688D01*
X263162Y543735D01*
X261907Y544375D01*
X260743Y545221D01*
X259725Y546239D01*
X258879Y547403D01*
X258225Y548686D01*
X257780Y550055D01*
X257555Y551476D01*
X257555Y555753D01*
X266700Y555753D01*
X275845Y555753D01*
X275845Y551476D01*
X275620Y550055D01*
X275175Y548686D01*
X274521Y547403D01*
X273675Y546239D01*
X272657Y545221D01*
X271493Y544375D01*
X270238Y543735D01*
X270218Y543723D01*
X270197Y543714D01*
X270009Y543594D01*
X269818Y543476D01*
X269800Y543461D01*
X269781Y543449D01*
X269614Y543300D01*
X269445Y543153D01*
X269430Y543136D01*
X269413Y543120D01*
X269272Y542946D01*
X269129Y542774D01*
X269118Y542754D01*
X269103Y542736D01*
X268992Y542542D01*
X268879Y542349D01*
X268871Y542328D01*
X268859Y542308D01*
X268781Y542098D01*
X268700Y541889D01*
X268695Y541867D01*
X268688Y541845D01*
X268645Y541626D01*
X268598Y541406D01*
X268597Y541383D01*
X268593Y541361D01*
X268586Y541138D01*
X268576Y540914D01*
X268578Y540891D01*
X268578Y540868D01*
X268607Y540645D01*
X268633Y540423D01*
X268639Y540401D01*
X268642Y540379D01*
X268707Y540164D01*
X268768Y539949D01*
X268778Y539929D01*
X268784Y539906D01*
X268883Y539705D01*
X268978Y539503D01*
X268991Y539484D01*
X269001Y539463D01*
X269131Y539281D01*
X269258Y539096D01*
X269274Y539080D01*
X269287Y539061D01*
X269444Y538902D01*
X269599Y538740D01*
X269617Y538726D01*
X269633Y538710D01*
X269815Y538578D01*
X269993Y538444D01*
X270014Y538433D01*
X270032Y538420D01*
X270233Y538319D01*
X270431Y538215D01*
X270452Y538208D01*
X270473Y538197D01*
X270687Y538130D01*
X270899Y538060D01*
X270921Y538056D01*
X270943Y538049D01*
X271016Y538041D01*
X271386Y537982D01*
X271535Y537982D01*
X271621Y537973D01*
X276244Y537973D01*
X276357Y537982D01*
X276472Y537981D01*
X276603Y538002D01*
X276735Y538013D01*
X276846Y538040D01*
X276959Y538058D01*
X277085Y538099D01*
X277214Y538131D01*
X277319Y538176D01*
X277428Y538212D01*
X277546Y538274D01*
X277668Y538326D01*
X277764Y538387D01*
X277865Y538440D01*
X277939Y538499D01*
X278084Y538591D01*
X278326Y538807D01*
X278398Y538865D01*
X284330Y544797D01*
X284472Y544964D01*
X284616Y545127D01*
X284631Y545151D01*
X284650Y545173D01*
X284763Y545360D01*
X284879Y545545D01*
X284890Y545571D01*
X284904Y545595D01*
X284985Y545798D01*
X285070Y546000D01*
X285077Y546027D01*
X285087Y546054D01*
X285135Y546267D01*
X285186Y546479D01*
X285188Y546507D01*
X285194Y546535D01*
X285206Y546754D01*
X285223Y546971D01*
X285220Y546999D01*
X285222Y547028D01*
X285199Y547245D01*
X285180Y547463D01*
X285173Y547485D01*
X285170Y547518D01*
X285039Y547994D01*
X285005Y548067D01*
X284991Y548118D01*
X283971Y550579D01*
X283971Y567021D01*
X285209Y570009D01*
X286635Y571434D01*
X286709Y571522D01*
X286790Y571602D01*
X286868Y571709D01*
X286954Y571810D01*
X287013Y571908D01*
X287080Y572001D01*
X287140Y572119D01*
X287209Y572233D01*
X287251Y572339D01*
X287303Y572441D01*
X287343Y572568D01*
X287392Y572691D01*
X287417Y572802D01*
X287451Y572911D01*
X287461Y573005D01*
X287499Y573173D01*
X287517Y573497D01*
X287527Y573589D01*
X287527Y594811D01*
X287518Y594924D01*
X287519Y595039D01*
X287498Y595170D01*
X287487Y595302D01*
X287460Y595413D01*
X287442Y595526D01*
X287401Y595652D01*
X287369Y595781D01*
X287324Y595886D01*
X287288Y595995D01*
X287226Y596113D01*
X287174Y596235D01*
X287113Y596331D01*
X287060Y596432D01*
X287001Y596506D01*
X286909Y596651D01*
X286693Y596893D01*
X286635Y596965D01*
X285209Y598391D01*
X283971Y601379D01*
X283971Y601980D01*
X283965Y602056D01*
X283967Y602132D01*
X283945Y602301D01*
X283931Y602472D01*
X283913Y602546D01*
X283903Y602621D01*
X283854Y602785D01*
X283813Y602951D01*
X283783Y603020D01*
X283761Y603094D01*
X283685Y603247D01*
X283618Y603404D01*
X283577Y603468D01*
X283544Y603537D01*
X283445Y603676D01*
X283353Y603820D01*
X283302Y603877D01*
X283258Y603939D01*
X283138Y604060D01*
X283024Y604188D01*
X282965Y604236D01*
X282911Y604290D01*
X282773Y604391D01*
X282640Y604498D01*
X282574Y604535D01*
X282513Y604580D01*
X282360Y604657D01*
X282212Y604742D01*
X282140Y604768D01*
X282072Y604803D01*
X281909Y604854D01*
X281749Y604913D01*
X281674Y604928D01*
X281602Y604951D01*
X281497Y604963D01*
X281265Y605008D01*
X281029Y605015D01*
X280924Y605027D01*
X277876Y605027D01*
X277800Y605021D01*
X277724Y605023D01*
X277555Y605001D01*
X277384Y604987D01*
X277310Y604969D01*
X277235Y604959D01*
X277071Y604910D01*
X276905Y604869D01*
X276836Y604839D01*
X276762Y604817D01*
X276609Y604741D01*
X276452Y604674D01*
X276388Y604633D01*
X276319Y604600D01*
X276180Y604501D01*
X276036Y604409D01*
X275979Y604358D01*
X275917Y604314D01*
X275796Y604194D01*
X275668Y604080D01*
X275620Y604021D01*
X275566Y603967D01*
X275465Y603829D01*
X275358Y603696D01*
X275321Y603630D01*
X275276Y603569D01*
X275199Y603416D01*
X275114Y603268D01*
X275088Y603196D01*
X275053Y603128D01*
X275002Y602965D01*
X274943Y602805D01*
X274928Y602730D01*
X274905Y602658D01*
X274893Y602553D01*
X274848Y602321D01*
X274841Y602085D01*
X274829Y601980D01*
X274829Y601379D01*
X273591Y598391D01*
X271305Y596105D01*
X268317Y594867D01*
X265083Y594867D01*
X262095Y596105D01*
X259809Y598391D01*
X258571Y601379D01*
X258571Y617821D01*
X259809Y620809D01*
X262095Y623095D01*
X265083Y624333D01*
X268317Y624333D01*
X271305Y623095D01*
X273591Y620809D01*
X274829Y617821D01*
X274829Y617220D01*
X274835Y617144D01*
X274833Y617068D01*
X274855Y616899D01*
X274869Y616728D01*
X274887Y616654D01*
X274897Y616579D01*
X274946Y616415D01*
X274987Y616249D01*
X275017Y616180D01*
X275039Y616106D01*
X275115Y615953D01*
X275182Y615796D01*
X275223Y615732D01*
X275256Y615663D01*
X275355Y615524D01*
X275447Y615380D01*
X275498Y615323D01*
X275542Y615261D01*
X275662Y615140D01*
X275776Y615012D01*
X275835Y614964D01*
X275889Y614910D01*
X276027Y614809D01*
X276160Y614702D01*
X276226Y614665D01*
X276287Y614620D01*
X276440Y614543D01*
X276588Y614458D01*
X276660Y614432D01*
X276728Y614397D01*
X276891Y614346D01*
X277051Y614287D01*
X277126Y614272D01*
X277198Y614249D01*
X277303Y614237D01*
X277535Y614192D01*
X277771Y614185D01*
X277876Y614173D01*
X280924Y614173D01*
X281000Y614179D01*
X281076Y614177D01*
X281245Y614199D01*
X281416Y614213D01*
X281490Y614231D01*
X281565Y614241D01*
X281729Y614290D01*
X281895Y614331D01*
X281964Y614361D01*
X282038Y614383D01*
X282191Y614459D01*
X282348Y614526D01*
X282412Y614567D01*
X282481Y614600D01*
X282620Y614699D01*
X282764Y614791D01*
X282821Y614842D01*
X282883Y614886D01*
X283004Y615006D01*
X283132Y615120D01*
X283180Y615179D01*
X283234Y615233D01*
X283335Y615371D01*
X283442Y615504D01*
X283479Y615570D01*
X283524Y615631D01*
X283601Y615784D01*
X283686Y615932D01*
X283712Y616004D01*
X283747Y616072D01*
X283798Y616235D01*
X283857Y616395D01*
X283872Y616470D01*
X283895Y616542D01*
X283907Y616647D01*
X283952Y616879D01*
X283959Y617115D01*
X283971Y617220D01*
X283971Y617821D01*
X285209Y620809D01*
X286635Y622235D01*
X286709Y622321D01*
X286790Y622402D01*
X286868Y622509D01*
X286954Y622610D01*
X287013Y622708D01*
X287080Y622801D01*
X287140Y622919D01*
X287209Y623033D01*
X287251Y623139D01*
X287303Y623241D01*
X287343Y623368D01*
X287392Y623491D01*
X287417Y623602D01*
X287451Y623712D01*
X287461Y623805D01*
X287499Y623973D01*
X287517Y624297D01*
X287527Y624389D01*
X287527Y654704D01*
X287524Y654742D01*
X287526Y654780D01*
X287504Y654988D01*
X287487Y655195D01*
X287478Y655232D01*
X287474Y655270D01*
X287419Y655472D01*
X287369Y655674D01*
X287354Y655709D01*
X287343Y655746D01*
X287256Y655936D01*
X287174Y656128D01*
X287154Y656160D01*
X287138Y656195D01*
X287021Y656368D01*
X286909Y656544D01*
X286884Y656572D01*
X286862Y656604D01*
X286719Y656756D01*
X286580Y656912D01*
X286551Y656936D01*
X286524Y656963D01*
X286359Y657090D01*
X286196Y657222D01*
X286163Y657240D01*
X286133Y657264D01*
X285949Y657362D01*
X285768Y657466D01*
X285732Y657479D01*
X285698Y657497D01*
X285501Y657565D01*
X285305Y657637D01*
X285268Y657644D01*
X285232Y657657D01*
X285026Y657692D01*
X284821Y657732D01*
X284783Y657733D01*
X284745Y657739D01*
X284536Y657741D01*
X284328Y657747D01*
X284290Y657742D01*
X284252Y657742D01*
X284046Y657710D01*
X283839Y657683D01*
X283802Y657672D01*
X283765Y657666D01*
X283567Y657601D01*
X283367Y657540D01*
X283332Y657523D01*
X283296Y657512D01*
X283111Y657415D01*
X282923Y657323D01*
X282892Y657301D01*
X282858Y657284D01*
X282785Y657226D01*
X282521Y657038D01*
X282399Y656917D01*
X282325Y656858D01*
X281990Y656523D01*
X280310Y655827D01*
X223520Y655827D01*
X223444Y655821D01*
X223368Y655823D01*
X223199Y655801D01*
X223028Y655787D01*
X222954Y655769D01*
X222879Y655759D01*
X222715Y655710D01*
X222549Y655669D01*
X222480Y655639D01*
X222406Y655617D01*
X222253Y655541D01*
X222096Y655474D01*
X222032Y655433D01*
X221963Y655400D01*
X221824Y655301D01*
X221680Y655209D01*
X221623Y655158D01*
X221561Y655114D01*
X221440Y654994D01*
X221312Y654880D01*
X221264Y654821D01*
X221210Y654767D01*
X221109Y654629D01*
X221002Y654496D01*
X220965Y654430D01*
X220920Y654369D01*
X220843Y654216D01*
X220758Y654068D01*
X220732Y653996D01*
X220697Y653928D01*
X220646Y653765D01*
X220587Y653605D01*
X220572Y653530D01*
X220549Y653458D01*
X220537Y653353D01*
X220492Y653121D01*
X220485Y652885D01*
X220473Y652780D01*
X220473Y624389D01*
X220482Y624276D01*
X220481Y624161D01*
X220502Y624030D01*
X220513Y623898D01*
X220540Y623787D01*
X220558Y623674D01*
X220599Y623548D01*
X220631Y623419D01*
X220676Y623314D01*
X220712Y623205D01*
X220774Y623087D01*
X220826Y622965D01*
X220887Y622869D01*
X220940Y622768D01*
X220999Y622694D01*
X221091Y622549D01*
X221307Y622307D01*
X221365Y622235D01*
X222791Y620809D01*
X224029Y617821D01*
X224029Y601379D01*
X222791Y598391D01*
X220505Y596105D01*
X217517Y594867D01*
X214283Y594867D01*
X211295Y596105D01*
X209009Y598391D01*
X207771Y601379D01*
X207771Y617821D01*
X209009Y620809D01*
X210435Y622235D01*
X210509Y622321D01*
X210590Y622402D01*
X210668Y622509D01*
X210754Y622610D01*
X210813Y622708D01*
X210880Y622801D01*
X210940Y622919D01*
X211009Y623033D01*
X211051Y623139D01*
X211103Y623241D01*
X211143Y623368D01*
X211192Y623491D01*
X211217Y623602D01*
X211251Y623712D01*
X211261Y623805D01*
X211299Y623973D01*
X211317Y624297D01*
X211327Y624389D01*
X211327Y652780D01*
X211321Y652856D01*
X211323Y652932D01*
X211301Y653101D01*
X211287Y653272D01*
X211269Y653346D01*
X211259Y653421D01*
X211210Y653585D01*
X211169Y653751D01*
X211139Y653820D01*
X211117Y653894D01*
X211041Y654047D01*
X210974Y654204D01*
X210933Y654268D01*
X210900Y654337D01*
X210801Y654476D01*
X210709Y654620D01*
X210658Y654677D01*
X210614Y654739D01*
X210494Y654860D01*
X210380Y654988D01*
X210321Y655036D01*
X210267Y655090D01*
X210129Y655191D01*
X209996Y655298D01*
X209930Y655335D01*
X209869Y655380D01*
X209716Y655457D01*
X209568Y655542D01*
X209496Y655568D01*
X209428Y655603D01*
X209265Y655654D01*
X209105Y655713D01*
X209030Y655728D01*
X208958Y655751D01*
X208853Y655763D01*
X208621Y655808D01*
X208385Y655815D01*
X208280Y655827D01*
X202290Y655827D01*
X200610Y656523D01*
X198895Y658238D01*
X188338Y668795D01*
X186623Y670510D01*
X186101Y671771D01*
X186096Y671780D01*
X186093Y671789D01*
X185985Y671998D01*
X185876Y672210D01*
X185870Y672218D01*
X185866Y672227D01*
X185841Y672258D01*
X185583Y672607D01*
X185489Y672699D01*
X185440Y672760D01*
X183609Y674591D01*
X182371Y677579D01*
X182371Y694021D01*
X183609Y697009D01*
X185895Y699295D01*
X188883Y700533D01*
X192117Y700533D01*
X195105Y699295D01*
X197391Y697009D01*
X198629Y694021D01*
X198629Y677579D01*
X197609Y675118D01*
X197543Y674911D01*
X197471Y674703D01*
X197467Y674675D01*
X197458Y674648D01*
X197426Y674433D01*
X197389Y674217D01*
X197389Y674189D01*
X197384Y674160D01*
X197387Y673943D01*
X197386Y673724D01*
X197390Y673696D01*
X197391Y673667D01*
X197428Y673452D01*
X197462Y673236D01*
X197471Y673209D01*
X197476Y673181D01*
X197548Y672976D01*
X197617Y672768D01*
X197630Y672743D01*
X197639Y672716D01*
X197743Y672524D01*
X197845Y672330D01*
X197859Y672312D01*
X197875Y672282D01*
X198178Y671893D01*
X198237Y671838D01*
X198270Y671797D01*
X204202Y665865D01*
X204289Y665791D01*
X204369Y665710D01*
X204476Y665632D01*
X204577Y665546D01*
X204675Y665487D01*
X204768Y665420D01*
X204886Y665360D01*
X205000Y665291D01*
X205106Y665249D01*
X205208Y665197D01*
X205335Y665157D01*
X205458Y665108D01*
X205569Y665083D01*
X205679Y665049D01*
X205772Y665039D01*
X205940Y665001D01*
X206264Y664983D01*
X206356Y664973D01*
X261779Y664973D01*
X261802Y664975D01*
X261825Y664973D01*
X262048Y664995D01*
X262271Y665013D01*
X262293Y665018D01*
X262316Y665020D01*
X262532Y665078D01*
X262750Y665131D01*
X262771Y665140D01*
X262793Y665146D01*
X262997Y665237D01*
X263203Y665326D01*
X263222Y665338D01*
X263243Y665348D01*
X263431Y665471D01*
X263619Y665591D01*
X263636Y665606D01*
X263655Y665619D01*
X263820Y665771D01*
X263987Y665920D01*
X264001Y665938D01*
X264018Y665953D01*
X264157Y666130D01*
X264297Y666304D01*
X264308Y666323D01*
X264322Y666341D01*
X264430Y666538D01*
X264541Y666732D01*
X264549Y666754D01*
X264560Y666774D01*
X264635Y666985D01*
X264712Y667195D01*
X264717Y667217D01*
X264724Y667239D01*
X264764Y667460D01*
X264807Y667679D01*
X264808Y667702D01*
X264812Y667724D01*
X264816Y667950D01*
X264822Y668172D01*
X264819Y668195D01*
X264820Y668218D01*
X264787Y668440D01*
X264758Y668661D01*
X264751Y668683D01*
X264748Y668706D01*
X264680Y668919D01*
X264616Y669133D01*
X264605Y669154D01*
X264599Y669176D01*
X264497Y669376D01*
X264399Y669577D01*
X264385Y669595D01*
X264375Y669616D01*
X264242Y669797D01*
X264113Y669979D01*
X264097Y669995D01*
X264084Y670014D01*
X263923Y670171D01*
X263766Y670330D01*
X263748Y670343D01*
X263732Y670359D01*
X263671Y670400D01*
X263368Y670620D01*
X263235Y670688D01*
X263162Y670735D01*
X261907Y671375D01*
X260743Y672221D01*
X259725Y673239D01*
X258879Y674403D01*
X258225Y675686D01*
X257780Y677055D01*
X257555Y678476D01*
X257555Y682753D01*
X266700Y682753D01*
X275845Y682753D01*
X275845Y678476D01*
X275620Y677055D01*
X275175Y675686D01*
X274521Y674403D01*
X273675Y673239D01*
X272657Y672221D01*
X271493Y671375D01*
X270238Y670735D01*
X270218Y670723D01*
X270197Y670714D01*
X270009Y670594D01*
X269818Y670476D01*
X269800Y670461D01*
X269781Y670449D01*
X269614Y670300D01*
X269445Y670153D01*
X269430Y670136D01*
X269413Y670120D01*
X269273Y669947D01*
X269129Y669774D01*
X269117Y669754D01*
X269103Y669736D01*
X268993Y669543D01*
X268879Y669349D01*
X268870Y669328D01*
X268859Y669308D01*
X268781Y669098D01*
X268700Y668889D01*
X268696Y668867D01*
X268688Y668845D01*
X268645Y668626D01*
X268598Y668406D01*
X268597Y668383D01*
X268593Y668361D01*
X268586Y668137D01*
X268576Y667913D01*
X268578Y667891D01*
X268578Y667868D01*
X268607Y667646D01*
X268633Y667423D01*
X268639Y667402D01*
X268642Y667379D01*
X268707Y667164D01*
X268768Y666949D01*
X268778Y666928D01*
X268784Y666906D01*
X268883Y666705D01*
X268978Y666503D01*
X268991Y666484D01*
X269001Y666463D01*
X269131Y666281D01*
X269258Y666096D01*
X269274Y666080D01*
X269287Y666061D01*
X269444Y665902D01*
X269599Y665740D01*
X269618Y665726D01*
X269634Y665710D01*
X269814Y665579D01*
X269994Y665444D01*
X270014Y665433D01*
X270032Y665420D01*
X270231Y665319D01*
X270431Y665215D01*
X270452Y665208D01*
X270473Y665197D01*
X270686Y665130D01*
X270899Y665060D01*
X270921Y665056D01*
X270943Y665049D01*
X271016Y665041D01*
X271386Y664982D01*
X271535Y664982D01*
X271621Y664973D01*
X276244Y664973D01*
X276357Y664982D01*
X276472Y664981D01*
X276603Y665002D01*
X276735Y665013D01*
X276846Y665040D01*
X276959Y665058D01*
X277085Y665099D01*
X277214Y665131D01*
X277319Y665176D01*
X277428Y665212D01*
X277546Y665274D01*
X277668Y665326D01*
X277764Y665387D01*
X277865Y665440D01*
X277939Y665499D01*
X278084Y665591D01*
X278326Y665807D01*
X278398Y665865D01*
X284330Y671797D01*
X284472Y671964D01*
X284616Y672127D01*
X284631Y672151D01*
X284650Y672173D01*
X284763Y672360D01*
X284879Y672545D01*
X284890Y672571D01*
X284904Y672595D01*
X284985Y672798D01*
X285070Y673000D01*
X285077Y673027D01*
X285087Y673054D01*
X285135Y673267D01*
X285186Y673479D01*
X285188Y673507D01*
X285194Y673535D01*
X285206Y673754D01*
X285223Y673971D01*
X285220Y673999D01*
X285222Y674028D01*
X285199Y674245D01*
X285180Y674463D01*
X285173Y674485D01*
X285170Y674518D01*
X285039Y674994D01*
X285005Y675067D01*
X284991Y675118D01*
X283971Y677579D01*
X283971Y694021D01*
X285209Y697009D01*
X287495Y699295D01*
X290483Y700533D01*
X293717Y700533D01*
X296705Y699295D01*
X298991Y697009D01*
X300229Y694021D01*
X300229Y677579D01*
X299209Y675118D01*
X299143Y674911D01*
X299071Y674703D01*
X299067Y674675D01*
X299058Y674648D01*
X299026Y674433D01*
X298989Y674217D01*
X298989Y674189D01*
X298984Y674160D01*
X298987Y673943D01*
X298986Y673724D01*
X298990Y673696D01*
X298991Y673667D01*
X299028Y673453D01*
X299062Y673236D01*
X299071Y673209D01*
X299076Y673181D01*
X299148Y672976D01*
X299217Y672768D01*
X299230Y672743D01*
X299239Y672716D01*
X299343Y672524D01*
X299445Y672330D01*
X299459Y672312D01*
X299475Y672282D01*
X299778Y671893D01*
X299837Y671838D01*
X299870Y671797D01*
X305802Y665865D01*
X305889Y665791D01*
X305969Y665710D01*
X306076Y665632D01*
X306178Y665546D01*
X306275Y665487D01*
X306368Y665420D01*
X306486Y665360D01*
X306600Y665291D01*
X306706Y665249D01*
X306808Y665197D01*
X306935Y665157D01*
X307058Y665108D01*
X307169Y665083D01*
X307279Y665049D01*
X307372Y665039D01*
X307540Y665001D01*
X307864Y664983D01*
X307956Y664973D01*
X352444Y664973D01*
X352557Y664982D01*
X352672Y664981D01*
X352803Y665002D01*
X352935Y665013D01*
X353046Y665040D01*
X353159Y665058D01*
X353285Y665099D01*
X353414Y665131D01*
X353519Y665176D01*
X353628Y665212D01*
X353746Y665274D01*
X353868Y665326D01*
X353964Y665387D01*
X354065Y665440D01*
X354139Y665499D01*
X354284Y665591D01*
X354526Y665807D01*
X354598Y665865D01*
X360530Y671797D01*
X360672Y671964D01*
X360816Y672127D01*
X360831Y672151D01*
X360850Y672173D01*
X360963Y672360D01*
X361079Y672545D01*
X361090Y672571D01*
X361104Y672595D01*
X361185Y672798D01*
X361270Y673000D01*
X361277Y673027D01*
X361287Y673054D01*
X361335Y673267D01*
X361386Y673479D01*
X361388Y673507D01*
X361394Y673535D01*
X361406Y673754D01*
X361423Y673971D01*
X361420Y673999D01*
X361422Y674028D01*
X361399Y674245D01*
X361380Y674463D01*
X361373Y674485D01*
X361370Y674518D01*
X361239Y674994D01*
X361205Y675067D01*
X361191Y675118D01*
X360171Y677579D01*
X360171Y694021D01*
X361409Y697009D01*
X363695Y699295D01*
X366683Y700533D01*
X369917Y700533D01*
X372905Y699295D01*
X375191Y697009D01*
X376429Y694021D01*
X376429Y677579D01*
X375191Y674591D01*
X373360Y672760D01*
X373353Y672753D01*
X373346Y672746D01*
X373195Y672566D01*
X373040Y672384D01*
X373035Y672376D01*
X373029Y672368D01*
X373010Y672333D01*
X372786Y671961D01*
X372737Y671840D01*
X372699Y671771D01*
X372177Y670510D01*
X358190Y656523D01*
X356510Y655827D01*
X303890Y655827D01*
X302210Y656523D01*
X301875Y656858D01*
X301846Y656883D01*
X301820Y656912D01*
X301658Y657043D01*
X301499Y657178D01*
X301466Y657198D01*
X301436Y657222D01*
X301255Y657325D01*
X301076Y657433D01*
X301041Y657447D01*
X301008Y657466D01*
X300812Y657538D01*
X300618Y657616D01*
X300581Y657624D01*
X300545Y657637D01*
X300341Y657677D01*
X300137Y657722D01*
X300098Y657725D01*
X300061Y657732D01*
X299853Y657738D01*
X299644Y657750D01*
X299606Y657746D01*
X299568Y657747D01*
X299362Y657720D01*
X299153Y657698D01*
X299117Y657688D01*
X299079Y657683D01*
X298878Y657622D01*
X298678Y657567D01*
X298643Y657551D01*
X298606Y657540D01*
X298419Y657448D01*
X298229Y657361D01*
X298198Y657340D01*
X298163Y657323D01*
X297994Y657203D01*
X297820Y657086D01*
X297792Y657060D01*
X297761Y657038D01*
X297613Y656891D01*
X297460Y656748D01*
X297437Y656718D01*
X297410Y656691D01*
X297287Y656523D01*
X297160Y656357D01*
X297142Y656323D01*
X297120Y656292D01*
X297026Y656106D01*
X296927Y655922D01*
X296915Y655886D01*
X296897Y655852D01*
X296835Y655653D01*
X296767Y655455D01*
X296761Y655418D01*
X296749Y655381D01*
X296739Y655289D01*
X296684Y654969D01*
X296683Y654797D01*
X296673Y654704D01*
X296673Y642620D01*
X296679Y642544D01*
X296677Y642468D01*
X296699Y642299D01*
X296713Y642128D01*
X296731Y642054D01*
X296741Y641979D01*
X296790Y641815D01*
X296831Y641649D01*
X296861Y641580D01*
X296883Y641506D01*
X296959Y641353D01*
X297026Y641196D01*
X297067Y641132D01*
X297100Y641063D01*
X297199Y640924D01*
X297291Y640780D01*
X297342Y640723D01*
X297386Y640661D01*
X297506Y640540D01*
X297620Y640412D01*
X297679Y640364D01*
X297733Y640310D01*
X297871Y640209D01*
X298004Y640102D01*
X298070Y640065D01*
X298131Y640020D01*
X298284Y639943D01*
X298432Y639858D01*
X298504Y639832D01*
X298572Y639797D01*
X298735Y639746D01*
X298895Y639687D01*
X298970Y639672D01*
X299042Y639649D01*
X299147Y639637D01*
X299379Y639592D01*
X299615Y639585D01*
X299720Y639573D01*
X331110Y639573D01*
X332790Y638877D01*
X346777Y624890D01*
X347299Y623629D01*
X347304Y623620D01*
X347307Y623611D01*
X347416Y623401D01*
X347524Y623190D01*
X347530Y623182D01*
X347534Y623173D01*
X347560Y623142D01*
X347817Y622793D01*
X347911Y622702D01*
X347960Y622640D01*
X349791Y620809D01*
X351029Y617821D01*
X351029Y601379D01*
X349791Y598391D01*
X347505Y596105D01*
X344517Y594867D01*
X341283Y594867D01*
X338295Y596105D01*
X336009Y598391D01*
X334771Y601379D01*
X334771Y617821D01*
X335791Y620282D01*
X335857Y620489D01*
X335929Y620697D01*
X335933Y620725D01*
X335942Y620752D01*
X335974Y620967D01*
X336011Y621183D01*
X336011Y621211D01*
X336016Y621240D01*
X336013Y621457D01*
X336014Y621676D01*
X336010Y621704D01*
X336009Y621733D01*
X335972Y621947D01*
X335938Y622164D01*
X335929Y622191D01*
X335924Y622219D01*
X335852Y622424D01*
X335783Y622632D01*
X335770Y622657D01*
X335761Y622684D01*
X335657Y622876D01*
X335555Y623070D01*
X335541Y623088D01*
X335525Y623118D01*
X335222Y623507D01*
X335163Y623562D01*
X335130Y623603D01*
X329198Y629535D01*
X329111Y629609D01*
X329031Y629690D01*
X328924Y629768D01*
X328822Y629854D01*
X328725Y629913D01*
X328632Y629980D01*
X328514Y630040D01*
X328400Y630109D01*
X328294Y630151D01*
X328192Y630203D01*
X328065Y630243D01*
X327942Y630292D01*
X327831Y630317D01*
X327721Y630351D01*
X327628Y630361D01*
X327460Y630399D01*
X327136Y630417D01*
X327044Y630427D01*
X299720Y630427D01*
X299644Y630421D01*
X299568Y630423D01*
X299399Y630401D01*
X299228Y630387D01*
X299154Y630369D01*
X299079Y630359D01*
X298915Y630310D01*
X298749Y630269D01*
X298680Y630239D01*
X298606Y630217D01*
X298453Y630141D01*
X298296Y630074D01*
X298232Y630033D01*
X298163Y630000D01*
X298024Y629901D01*
X297880Y629809D01*
X297823Y629758D01*
X297761Y629714D01*
X297640Y629594D01*
X297512Y629480D01*
X297464Y629421D01*
X297410Y629367D01*
X297309Y629229D01*
X297202Y629096D01*
X297165Y629030D01*
X297120Y628969D01*
X297043Y628816D01*
X296958Y628668D01*
X296932Y628596D01*
X296897Y628528D01*
X296846Y628365D01*
X296787Y628205D01*
X296772Y628130D01*
X296749Y628058D01*
X296737Y627953D01*
X296692Y627721D01*
X296685Y627485D01*
X296673Y627380D01*
X296673Y624389D01*
X296682Y624276D01*
X296681Y624161D01*
X296702Y624030D01*
X296713Y623898D01*
X296740Y623787D01*
X296758Y623674D01*
X296799Y623548D01*
X296831Y623419D01*
X296876Y623314D01*
X296912Y623205D01*
X296974Y623087D01*
X297026Y622965D01*
X297087Y622869D01*
X297140Y622768D01*
X297199Y622694D01*
X297291Y622549D01*
X297507Y622307D01*
X297565Y622235D01*
X298991Y620809D01*
X300229Y617821D01*
X300229Y601379D01*
X298991Y598391D01*
X297565Y596965D01*
X297491Y596879D01*
X297410Y596798D01*
X297332Y596691D01*
X297246Y596590D01*
X297187Y596492D01*
X297120Y596399D01*
X297060Y596281D01*
X296991Y596167D01*
X296949Y596061D01*
X296897Y595959D01*
X296857Y595832D01*
X296808Y595709D01*
X296783Y595598D01*
X296749Y595488D01*
X296739Y595395D01*
X296701Y595227D01*
X296683Y594903D01*
X296673Y594811D01*
X296673Y573589D01*
X296682Y573476D01*
X296681Y573361D01*
X296702Y573230D01*
X296713Y573098D01*
X296740Y572987D01*
X296758Y572874D01*
X296799Y572748D01*
X296831Y572619D01*
X296876Y572514D01*
X296912Y572405D01*
X296974Y572287D01*
X297026Y572165D01*
X297087Y572069D01*
X297140Y571968D01*
X297199Y571894D01*
X297291Y571749D01*
X297507Y571507D01*
X297565Y571434D01*
X298991Y570009D01*
X300229Y567021D01*
X300229Y550579D01*
X299209Y548118D01*
X299143Y547911D01*
X299071Y547703D01*
X299067Y547675D01*
X299058Y547648D01*
X299026Y547433D01*
X298989Y547217D01*
X298989Y547189D01*
X298984Y547160D01*
X298987Y546943D01*
X298986Y546724D01*
X298990Y546696D01*
X298991Y546667D01*
X299028Y546453D01*
X299062Y546236D01*
X299071Y546209D01*
X299076Y546181D01*
X299148Y545976D01*
X299217Y545768D01*
X299230Y545743D01*
X299239Y545716D01*
X299343Y545524D01*
X299445Y545330D01*
X299459Y545312D01*
X299475Y545282D01*
X299778Y544893D01*
X299837Y544838D01*
X299870Y544797D01*
X305802Y538865D01*
X305889Y538791D01*
X305969Y538710D01*
X306076Y538632D01*
X306178Y538546D01*
X306275Y538487D01*
X306368Y538420D01*
X306486Y538360D01*
X306600Y538291D01*
X306706Y538249D01*
X306808Y538197D01*
X306935Y538157D01*
X307058Y538108D01*
X307169Y538083D01*
X307279Y538049D01*
X307372Y538039D01*
X307540Y538001D01*
X307864Y537983D01*
X307956Y537973D01*
X352444Y537973D01*
X352557Y537982D01*
X352672Y537981D01*
X352803Y538002D01*
X352935Y538013D01*
X353046Y538040D01*
X353159Y538058D01*
X353285Y538099D01*
X353414Y538131D01*
X353519Y538176D01*
X353628Y538212D01*
X353746Y538274D01*
X353868Y538326D01*
X353964Y538387D01*
X354065Y538440D01*
X354139Y538499D01*
X354284Y538591D01*
X354526Y538807D01*
X354598Y538865D01*
X360530Y544797D01*
X360672Y544964D01*
X360816Y545127D01*
X360831Y545151D01*
X360850Y545173D01*
X360963Y545360D01*
X361079Y545545D01*
X361090Y545571D01*
X361104Y545595D01*
X361185Y545798D01*
X361270Y546000D01*
X361277Y546027D01*
X361287Y546054D01*
X361335Y546267D01*
X361386Y546479D01*
X361388Y546507D01*
X361394Y546535D01*
X361406Y546754D01*
X361423Y546971D01*
X361420Y546999D01*
X361422Y547028D01*
X361399Y547245D01*
X361380Y547463D01*
X361373Y547485D01*
X361370Y547518D01*
X361239Y547994D01*
X361205Y548067D01*
X361191Y548118D01*
X360171Y550579D01*
X360171Y567021D01*
X361409Y570009D01*
X363695Y572295D01*
X366683Y573533D01*
X369917Y573533D01*
X372905Y572295D01*
X375191Y570009D01*
X376429Y567021D01*
X376429Y550579D01*
X375191Y547591D01*
X373360Y545760D01*
X373353Y545753D01*
X373346Y545746D01*
X373195Y545566D01*
X373040Y545384D01*
X373035Y545376D01*
X373029Y545368D01*
X373010Y545333D01*
X372786Y544961D01*
X372737Y544840D01*
X372699Y544771D01*
X372177Y543510D01*
X358190Y529523D01*
X356510Y528827D01*
X303890Y528827D01*
X302210Y529523D01*
X301875Y529858D01*
X301846Y529883D01*
X301820Y529912D01*
X301658Y530043D01*
X301499Y530178D01*
X301466Y530198D01*
X301436Y530222D01*
X301255Y530325D01*
X301076Y530433D01*
X301041Y530447D01*
X301008Y530466D01*
X300812Y530538D01*
X300618Y530616D01*
X300581Y530624D01*
X300545Y530637D01*
X300341Y530677D01*
X300137Y530722D01*
X300098Y530725D01*
X300061Y530732D01*
X299853Y530738D01*
X299644Y530750D01*
X299606Y530746D01*
X299568Y530747D01*
X299362Y530720D01*
X299153Y530698D01*
X299117Y530688D01*
X299079Y530683D01*
X298878Y530622D01*
X298678Y530567D01*
X298643Y530551D01*
X298606Y530540D01*
X298419Y530448D01*
X298229Y530361D01*
X298198Y530340D01*
X298163Y530323D01*
X297994Y530203D01*
X297820Y530086D01*
X297792Y530060D01*
X297761Y530038D01*
X297613Y529891D01*
X297460Y529748D01*
X297437Y529718D01*
X297410Y529691D01*
X297287Y529523D01*
X297160Y529357D01*
X297142Y529323D01*
X297120Y529292D01*
X297026Y529106D01*
X296927Y528922D01*
X296915Y528886D01*
X296897Y528852D01*
X296835Y528653D01*
X296767Y528455D01*
X296761Y528418D01*
X296749Y528381D01*
X296739Y528289D01*
X296684Y527969D01*
X296683Y527797D01*
X296673Y527704D01*
X296673Y515620D01*
X296679Y515544D01*
X296677Y515468D01*
X296699Y515299D01*
X296713Y515128D01*
X296731Y515054D01*
X296741Y514979D01*
X296790Y514815D01*
X296831Y514649D01*
X296861Y514580D01*
X296883Y514506D01*
X296959Y514353D01*
X297026Y514196D01*
X297067Y514132D01*
X297100Y514063D01*
X297199Y513924D01*
X297291Y513780D01*
X297342Y513723D01*
X297386Y513661D01*
X297506Y513540D01*
X297620Y513412D01*
X297679Y513364D01*
X297733Y513310D01*
X297871Y513209D01*
X298004Y513102D01*
X298070Y513065D01*
X298131Y513020D01*
X298284Y512943D01*
X298432Y512858D01*
X298504Y512832D01*
X298572Y512797D01*
X298735Y512746D01*
X298895Y512687D01*
X298970Y512672D01*
X299042Y512649D01*
X299147Y512637D01*
X299379Y512592D01*
X299615Y512585D01*
X299720Y512573D01*
X331110Y512573D01*
X332790Y511877D01*
X346777Y497890D01*
X347299Y496629D01*
X347304Y496620D01*
X347307Y496611D01*
X347416Y496401D01*
X347524Y496190D01*
X347530Y496182D01*
X347534Y496173D01*
X347560Y496142D01*
X347817Y495793D01*
X347911Y495702D01*
X347960Y495640D01*
X349791Y493809D01*
X351029Y490821D01*
X351029Y474379D01*
X349791Y471391D01*
X347505Y469105D01*
X344517Y467867D01*
X341283Y467867D01*
X338295Y469105D01*
X336009Y471391D01*
X334771Y474379D01*
X334771Y490821D01*
X335791Y493282D01*
X335857Y493489D01*
X335929Y493697D01*
X335933Y493725D01*
X335942Y493752D01*
X335974Y493967D01*
X336011Y494183D01*
X336011Y494211D01*
X336016Y494240D01*
X336013Y494457D01*
X336014Y494676D01*
X336010Y494704D01*
X336009Y494733D01*
X335972Y494947D01*
X335938Y495164D01*
X335929Y495191D01*
X335924Y495219D01*
X335852Y495424D01*
X335783Y495632D01*
X335770Y495657D01*
X335761Y495684D01*
X335657Y495876D01*
X335555Y496070D01*
X335541Y496088D01*
X335525Y496118D01*
X335222Y496507D01*
X335163Y496562D01*
X335130Y496603D01*
X329198Y502535D01*
X329111Y502609D01*
X329031Y502690D01*
X328924Y502768D01*
X328822Y502854D01*
X328725Y502913D01*
X328632Y502980D01*
X328514Y503040D01*
X328400Y503109D01*
X328294Y503151D01*
X328192Y503203D01*
X328065Y503243D01*
X327942Y503292D01*
X327831Y503317D01*
X327721Y503351D01*
X327628Y503361D01*
X327460Y503399D01*
X327136Y503417D01*
X327044Y503427D01*
X299720Y503427D01*
X299644Y503421D01*
X299568Y503423D01*
X299399Y503401D01*
X299228Y503387D01*
X299154Y503369D01*
X299079Y503359D01*
X298915Y503310D01*
X298749Y503269D01*
X298680Y503239D01*
X298606Y503217D01*
X298453Y503141D01*
X298296Y503074D01*
X298232Y503033D01*
X298163Y503000D01*
X298024Y502901D01*
X297880Y502809D01*
X297823Y502758D01*
X297761Y502714D01*
X297640Y502594D01*
X297512Y502480D01*
X297464Y502421D01*
X297410Y502367D01*
X297309Y502229D01*
X297202Y502096D01*
X297165Y502030D01*
X297120Y501969D01*
X297043Y501816D01*
X296958Y501668D01*
X296932Y501596D01*
X296897Y501528D01*
X296846Y501365D01*
X296787Y501205D01*
X296772Y501130D01*
X296749Y501058D01*
X296737Y500953D01*
X296692Y500721D01*
X296685Y500485D01*
X296673Y500380D01*
X296673Y497389D01*
X296682Y497276D01*
X296681Y497161D01*
X296702Y497030D01*
X296713Y496898D01*
X296740Y496787D01*
X296758Y496674D01*
X296799Y496548D01*
X296831Y496419D01*
X296876Y496314D01*
X296912Y496205D01*
X296974Y496087D01*
X297026Y495965D01*
X297087Y495869D01*
X297140Y495768D01*
X297199Y495694D01*
X297291Y495549D01*
X297507Y495307D01*
X297565Y495234D01*
X298991Y493809D01*
X300229Y490821D01*
X300229Y474379D01*
X298991Y471391D01*
X297565Y469966D01*
X297491Y469878D01*
X297410Y469798D01*
X297332Y469691D01*
X297246Y469590D01*
X297187Y469492D01*
X297120Y469399D01*
X297060Y469281D01*
X296991Y469167D01*
X296949Y469061D01*
X296897Y468959D01*
X296857Y468832D01*
X296808Y468709D01*
X296783Y468598D01*
X296749Y468489D01*
X296739Y468395D01*
X296701Y468227D01*
X296683Y467903D01*
X296673Y467811D01*
X296673Y433889D01*
X296682Y433776D01*
X296681Y433661D01*
X296702Y433530D01*
X296713Y433398D01*
X296740Y433287D01*
X296758Y433174D01*
X296799Y433048D01*
X296831Y432919D01*
X296876Y432814D01*
X296912Y432705D01*
X296974Y432587D01*
X297026Y432465D01*
X297087Y432369D01*
X297140Y432268D01*
X297199Y432194D01*
X297291Y432049D01*
X297507Y431807D01*
X297565Y431735D01*
X298991Y430309D01*
X300229Y427321D01*
X300229Y410879D01*
X299209Y408418D01*
X299143Y408211D01*
X299071Y408003D01*
X299067Y407975D01*
X299058Y407948D01*
X299026Y407733D01*
X298989Y407517D01*
X298989Y407489D01*
X298984Y407460D01*
X298987Y407243D01*
X298986Y407024D01*
X298990Y406996D01*
X298991Y406967D01*
X299028Y406753D01*
X299062Y406536D01*
X299071Y406509D01*
X299076Y406481D01*
X299148Y406276D01*
X299217Y406068D01*
X299230Y406043D01*
X299239Y406016D01*
X299343Y405824D01*
X299445Y405630D01*
X299459Y405612D01*
X299475Y405582D01*
X299778Y405193D01*
X299837Y405138D01*
X299870Y405097D01*
X305802Y399165D01*
X305889Y399091D01*
X305969Y399010D01*
X306076Y398932D01*
X306178Y398846D01*
X306275Y398787D01*
X306368Y398720D01*
X306486Y398660D01*
X306600Y398591D01*
X306706Y398549D01*
X306808Y398497D01*
X306935Y398457D01*
X307058Y398408D01*
X307169Y398383D01*
X307279Y398349D01*
X307372Y398339D01*
X307540Y398301D01*
X307864Y398283D01*
X307956Y398273D01*
X352444Y398273D01*
X352557Y398282D01*
X352672Y398281D01*
X352803Y398302D01*
X352935Y398313D01*
X353046Y398340D01*
X353159Y398358D01*
X353285Y398399D01*
X353414Y398431D01*
X353519Y398476D01*
X353628Y398512D01*
X353746Y398574D01*
X353868Y398626D01*
X353964Y398687D01*
X354065Y398740D01*
X354139Y398799D01*
X354284Y398891D01*
X354526Y399107D01*
X354598Y399165D01*
X360530Y405097D01*
X360671Y405263D01*
X360816Y405427D01*
X360831Y405451D01*
X360850Y405473D01*
X360963Y405661D01*
X361079Y405845D01*
X361089Y405871D01*
X361104Y405895D01*
X361186Y406099D01*
X361270Y406300D01*
X361277Y406327D01*
X361287Y406354D01*
X361335Y406567D01*
X361386Y406779D01*
X361388Y406807D01*
X361394Y406835D01*
X361406Y407054D01*
X361423Y407271D01*
X361420Y407299D01*
X361422Y407328D01*
X361399Y407545D01*
X361380Y407763D01*
X361373Y407785D01*
X361370Y407818D01*
X361239Y408294D01*
X361205Y408367D01*
X361191Y408418D01*
X360171Y410879D01*
X360171Y427321D01*
X361409Y430309D01*
X363695Y432595D01*
X366683Y433833D01*
X369917Y433833D01*
X372905Y432595D01*
X375191Y430309D01*
X376429Y427321D01*
X376429Y410879D01*
X375191Y407891D01*
X373360Y406060D01*
X373354Y406053D01*
X373346Y406046D01*
X373194Y405865D01*
X373040Y405684D01*
X373035Y405676D01*
X373029Y405668D01*
X373010Y405634D01*
X372786Y405261D01*
X372737Y405140D01*
X372699Y405071D01*
X372177Y403810D01*
X370462Y402095D01*
X359905Y391538D01*
X358190Y389823D01*
X356510Y389127D01*
X303890Y389127D01*
X302210Y389823D01*
X301875Y390158D01*
X301846Y390183D01*
X301820Y390212D01*
X301658Y390343D01*
X301499Y390478D01*
X301466Y390498D01*
X301436Y390522D01*
X301255Y390625D01*
X301076Y390733D01*
X301041Y390747D01*
X301008Y390766D01*
X300812Y390838D01*
X300618Y390916D01*
X300581Y390924D01*
X300545Y390937D01*
X300341Y390977D01*
X300137Y391022D01*
X300098Y391025D01*
X300061Y391032D01*
X299853Y391038D01*
X299644Y391050D01*
X299606Y391046D01*
X299568Y391047D01*
X299362Y391020D01*
X299153Y390998D01*
X299117Y390988D01*
X299079Y390983D01*
X298878Y390922D01*
X298678Y390867D01*
X298643Y390851D01*
X298606Y390840D01*
X298419Y390748D01*
X298229Y390661D01*
X298198Y390640D01*
X298163Y390623D01*
X297994Y390503D01*
X297820Y390386D01*
X297792Y390360D01*
X297761Y390338D01*
X297613Y390191D01*
X297460Y390048D01*
X297437Y390018D01*
X297410Y389991D01*
X297287Y389823D01*
X297160Y389657D01*
X297142Y389623D01*
X297120Y389592D01*
X297026Y389406D01*
X296927Y389222D01*
X296915Y389186D01*
X296897Y389152D01*
X296835Y388953D01*
X296767Y388755D01*
X296761Y388718D01*
X296749Y388681D01*
X296739Y388589D01*
X296684Y388269D01*
X296683Y388097D01*
X296673Y388004D01*
X296673Y375920D01*
X296679Y375844D01*
X296677Y375768D01*
X296699Y375599D01*
X296713Y375428D01*
X296731Y375354D01*
X296741Y375279D01*
X296790Y375115D01*
X296831Y374949D01*
X296861Y374880D01*
X296883Y374806D01*
X296959Y374653D01*
X297026Y374496D01*
X297067Y374432D01*
X297100Y374363D01*
X297199Y374224D01*
X297291Y374080D01*
X297342Y374023D01*
X297386Y373961D01*
X297506Y373840D01*
X297620Y373712D01*
X297679Y373664D01*
X297733Y373610D01*
X297871Y373509D01*
X298004Y373402D01*
X298070Y373365D01*
X298131Y373320D01*
X298284Y373243D01*
X298432Y373158D01*
X298504Y373132D01*
X298572Y373097D01*
X298735Y373046D01*
X298895Y372987D01*
X298970Y372972D01*
X299042Y372949D01*
X299147Y372937D01*
X299379Y372892D01*
X299615Y372885D01*
X299720Y372873D01*
X331110Y372873D01*
X332790Y372177D01*
X346777Y358190D01*
X347299Y356929D01*
X347304Y356920D01*
X347307Y356911D01*
X347416Y356701D01*
X347524Y356490D01*
X347530Y356482D01*
X347534Y356473D01*
X347560Y356442D01*
X347817Y356093D01*
X347911Y356002D01*
X347960Y355940D01*
X349791Y354109D01*
X351029Y351121D01*
X351029Y334679D01*
X349791Y331691D01*
X347505Y329405D01*
X344517Y328167D01*
X341283Y328167D01*
X338295Y329405D01*
X336009Y331691D01*
X334771Y334679D01*
X334771Y351121D01*
X335791Y353582D01*
X335857Y353789D01*
X335929Y353997D01*
X335933Y354025D01*
X335942Y354052D01*
X335974Y354267D01*
X336011Y354483D01*
X336011Y354511D01*
X336016Y354540D01*
X336013Y354757D01*
X336014Y354976D01*
X336010Y355004D01*
X336009Y355033D01*
X335972Y355247D01*
X335938Y355464D01*
X335929Y355491D01*
X335924Y355519D01*
X335852Y355724D01*
X335783Y355932D01*
X335770Y355957D01*
X335761Y355984D01*
X335657Y356176D01*
X335555Y356370D01*
X335541Y356388D01*
X335525Y356418D01*
X335222Y356807D01*
X335163Y356862D01*
X335130Y356903D01*
X329198Y362835D01*
X329111Y362909D01*
X329031Y362990D01*
X328924Y363068D01*
X328822Y363154D01*
X328725Y363213D01*
X328632Y363280D01*
X328514Y363340D01*
X328400Y363409D01*
X328294Y363451D01*
X328192Y363503D01*
X328065Y363543D01*
X327942Y363592D01*
X327831Y363617D01*
X327721Y363651D01*
X327628Y363661D01*
X327460Y363699D01*
X327136Y363717D01*
X327044Y363727D01*
X299720Y363727D01*
X299644Y363721D01*
X299568Y363723D01*
X299399Y363701D01*
X299228Y363687D01*
X299154Y363669D01*
X299079Y363659D01*
X298915Y363610D01*
X298749Y363569D01*
X298680Y363539D01*
X298606Y363517D01*
X298453Y363441D01*
X298296Y363374D01*
X298232Y363333D01*
X298163Y363300D01*
X298024Y363201D01*
X297880Y363109D01*
X297823Y363058D01*
X297761Y363014D01*
X297640Y362894D01*
X297512Y362780D01*
X297464Y362721D01*
X297410Y362667D01*
X297309Y362529D01*
X297202Y362396D01*
X297165Y362330D01*
X297120Y362269D01*
X297043Y362116D01*
X296958Y361968D01*
X296932Y361896D01*
X296897Y361828D01*
X296846Y361665D01*
X296787Y361505D01*
X296772Y361430D01*
X296749Y361358D01*
X296737Y361253D01*
X296692Y361021D01*
X296685Y360785D01*
X296673Y360680D01*
X296673Y357689D01*
X296682Y357576D01*
X296681Y357461D01*
X296702Y357330D01*
X296713Y357198D01*
X296740Y357087D01*
X296758Y356974D01*
X296799Y356848D01*
X296831Y356719D01*
X296876Y356614D01*
X296912Y356505D01*
X296974Y356387D01*
X297026Y356265D01*
X297087Y356169D01*
X297140Y356068D01*
X297199Y355994D01*
X297291Y355849D01*
X297507Y355607D01*
X297565Y355534D01*
X298991Y354109D01*
X300229Y351121D01*
X300229Y334679D01*
X298991Y331691D01*
X297565Y330265D01*
X297549Y330247D01*
X297536Y330235D01*
X297487Y330174D01*
X297410Y330098D01*
X297332Y329991D01*
X297246Y329890D01*
X297187Y329792D01*
X297120Y329699D01*
X297060Y329581D01*
X296991Y329467D01*
X296949Y329361D01*
X296897Y329259D01*
X296857Y329132D01*
X296808Y329009D01*
X296783Y328898D01*
X296749Y328788D01*
X296739Y328695D01*
X296701Y328527D01*
X296683Y328203D01*
X296673Y328111D01*
X296673Y306889D01*
X296682Y306776D01*
X296681Y306661D01*
X296702Y306530D01*
X296713Y306398D01*
X296740Y306287D01*
X296758Y306174D01*
X296799Y306048D01*
X296831Y305919D01*
X296876Y305814D01*
X296912Y305705D01*
X296974Y305587D01*
X297026Y305465D01*
X297087Y305369D01*
X297140Y305268D01*
X297199Y305194D01*
X297291Y305049D01*
X297463Y304857D01*
X297472Y304845D01*
X297496Y304820D01*
X297507Y304807D01*
X297565Y304734D01*
X298991Y303309D01*
X300229Y300321D01*
X300229Y283879D01*
X299209Y281418D01*
X299143Y281211D01*
X299071Y281003D01*
X299067Y280975D01*
X299058Y280948D01*
X299026Y280733D01*
X298989Y280517D01*
X298989Y280489D01*
X298984Y280460D01*
X298987Y280243D01*
X298986Y280024D01*
X298990Y279996D01*
X298991Y279967D01*
X299028Y279753D01*
X299062Y279536D01*
X299071Y279509D01*
X299076Y279481D01*
X299148Y279276D01*
X299217Y279068D01*
X299230Y279043D01*
X299239Y279016D01*
X299343Y278824D01*
X299445Y278630D01*
X299459Y278612D01*
X299475Y278582D01*
X299778Y278193D01*
X299837Y278138D01*
X299870Y278097D01*
X305802Y272165D01*
X305889Y272091D01*
X305969Y272010D01*
X306076Y271932D01*
X306178Y271846D01*
X306275Y271787D01*
X306368Y271720D01*
X306486Y271660D01*
X306600Y271591D01*
X306706Y271549D01*
X306808Y271497D01*
X306935Y271457D01*
X307058Y271408D01*
X307169Y271383D01*
X307279Y271349D01*
X307372Y271339D01*
X307540Y271301D01*
X307864Y271283D01*
X307956Y271273D01*
X352444Y271273D01*
X352557Y271282D01*
X352672Y271281D01*
X352803Y271302D01*
X352935Y271313D01*
X353046Y271340D01*
X353159Y271358D01*
X353285Y271399D01*
X353414Y271431D01*
X353519Y271476D01*
X353628Y271512D01*
X353746Y271574D01*
X353868Y271626D01*
X353964Y271687D01*
X354065Y271740D01*
X354139Y271799D01*
X354284Y271891D01*
X354526Y272107D01*
X354598Y272165D01*
X360530Y278097D01*
X360672Y278264D01*
X360816Y278427D01*
X360831Y278451D01*
X360850Y278473D01*
X360963Y278660D01*
X361079Y278845D01*
X361090Y278871D01*
X361104Y278895D01*
X361185Y279098D01*
X361270Y279300D01*
X361277Y279327D01*
X361287Y279354D01*
X361335Y279567D01*
X361386Y279779D01*
X361388Y279807D01*
X361394Y279835D01*
X361406Y280054D01*
X361423Y280271D01*
X361420Y280299D01*
X361422Y280328D01*
X361399Y280545D01*
X361380Y280763D01*
X361373Y280785D01*
X361370Y280818D01*
X361239Y281294D01*
X361205Y281367D01*
X361191Y281418D01*
X360171Y283879D01*
X360171Y300321D01*
X361409Y303309D01*
X363695Y305595D01*
X366683Y306833D01*
X369917Y306833D01*
X372905Y305595D01*
X375191Y303309D01*
X376429Y300321D01*
X376429Y283879D01*
X375191Y280891D01*
X373360Y279060D01*
X373353Y279053D01*
X373346Y279046D01*
X373195Y278866D01*
X373040Y278684D01*
X373035Y278676D01*
X373029Y278668D01*
X373010Y278633D01*
X372786Y278261D01*
X372737Y278140D01*
X372699Y278071D01*
X372177Y276810D01*
X358190Y262823D01*
X356510Y262127D01*
X303890Y262127D01*
X302210Y262823D01*
X301875Y263158D01*
X301846Y263183D01*
X301820Y263212D01*
X301658Y263343D01*
X301499Y263478D01*
X301466Y263498D01*
X301436Y263522D01*
X301255Y263625D01*
X301076Y263733D01*
X301041Y263747D01*
X301008Y263766D01*
X300812Y263838D01*
X300618Y263916D01*
X300581Y263924D01*
X300545Y263937D01*
X300341Y263977D01*
X300137Y264022D01*
X300098Y264025D01*
X300061Y264032D01*
X299853Y264038D01*
X299644Y264050D01*
X299606Y264046D01*
X299568Y264047D01*
X299362Y264020D01*
X299153Y263998D01*
X299117Y263988D01*
X299079Y263983D01*
X298878Y263922D01*
X298678Y263867D01*
X298643Y263851D01*
X298606Y263840D01*
X298419Y263748D01*
X298229Y263661D01*
X298198Y263640D01*
X298163Y263623D01*
X297994Y263503D01*
X297820Y263386D01*
X297792Y263360D01*
X297761Y263338D01*
X297613Y263191D01*
X297460Y263048D01*
X297437Y263018D01*
X297410Y262991D01*
X297287Y262823D01*
X297160Y262657D01*
X297142Y262623D01*
X297120Y262592D01*
X297026Y262406D01*
X296927Y262222D01*
X296915Y262186D01*
X296897Y262152D01*
X296835Y261953D01*
X296767Y261755D01*
X296761Y261718D01*
X296749Y261681D01*
X296739Y261589D01*
X296684Y261269D01*
X296683Y261097D01*
X296673Y261004D01*
X296673Y248920D01*
X296679Y248844D01*
X296677Y248768D01*
X296699Y248599D01*
X296713Y248428D01*
X296731Y248354D01*
X296741Y248279D01*
X296790Y248115D01*
X296831Y247949D01*
X296861Y247880D01*
X296883Y247806D01*
X296959Y247653D01*
X297026Y247496D01*
X297067Y247432D01*
X297100Y247363D01*
X297199Y247224D01*
X297291Y247080D01*
X297342Y247023D01*
X297386Y246961D01*
X297506Y246840D01*
X297620Y246712D01*
X297679Y246664D01*
X297733Y246610D01*
X297871Y246509D01*
X298004Y246402D01*
X298070Y246365D01*
X298131Y246320D01*
X298284Y246243D01*
X298432Y246158D01*
X298504Y246132D01*
X298572Y246097D01*
X298735Y246046D01*
X298895Y245987D01*
X298970Y245972D01*
X299042Y245949D01*
X299147Y245937D01*
X299379Y245892D01*
X299615Y245885D01*
X299720Y245873D01*
X331110Y245873D01*
X332790Y245177D01*
X346777Y231190D01*
X347299Y229929D01*
X347304Y229920D01*
X347307Y229911D01*
X347416Y229701D01*
X347524Y229490D01*
X347530Y229482D01*
X347534Y229473D01*
X347560Y229442D01*
X347817Y229093D01*
X347911Y229002D01*
X347960Y228940D01*
X349791Y227109D01*
X351029Y224121D01*
X351029Y207679D01*
X349791Y204691D01*
X347505Y202405D01*
X344517Y201167D01*
X341283Y201167D01*
X338295Y202405D01*
X336009Y204691D01*
X334771Y207679D01*
X334771Y224121D01*
X335791Y226582D01*
X335857Y226789D01*
X335929Y226997D01*
X335933Y227025D01*
X335942Y227052D01*
X335974Y227267D01*
X336011Y227483D01*
X336011Y227511D01*
X336016Y227540D01*
X336013Y227757D01*
X336014Y227976D01*
X336010Y228004D01*
X336009Y228033D01*
X335972Y228247D01*
X335938Y228464D01*
X335929Y228491D01*
X335924Y228519D01*
X335852Y228724D01*
X335783Y228932D01*
X335770Y228957D01*
X335761Y228984D01*
X335657Y229176D01*
X335555Y229370D01*
X335541Y229388D01*
X335525Y229418D01*
X335222Y229807D01*
X335163Y229862D01*
X335130Y229903D01*
X329198Y235835D01*
X329112Y235908D01*
X329042Y235979D01*
X329041Y235980D01*
X329031Y235990D01*
X328924Y236068D01*
X328822Y236154D01*
X328725Y236213D01*
X328632Y236280D01*
X328514Y236340D01*
X328400Y236409D01*
X328294Y236451D01*
X328192Y236503D01*
X328065Y236543D01*
X327942Y236592D01*
X327831Y236617D01*
X327721Y236651D01*
X327628Y236661D01*
X327460Y236699D01*
X327136Y236717D01*
X327044Y236727D01*
X299720Y236727D01*
X299644Y236721D01*
X299568Y236723D01*
X299399Y236701D01*
X299228Y236687D01*
X299154Y236669D01*
X299079Y236659D01*
X298915Y236610D01*
X298749Y236569D01*
X298680Y236539D01*
X298606Y236517D01*
X298453Y236441D01*
X298296Y236374D01*
X298232Y236333D01*
X298163Y236300D01*
X298024Y236201D01*
X297880Y236109D01*
X297823Y236058D01*
X297761Y236014D01*
X297640Y235894D01*
X297512Y235780D01*
X297464Y235721D01*
X297410Y235667D01*
X297309Y235529D01*
X297202Y235396D01*
X297165Y235330D01*
X297120Y235269D01*
X297043Y235116D01*
X296958Y234968D01*
X296932Y234896D01*
X296897Y234828D01*
X296846Y234665D01*
X296787Y234505D01*
X296772Y234430D01*
X296749Y234358D01*
X296737Y234253D01*
X296692Y234021D01*
X296685Y233785D01*
X296673Y233680D01*
X296673Y230689D01*
X296682Y230576D01*
X296681Y230461D01*
X296702Y230330D01*
X296713Y230198D01*
X296740Y230087D01*
X296758Y229974D01*
X296799Y229848D01*
X296831Y229719D01*
X296876Y229614D01*
X296912Y229505D01*
X296974Y229387D01*
X297026Y229265D01*
X297087Y229169D01*
X297140Y229068D01*
X297199Y228994D01*
X297291Y228849D01*
X297436Y228687D01*
X297453Y228663D01*
X297498Y228618D01*
X297507Y228607D01*
X297565Y228534D01*
X298991Y227109D01*
X300229Y224121D01*
X300229Y207679D01*
X298991Y204691D01*
X296705Y202405D01*
X293717Y201167D01*
X290483Y201167D01*
X287495Y202405D01*
X285209Y204691D01*
X283971Y207679D01*
X283971Y208280D01*
X283965Y208356D01*
X283967Y208432D01*
X283945Y208601D01*
X283931Y208772D01*
X283913Y208846D01*
X283903Y208921D01*
X283854Y209085D01*
X283813Y209251D01*
X283783Y209320D01*
X283761Y209394D01*
X283685Y209547D01*
X283618Y209704D01*
X283577Y209768D01*
X283544Y209837D01*
X283445Y209976D01*
X283353Y210120D01*
X283302Y210177D01*
X283258Y210239D01*
X283138Y210360D01*
X283024Y210488D01*
X282965Y210536D01*
X282911Y210590D01*
X282773Y210691D01*
X282640Y210798D01*
X282574Y210835D01*
X282513Y210880D01*
X282360Y210957D01*
X282212Y211042D01*
X282140Y211068D01*
X282072Y211103D01*
X281909Y211154D01*
X281749Y211213D01*
X281674Y211228D01*
X281602Y211251D01*
X281497Y211263D01*
X281265Y211308D01*
X281029Y211315D01*
X280924Y211327D01*
X277876Y211327D01*
X277800Y211321D01*
X277724Y211323D01*
X277555Y211301D01*
X277384Y211287D01*
X277310Y211269D01*
X277235Y211259D01*
X277071Y211210D01*
X276905Y211169D01*
X276836Y211139D01*
X276762Y211117D01*
X276609Y211041D01*
X276452Y210974D01*
X276388Y210933D01*
X276319Y210900D01*
X276180Y210801D01*
X276036Y210709D01*
X275979Y210658D01*
X275917Y210614D01*
X275796Y210494D01*
X275668Y210380D01*
X275620Y210321D01*
X275566Y210267D01*
X275465Y210129D01*
X275358Y209996D01*
X275321Y209930D01*
X275276Y209869D01*
X275199Y209716D01*
X275114Y209568D01*
X275088Y209496D01*
X275053Y209428D01*
X275002Y209265D01*
X274943Y209105D01*
X274928Y209030D01*
X274905Y208958D01*
X274893Y208853D01*
X274848Y208621D01*
X274841Y208385D01*
X274829Y208280D01*
X274829Y207679D01*
X273591Y204691D01*
X271305Y202405D01*
X268317Y201167D01*
X265083Y201167D01*
X262095Y202405D01*
X259809Y204691D01*
X258571Y207679D01*
X258571Y224121D01*
X259809Y227109D01*
X262095Y229395D01*
X265083Y230633D01*
X268317Y230633D01*
X271305Y229395D01*
X273591Y227109D01*
X274829Y224121D01*
X274829Y223520D01*
X274835Y223444D01*
X274833Y223368D01*
X274855Y223199D01*
X274869Y223028D01*
X274887Y222954D01*
X274897Y222879D01*
X274946Y222715D01*
X274987Y222549D01*
X275017Y222480D01*
X275039Y222406D01*
X275115Y222253D01*
X275182Y222096D01*
X275223Y222032D01*
X275256Y221963D01*
X275355Y221824D01*
X275447Y221680D01*
X275498Y221623D01*
X275542Y221561D01*
X275662Y221440D01*
X275776Y221312D01*
X275835Y221264D01*
X275889Y221210D01*
X276027Y221109D01*
X276160Y221002D01*
X276226Y220965D01*
X276287Y220920D01*
X276440Y220843D01*
X276588Y220758D01*
X276660Y220732D01*
X276728Y220697D01*
X276891Y220646D01*
X277051Y220587D01*
X277126Y220572D01*
X277198Y220549D01*
X277303Y220537D01*
X277535Y220492D01*
X277771Y220485D01*
X277876Y220473D01*
X280924Y220473D01*
X281000Y220479D01*
X281076Y220477D01*
X281245Y220499D01*
X281416Y220513D01*
X281490Y220531D01*
X281565Y220541D01*
X281729Y220590D01*
X281895Y220631D01*
X281964Y220661D01*
X282038Y220683D01*
X282191Y220759D01*
X282348Y220826D01*
X282412Y220867D01*
X282481Y220900D01*
X282620Y220999D01*
X282764Y221091D01*
X282821Y221142D01*
X282883Y221186D01*
X283004Y221306D01*
X283132Y221420D01*
X283180Y221479D01*
X283234Y221533D01*
X283335Y221671D01*
X283442Y221804D01*
X283479Y221870D01*
X283524Y221931D01*
X283601Y222084D01*
X283686Y222232D01*
X283712Y222304D01*
X283747Y222372D01*
X283798Y222535D01*
X283857Y222695D01*
X283872Y222770D01*
X283895Y222842D01*
X283907Y222947D01*
X283952Y223179D01*
X283959Y223415D01*
X283971Y223520D01*
X283971Y224121D01*
X285209Y227109D01*
X286635Y228534D01*
X286709Y228622D01*
X286790Y228702D01*
X286868Y228809D01*
X286954Y228910D01*
X287013Y229008D01*
X287080Y229101D01*
X287140Y229219D01*
X287209Y229333D01*
X287251Y229439D01*
X287303Y229541D01*
X287343Y229668D01*
X287392Y229791D01*
X287417Y229902D01*
X287451Y230011D01*
X287461Y230105D01*
X287499Y230273D01*
X287517Y230597D01*
X287527Y230689D01*
X287527Y261004D01*
X287524Y261042D01*
X287526Y261080D01*
X287504Y261288D01*
X287487Y261495D01*
X287478Y261532D01*
X287474Y261570D01*
X287419Y261772D01*
X287369Y261974D01*
X287354Y262009D01*
X287343Y262046D01*
X287256Y262236D01*
X287174Y262428D01*
X287154Y262460D01*
X287138Y262495D01*
X287021Y262668D01*
X286909Y262844D01*
X286884Y262872D01*
X286862Y262904D01*
X286719Y263056D01*
X286580Y263212D01*
X286551Y263236D01*
X286524Y263263D01*
X286359Y263390D01*
X286196Y263522D01*
X286163Y263540D01*
X286133Y263564D01*
X285949Y263662D01*
X285768Y263766D01*
X285732Y263779D01*
X285698Y263797D01*
X285501Y263865D01*
X285305Y263937D01*
X285268Y263944D01*
X285232Y263957D01*
X285026Y263992D01*
X284821Y264032D01*
X284783Y264033D01*
X284745Y264039D01*
X284536Y264041D01*
X284328Y264047D01*
X284290Y264042D01*
X284252Y264042D01*
X284046Y264010D01*
X283839Y263983D01*
X283802Y263972D01*
X283765Y263966D01*
X283567Y263901D01*
X283367Y263840D01*
X283332Y263823D01*
X283296Y263812D01*
X283111Y263715D01*
X282923Y263623D01*
X282892Y263601D01*
X282858Y263584D01*
X282785Y263526D01*
X282521Y263338D01*
X282399Y263217D01*
X282325Y263158D01*
X281990Y262823D01*
X280310Y262127D01*
X223520Y262127D01*
X223444Y262121D01*
X223368Y262123D01*
X223199Y262101D01*
X223028Y262087D01*
X222954Y262069D01*
X222879Y262059D01*
X222715Y262010D01*
X222549Y261969D01*
X222480Y261939D01*
X222406Y261917D01*
X222253Y261841D01*
X222096Y261774D01*
X222032Y261733D01*
X221963Y261700D01*
X221824Y261601D01*
X221680Y261509D01*
X221623Y261458D01*
X221561Y261414D01*
X221440Y261294D01*
X221312Y261180D01*
X221264Y261121D01*
X221210Y261067D01*
X221109Y260929D01*
X221002Y260796D01*
X220965Y260730D01*
X220920Y260669D01*
X220843Y260516D01*
X220758Y260368D01*
X220732Y260296D01*
X220697Y260228D01*
X220646Y260065D01*
X220587Y259905D01*
X220572Y259830D01*
X220549Y259758D01*
X220537Y259653D01*
X220492Y259421D01*
X220485Y259185D01*
X220473Y259080D01*
X220473Y230689D01*
X220482Y230576D01*
X220481Y230461D01*
X220502Y230330D01*
X220513Y230198D01*
X220540Y230087D01*
X220558Y229974D01*
X220599Y229848D01*
X220631Y229719D01*
X220676Y229614D01*
X220712Y229505D01*
X220774Y229387D01*
X220826Y229265D01*
X220887Y229169D01*
X220940Y229068D01*
X220999Y228994D01*
X221091Y228849D01*
X221236Y228687D01*
X221253Y228663D01*
X221298Y228618D01*
X221307Y228607D01*
X221365Y228534D01*
X222791Y227109D01*
X224029Y224121D01*
X224029Y207679D01*
X222791Y204691D01*
X220505Y202405D01*
X217517Y201167D01*
X214283Y201167D01*
G37*
%LPD*%
%LPC*%
G36*
X366683Y328167D02*
X366683Y328167D01*
X363695Y329405D01*
X361409Y331691D01*
X360171Y334679D01*
X360171Y351121D01*
X361409Y354109D01*
X363695Y356395D01*
X366683Y357633D01*
X369917Y357633D01*
X372905Y356395D01*
X375191Y354109D01*
X376429Y351121D01*
X376429Y334679D01*
X375191Y331691D01*
X372905Y329405D01*
X369917Y328167D01*
X366683Y328167D01*
G37*
%LPD*%
%LPC*%
G36*
X366683Y467867D02*
X366683Y467867D01*
X363695Y469105D01*
X361409Y471391D01*
X360171Y474379D01*
X360171Y490821D01*
X361409Y493809D01*
X363695Y496095D01*
X366683Y497333D01*
X369917Y497333D01*
X372905Y496095D01*
X375191Y493809D01*
X376429Y490821D01*
X376429Y474379D01*
X375191Y471391D01*
X372905Y469105D01*
X369917Y467867D01*
X366683Y467867D01*
G37*
%LPD*%
%LPC*%
G36*
X239683Y404367D02*
X239683Y404367D01*
X236695Y405605D01*
X234409Y407891D01*
X233171Y410879D01*
X233171Y427321D01*
X234409Y430309D01*
X236695Y432595D01*
X239683Y433833D01*
X242917Y433833D01*
X245905Y432595D01*
X248191Y430309D01*
X249429Y427321D01*
X249429Y410879D01*
X248191Y407891D01*
X245905Y405605D01*
X242917Y404367D01*
X239683Y404367D01*
G37*
%LPD*%
%LPC*%
G36*
X315883Y404367D02*
X315883Y404367D01*
X312895Y405605D01*
X310609Y407891D01*
X309371Y410879D01*
X309371Y427321D01*
X310609Y430309D01*
X312895Y432595D01*
X315883Y433833D01*
X319117Y433833D01*
X322105Y432595D01*
X324391Y430309D01*
X325629Y427321D01*
X325629Y410879D01*
X324391Y407891D01*
X322105Y405605D01*
X319117Y404367D01*
X315883Y404367D01*
G37*
%LPD*%
%LPC*%
G36*
X341283Y404367D02*
X341283Y404367D01*
X338295Y405605D01*
X336009Y407891D01*
X334771Y410879D01*
X334771Y427321D01*
X336009Y430309D01*
X338295Y432595D01*
X341283Y433833D01*
X344517Y433833D01*
X347505Y432595D01*
X349791Y430309D01*
X351029Y427321D01*
X351029Y410879D01*
X349791Y407891D01*
X347505Y405605D01*
X344517Y404367D01*
X341283Y404367D01*
G37*
%LPD*%
%LPC*%
G36*
X214283Y404367D02*
X214283Y404367D01*
X211295Y405605D01*
X209009Y407891D01*
X207771Y410879D01*
X207771Y427321D01*
X209009Y430309D01*
X211295Y432595D01*
X214283Y433833D01*
X217517Y433833D01*
X220505Y432595D01*
X222791Y430309D01*
X224029Y427321D01*
X224029Y410879D01*
X222791Y407891D01*
X220505Y405605D01*
X217517Y404367D01*
X214283Y404367D01*
G37*
%LPD*%
%LPC*%
G36*
X239683Y328167D02*
X239683Y328167D01*
X236695Y329405D01*
X234409Y331691D01*
X233171Y334679D01*
X233171Y351121D01*
X234409Y354109D01*
X236695Y356395D01*
X239683Y357633D01*
X242917Y357633D01*
X245905Y356395D01*
X248191Y354109D01*
X249429Y351121D01*
X249429Y334679D01*
X248191Y331691D01*
X245905Y329405D01*
X242917Y328167D01*
X239683Y328167D01*
G37*
%LPD*%
%LPC*%
G36*
X188883Y328167D02*
X188883Y328167D01*
X185895Y329405D01*
X183609Y331691D01*
X182371Y334679D01*
X182371Y351121D01*
X183609Y354109D01*
X185895Y356395D01*
X188883Y357633D01*
X192117Y357633D01*
X195105Y356395D01*
X197391Y354109D01*
X198629Y351121D01*
X198629Y334679D01*
X197391Y331691D01*
X195105Y329405D01*
X192117Y328167D01*
X188883Y328167D01*
G37*
%LPD*%
%LPC*%
G36*
X315883Y328167D02*
X315883Y328167D01*
X312895Y329405D01*
X310609Y331691D01*
X309371Y334679D01*
X309371Y351121D01*
X310609Y354109D01*
X312895Y356395D01*
X315883Y357633D01*
X319117Y357633D01*
X322105Y356395D01*
X324391Y354109D01*
X325629Y351121D01*
X325629Y334679D01*
X324391Y331691D01*
X322105Y329405D01*
X319117Y328167D01*
X315883Y328167D01*
G37*
%LPD*%
%LPC*%
G36*
X239683Y467867D02*
X239683Y467867D01*
X236695Y469105D01*
X234409Y471391D01*
X233171Y474379D01*
X233171Y490821D01*
X234409Y493809D01*
X236695Y496095D01*
X239683Y497333D01*
X242917Y497333D01*
X245905Y496095D01*
X248191Y493809D01*
X249429Y490821D01*
X249429Y474379D01*
X248191Y471391D01*
X245905Y469105D01*
X242917Y467867D01*
X239683Y467867D01*
G37*
%LPD*%
%LPC*%
G36*
X341283Y277367D02*
X341283Y277367D01*
X338295Y278605D01*
X336009Y280891D01*
X334771Y283879D01*
X334771Y300321D01*
X336009Y303309D01*
X338295Y305595D01*
X341283Y306833D01*
X344517Y306833D01*
X347505Y305595D01*
X349791Y303309D01*
X351029Y300321D01*
X351029Y283879D01*
X349791Y280891D01*
X347505Y278605D01*
X344517Y277367D01*
X341283Y277367D01*
G37*
%LPD*%
%LPC*%
G36*
X239683Y277367D02*
X239683Y277367D01*
X236695Y278605D01*
X234409Y280891D01*
X233171Y283879D01*
X233171Y300321D01*
X234409Y303309D01*
X236695Y305595D01*
X239683Y306833D01*
X242917Y306833D01*
X245905Y305595D01*
X248191Y303309D01*
X249429Y300321D01*
X249429Y283879D01*
X248191Y280891D01*
X245905Y278605D01*
X242917Y277367D01*
X239683Y277367D01*
G37*
%LPD*%
%LPC*%
G36*
X214283Y277367D02*
X214283Y277367D01*
X211295Y278605D01*
X209009Y280891D01*
X207771Y283879D01*
X207771Y300321D01*
X209009Y303309D01*
X211295Y305595D01*
X214283Y306833D01*
X217517Y306833D01*
X220505Y305595D01*
X222791Y303309D01*
X224029Y300321D01*
X224029Y283879D01*
X222791Y280891D01*
X220505Y278605D01*
X217517Y277367D01*
X214283Y277367D01*
G37*
%LPD*%
%LPC*%
G36*
X188883Y201167D02*
X188883Y201167D01*
X185895Y202405D01*
X183609Y204691D01*
X182371Y207679D01*
X182371Y224121D01*
X183609Y227109D01*
X185895Y229395D01*
X188883Y230633D01*
X192117Y230633D01*
X195105Y229395D01*
X197391Y227109D01*
X198629Y224121D01*
X198629Y207679D01*
X197391Y204691D01*
X195105Y202405D01*
X192117Y201167D01*
X188883Y201167D01*
G37*
%LPD*%
%LPC*%
G36*
X239683Y201167D02*
X239683Y201167D01*
X236695Y202405D01*
X234409Y204691D01*
X233171Y207679D01*
X233171Y224121D01*
X234409Y227109D01*
X236695Y229395D01*
X239683Y230633D01*
X242917Y230633D01*
X245905Y229395D01*
X248191Y227109D01*
X249429Y224121D01*
X249429Y207679D01*
X248191Y204691D01*
X245905Y202405D01*
X242917Y201167D01*
X239683Y201167D01*
G37*
%LPD*%
%LPC*%
G36*
X315883Y201167D02*
X315883Y201167D01*
X312895Y202405D01*
X310609Y204691D01*
X309371Y207679D01*
X309371Y224121D01*
X310609Y227109D01*
X312895Y229395D01*
X315883Y230633D01*
X319117Y230633D01*
X322105Y229395D01*
X324391Y227109D01*
X325629Y224121D01*
X325629Y207679D01*
X324391Y204691D01*
X322105Y202405D01*
X319117Y201167D01*
X315883Y201167D01*
G37*
%LPD*%
%LPC*%
G36*
X366683Y201167D02*
X366683Y201167D01*
X363695Y202405D01*
X361409Y204691D01*
X360171Y207679D01*
X360171Y224121D01*
X361409Y227109D01*
X363695Y229395D01*
X366683Y230633D01*
X369917Y230633D01*
X372905Y229395D01*
X375191Y227109D01*
X376429Y224121D01*
X376429Y207679D01*
X375191Y204691D01*
X372905Y202405D01*
X369917Y201167D01*
X366683Y201167D01*
G37*
%LPD*%
%LPC*%
G36*
X188883Y467867D02*
X188883Y467867D01*
X185895Y469105D01*
X183609Y471391D01*
X182371Y474379D01*
X182371Y490821D01*
X183609Y493809D01*
X185895Y496095D01*
X188883Y497333D01*
X192117Y497333D01*
X195105Y496095D01*
X197391Y493809D01*
X198629Y490821D01*
X198629Y474379D01*
X197391Y471391D01*
X195105Y469105D01*
X192117Y467867D01*
X188883Y467867D01*
G37*
%LPD*%
%LPC*%
G36*
X214283Y671067D02*
X214283Y671067D01*
X211295Y672305D01*
X209009Y674591D01*
X207771Y677579D01*
X207771Y694021D01*
X209009Y697009D01*
X211295Y699295D01*
X214283Y700533D01*
X217517Y700533D01*
X220505Y699295D01*
X222791Y697009D01*
X224029Y694021D01*
X224029Y677579D01*
X222791Y674591D01*
X220505Y672305D01*
X217517Y671067D01*
X214283Y671067D01*
G37*
%LPD*%
%LPC*%
G36*
X239683Y671067D02*
X239683Y671067D01*
X236695Y672305D01*
X234409Y674591D01*
X233171Y677579D01*
X233171Y694021D01*
X234409Y697009D01*
X236695Y699295D01*
X239683Y700533D01*
X242917Y700533D01*
X245905Y699295D01*
X248191Y697009D01*
X249429Y694021D01*
X249429Y677579D01*
X248191Y674591D01*
X245905Y672305D01*
X242917Y671067D01*
X239683Y671067D01*
G37*
%LPD*%
%LPC*%
G36*
X315883Y671067D02*
X315883Y671067D01*
X312895Y672305D01*
X310609Y674591D01*
X309371Y677579D01*
X309371Y694021D01*
X310609Y697009D01*
X312895Y699295D01*
X315883Y700533D01*
X319117Y700533D01*
X322105Y699295D01*
X324391Y697009D01*
X325629Y694021D01*
X325629Y677579D01*
X324391Y674591D01*
X322105Y672305D01*
X319117Y671067D01*
X315883Y671067D01*
G37*
%LPD*%
%LPC*%
G36*
X341283Y671067D02*
X341283Y671067D01*
X338295Y672305D01*
X336009Y674591D01*
X334771Y677579D01*
X334771Y694021D01*
X336009Y697009D01*
X338295Y699295D01*
X341283Y700533D01*
X344517Y700533D01*
X347505Y699295D01*
X349791Y697009D01*
X351029Y694021D01*
X351029Y677579D01*
X349791Y674591D01*
X347505Y672305D01*
X344517Y671067D01*
X341283Y671067D01*
G37*
%LPD*%
%LPC*%
G36*
X366683Y594867D02*
X366683Y594867D01*
X363695Y596105D01*
X361409Y598391D01*
X360171Y601379D01*
X360171Y617821D01*
X361409Y620809D01*
X363695Y623095D01*
X366683Y624333D01*
X369917Y624333D01*
X372905Y623095D01*
X375191Y620809D01*
X376429Y617821D01*
X376429Y601379D01*
X375191Y598391D01*
X372905Y596105D01*
X369917Y594867D01*
X366683Y594867D01*
G37*
%LPD*%
%LPC*%
G36*
X188883Y594867D02*
X188883Y594867D01*
X185895Y596105D01*
X183609Y598391D01*
X182371Y601379D01*
X182371Y617821D01*
X183609Y620809D01*
X185895Y623095D01*
X188883Y624333D01*
X192117Y624333D01*
X195105Y623095D01*
X197391Y620809D01*
X198629Y617821D01*
X198629Y601379D01*
X197391Y598391D01*
X195105Y596105D01*
X192117Y594867D01*
X188883Y594867D01*
G37*
%LPD*%
%LPC*%
G36*
X239683Y594867D02*
X239683Y594867D01*
X236695Y596105D01*
X234409Y598391D01*
X233171Y601379D01*
X233171Y617821D01*
X234409Y620809D01*
X236695Y623095D01*
X239683Y624333D01*
X242917Y624333D01*
X245905Y623095D01*
X248191Y620809D01*
X249429Y617821D01*
X249429Y601379D01*
X248191Y598391D01*
X245905Y596105D01*
X242917Y594867D01*
X239683Y594867D01*
G37*
%LPD*%
%LPC*%
G36*
X315883Y594867D02*
X315883Y594867D01*
X312895Y596105D01*
X310609Y598391D01*
X309371Y601379D01*
X309371Y617821D01*
X310609Y620809D01*
X312895Y623095D01*
X315883Y624333D01*
X319117Y624333D01*
X322105Y623095D01*
X324391Y620809D01*
X325629Y617821D01*
X325629Y601379D01*
X324391Y598391D01*
X322105Y596105D01*
X319117Y594867D01*
X315883Y594867D01*
G37*
%LPD*%
%LPC*%
G36*
X341283Y544067D02*
X341283Y544067D01*
X338295Y545305D01*
X336009Y547591D01*
X334771Y550579D01*
X334771Y567021D01*
X336009Y570009D01*
X338295Y572295D01*
X341283Y573533D01*
X344517Y573533D01*
X347505Y572295D01*
X349791Y570009D01*
X351029Y567021D01*
X351029Y550579D01*
X349791Y547591D01*
X347505Y545305D01*
X344517Y544067D01*
X341283Y544067D01*
G37*
%LPD*%
%LPC*%
G36*
X239683Y544067D02*
X239683Y544067D01*
X236695Y545305D01*
X234409Y547591D01*
X233171Y550579D01*
X233171Y567021D01*
X234409Y570009D01*
X236695Y572295D01*
X239683Y573533D01*
X242917Y573533D01*
X245905Y572295D01*
X248191Y570009D01*
X249429Y567021D01*
X249429Y550579D01*
X248191Y547591D01*
X245905Y545305D01*
X242917Y544067D01*
X239683Y544067D01*
G37*
%LPD*%
%LPC*%
G36*
X214283Y544067D02*
X214283Y544067D01*
X211295Y545305D01*
X209009Y547591D01*
X207771Y550579D01*
X207771Y567021D01*
X209009Y570009D01*
X211295Y572295D01*
X214283Y573533D01*
X217517Y573533D01*
X220505Y572295D01*
X222791Y570009D01*
X224029Y567021D01*
X224029Y550579D01*
X222791Y547591D01*
X220505Y545305D01*
X217517Y544067D01*
X214283Y544067D01*
G37*
%LPD*%
%LPC*%
G36*
X315883Y467867D02*
X315883Y467867D01*
X312895Y469105D01*
X310609Y471391D01*
X309371Y474379D01*
X309371Y490821D01*
X310609Y493809D01*
X312895Y496095D01*
X315883Y497333D01*
X319117Y497333D01*
X322105Y496095D01*
X324391Y493809D01*
X325629Y490821D01*
X325629Y474379D01*
X324391Y471391D01*
X322105Y469105D01*
X319117Y467867D01*
X315883Y467867D01*
G37*
%LPD*%
%LPC*%
G36*
X269747Y561847D02*
X269747Y561847D01*
X269747Y574029D01*
X270210Y573879D01*
X271493Y573225D01*
X272657Y572379D01*
X273675Y571361D01*
X274521Y570197D01*
X275175Y568914D01*
X275620Y567545D01*
X275845Y566124D01*
X275845Y561847D01*
X269747Y561847D01*
G37*
%LPD*%
%LPC*%
G36*
X269747Y295147D02*
X269747Y295147D01*
X269747Y307329D01*
X270210Y307179D01*
X271493Y306525D01*
X272657Y305679D01*
X273675Y304661D01*
X274521Y303497D01*
X275175Y302214D01*
X275620Y300845D01*
X275845Y299424D01*
X275845Y295147D01*
X269747Y295147D01*
G37*
%LPD*%
%LPC*%
G36*
X269747Y422147D02*
X269747Y422147D01*
X269747Y434329D01*
X270210Y434179D01*
X271493Y433525D01*
X272657Y432679D01*
X273675Y431661D01*
X274521Y430497D01*
X275175Y429214D01*
X275620Y427845D01*
X275845Y426424D01*
X275845Y422147D01*
X269747Y422147D01*
G37*
%LPD*%
%LPC*%
G36*
X269747Y688847D02*
X269747Y688847D01*
X269747Y701029D01*
X270210Y700879D01*
X271493Y700225D01*
X272657Y699379D01*
X273675Y698361D01*
X274521Y697197D01*
X275175Y695914D01*
X275620Y694545D01*
X275845Y693124D01*
X275845Y688847D01*
X269747Y688847D01*
G37*
%LPD*%
%LPC*%
G36*
X257555Y561847D02*
X257555Y561847D01*
X257555Y566124D01*
X257780Y567545D01*
X258225Y568914D01*
X258879Y570197D01*
X259725Y571361D01*
X260743Y572379D01*
X261907Y573225D01*
X263190Y573879D01*
X263653Y574029D01*
X263653Y561847D01*
X257555Y561847D01*
G37*
%LPD*%
%LPC*%
G36*
X257555Y295147D02*
X257555Y295147D01*
X257555Y299424D01*
X257780Y300845D01*
X258225Y302214D01*
X258879Y303497D01*
X259725Y304661D01*
X260743Y305679D01*
X261907Y306525D01*
X263190Y307179D01*
X263653Y307329D01*
X263653Y295147D01*
X257555Y295147D01*
G37*
%LPD*%
%LPC*%
G36*
X257555Y422147D02*
X257555Y422147D01*
X257555Y426424D01*
X257780Y427845D01*
X258225Y429214D01*
X258879Y430497D01*
X259725Y431661D01*
X260743Y432679D01*
X261907Y433525D01*
X263190Y434179D01*
X263653Y434329D01*
X263653Y422147D01*
X257555Y422147D01*
G37*
%LPD*%
%LPC*%
G36*
X257555Y688847D02*
X257555Y688847D01*
X257555Y693124D01*
X257780Y694545D01*
X258225Y695914D01*
X258879Y697197D01*
X259725Y698361D01*
X260743Y699379D01*
X261907Y700225D01*
X263190Y700879D01*
X263653Y701029D01*
X263653Y688847D01*
X257555Y688847D01*
G37*
%LPD*%
D10*
X406400Y602488D02*
X406400Y616712D01*
X431800Y616712D02*
X431800Y602488D01*
X457200Y602488D02*
X457200Y616712D01*
X482600Y616712D02*
X482600Y602488D01*
X406400Y565912D02*
X406400Y551688D01*
X431800Y551688D02*
X431800Y565912D01*
X457200Y565912D02*
X457200Y551688D01*
X482600Y551688D02*
X482600Y565912D01*
D11*
X190500Y602996D02*
X190500Y616204D01*
X215900Y616204D02*
X215900Y602996D01*
X342900Y602996D02*
X342900Y616204D01*
X368300Y616204D02*
X368300Y602996D01*
X241300Y602996D02*
X241300Y616204D01*
X266700Y616204D02*
X266700Y602996D01*
X317500Y602996D02*
X317500Y616204D01*
X292100Y616204D02*
X292100Y602996D01*
X368300Y679196D02*
X368300Y692404D01*
X342900Y692404D02*
X342900Y679196D01*
X317500Y679196D02*
X317500Y692404D01*
X292100Y692404D02*
X292100Y679196D01*
X266700Y679196D02*
X266700Y692404D01*
X241300Y692404D02*
X241300Y679196D01*
X215900Y679196D02*
X215900Y692404D01*
X190500Y692404D02*
X190500Y679196D01*
X190500Y489204D02*
X190500Y475996D01*
X215900Y475996D02*
X215900Y489204D01*
X342900Y489204D02*
X342900Y475996D01*
X368300Y475996D02*
X368300Y489204D01*
X241300Y489204D02*
X241300Y475996D01*
X266700Y475996D02*
X266700Y489204D01*
X317500Y489204D02*
X317500Y475996D01*
X292100Y475996D02*
X292100Y489204D01*
X368300Y552196D02*
X368300Y565404D01*
X342900Y565404D02*
X342900Y552196D01*
X317500Y552196D02*
X317500Y565404D01*
X292100Y565404D02*
X292100Y552196D01*
X266700Y552196D02*
X266700Y565404D01*
X241300Y565404D02*
X241300Y552196D01*
X215900Y552196D02*
X215900Y565404D01*
X190500Y565404D02*
X190500Y552196D01*
X190500Y349504D02*
X190500Y336296D01*
X215900Y336296D02*
X215900Y349504D01*
X342900Y349504D02*
X342900Y336296D01*
X368300Y336296D02*
X368300Y349504D01*
X241300Y349504D02*
X241300Y336296D01*
X266700Y336296D02*
X266700Y349504D01*
X317500Y349504D02*
X317500Y336296D01*
X292100Y336296D02*
X292100Y349504D01*
X368300Y412496D02*
X368300Y425704D01*
X342900Y425704D02*
X342900Y412496D01*
X317500Y412496D02*
X317500Y425704D01*
X292100Y425704D02*
X292100Y412496D01*
X266700Y412496D02*
X266700Y425704D01*
X241300Y425704D02*
X241300Y412496D01*
X215900Y412496D02*
X215900Y425704D01*
X190500Y425704D02*
X190500Y412496D01*
X190500Y222504D02*
X190500Y209296D01*
X215900Y209296D02*
X215900Y222504D01*
X342900Y222504D02*
X342900Y209296D01*
X368300Y209296D02*
X368300Y222504D01*
X241300Y222504D02*
X241300Y209296D01*
X266700Y209296D02*
X266700Y222504D01*
X317500Y222504D02*
X317500Y209296D01*
X292100Y209296D02*
X292100Y222504D01*
X368300Y285496D02*
X368300Y298704D01*
X342900Y298704D02*
X342900Y285496D01*
X317500Y285496D02*
X317500Y298704D01*
X292100Y298704D02*
X292100Y285496D01*
X266700Y285496D02*
X266700Y298704D01*
X241300Y298704D02*
X241300Y285496D01*
X215900Y285496D02*
X215900Y298704D01*
X190500Y298704D02*
X190500Y285496D01*
D10*
X406400Y335788D02*
X406400Y350012D01*
X431800Y350012D02*
X431800Y335788D01*
X457200Y335788D02*
X457200Y350012D01*
X482600Y350012D02*
X482600Y335788D01*
X406400Y299212D02*
X406400Y284988D01*
X431800Y284988D02*
X431800Y299212D01*
X457200Y299212D02*
X457200Y284988D01*
X482600Y284988D02*
X482600Y299212D01*
D12*
X292100Y609600D02*
X266700Y609600D01*
X368300Y673100D02*
X368300Y685800D01*
X368300Y673100D02*
X355600Y660400D01*
X304800Y660400D01*
X292100Y673100D01*
X292100Y685800D01*
X292100Y673100D02*
X279400Y660400D01*
X215900Y660400D01*
X203200Y660400D01*
X190500Y673100D01*
X190500Y685800D01*
X215900Y660400D02*
X215900Y609600D01*
X292100Y609600D02*
X292100Y635000D01*
X292100Y673100D01*
X190500Y558800D02*
X190500Y546100D01*
X203200Y533400D01*
X215900Y533400D01*
X279400Y533400D01*
X292100Y546100D01*
X292100Y508000D01*
X292100Y482600D01*
X368300Y546100D02*
X368300Y558800D01*
X368300Y546100D02*
X355600Y533400D01*
X304800Y533400D01*
X292100Y546100D01*
X292100Y558800D01*
X215900Y533400D02*
X215900Y482600D01*
X292100Y558800D02*
X292100Y609600D01*
X292100Y482600D02*
X266700Y482600D01*
X342900Y609600D02*
X342900Y622300D01*
X330200Y635000D01*
X292100Y635000D01*
X342900Y495300D02*
X342900Y482600D01*
X342900Y495300D02*
X330200Y508000D01*
X292100Y508000D01*
X190500Y419100D02*
X190500Y406400D01*
X203200Y393700D01*
X215900Y393700D01*
X215900Y342900D01*
X215900Y393700D02*
X279400Y393700D01*
X292100Y406400D01*
X292100Y419100D01*
X292100Y368300D02*
X292100Y342900D01*
X292100Y368300D02*
X292100Y406400D01*
X368300Y406400D02*
X368300Y419100D01*
X368300Y406400D02*
X355600Y393700D01*
X304800Y393700D01*
X292100Y406400D01*
X292100Y342900D02*
X266700Y342900D01*
X342900Y342900D02*
X342900Y355600D01*
X330200Y368300D01*
X292100Y368300D01*
X368300Y292100D02*
X368300Y279400D01*
X355600Y266700D01*
X304800Y266700D01*
X292100Y279400D01*
X292100Y292100D02*
X292100Y241300D01*
X292100Y215900D01*
X342900Y215900D02*
X342900Y228600D01*
X330200Y241300D01*
X292100Y241300D01*
X292100Y215900D02*
X266700Y215900D01*
X190500Y279400D02*
X190500Y292100D01*
X190500Y279400D02*
X203200Y266700D01*
X215900Y266700D01*
X279400Y266700D01*
X292100Y279400D01*
X292100Y292100D01*
X215900Y266700D02*
X215900Y215900D01*
X292100Y292100D02*
X292100Y342900D01*
X292100Y419100D02*
X292100Y482600D01*
X266700Y558800D02*
X266700Y571500D01*
X254000Y584200D01*
X190500Y584200D01*
X177800Y596900D01*
X177800Y698500D01*
X190500Y711200D01*
X254000Y711200D01*
X266700Y698500D01*
X266700Y685800D01*
X266700Y304800D02*
X266700Y292100D01*
X266700Y304800D02*
X254000Y317500D01*
X266700Y431800D02*
X254000Y444500D01*
X266700Y431800D02*
X266700Y419100D01*
X254000Y444500D02*
X190500Y444500D01*
X177800Y431800D01*
X177800Y330200D01*
X190500Y317500D01*
X254000Y317500D01*
X177800Y571500D02*
X190500Y584200D01*
X177800Y571500D02*
X177800Y457200D01*
X190500Y444500D01*
X317500Y558800D02*
X317500Y571500D01*
X330200Y584200D01*
X469900Y584200D02*
X482600Y571500D01*
X482600Y558800D01*
X469900Y584200D02*
X330200Y584200D01*
X317500Y304800D02*
X317500Y292100D01*
X317500Y304800D02*
X330200Y317500D01*
X469900Y317500D01*
X482600Y304800D01*
X482600Y292100D01*
M02*
