G04 EAGLE Gerber RS-274X export*
G75*
%MOMM*%
%FSLAX34Y34*%
%LPD*%
%INSoldermask Bottom*%
%IPPOS*%
%AMOC8*
5,1,8,0,0,1.08239X$1,22.5*%
G01*
%ADD10C,1.625600*%
%ADD11C,1.524000*%


D10*
X406400Y602488D02*
X406400Y616712D01*
X431800Y616712D02*
X431800Y602488D01*
X457200Y602488D02*
X457200Y616712D01*
X482600Y616712D02*
X482600Y602488D01*
X406400Y565912D02*
X406400Y551688D01*
X431800Y551688D02*
X431800Y565912D01*
X457200Y565912D02*
X457200Y551688D01*
X482600Y551688D02*
X482600Y565912D01*
D11*
X190500Y602996D02*
X190500Y616204D01*
X215900Y616204D02*
X215900Y602996D01*
X342900Y602996D02*
X342900Y616204D01*
X368300Y616204D02*
X368300Y602996D01*
X241300Y602996D02*
X241300Y616204D01*
X266700Y616204D02*
X266700Y602996D01*
X317500Y602996D02*
X317500Y616204D01*
X292100Y616204D02*
X292100Y602996D01*
X368300Y679196D02*
X368300Y692404D01*
X342900Y692404D02*
X342900Y679196D01*
X317500Y679196D02*
X317500Y692404D01*
X292100Y692404D02*
X292100Y679196D01*
X266700Y679196D02*
X266700Y692404D01*
X241300Y692404D02*
X241300Y679196D01*
X215900Y679196D02*
X215900Y692404D01*
X190500Y692404D02*
X190500Y679196D01*
X190500Y489204D02*
X190500Y475996D01*
X215900Y475996D02*
X215900Y489204D01*
X342900Y489204D02*
X342900Y475996D01*
X368300Y475996D02*
X368300Y489204D01*
X241300Y489204D02*
X241300Y475996D01*
X266700Y475996D02*
X266700Y489204D01*
X317500Y489204D02*
X317500Y475996D01*
X292100Y475996D02*
X292100Y489204D01*
X368300Y552196D02*
X368300Y565404D01*
X342900Y565404D02*
X342900Y552196D01*
X317500Y552196D02*
X317500Y565404D01*
X292100Y565404D02*
X292100Y552196D01*
X266700Y552196D02*
X266700Y565404D01*
X241300Y565404D02*
X241300Y552196D01*
X215900Y552196D02*
X215900Y565404D01*
X190500Y565404D02*
X190500Y552196D01*
X190500Y349504D02*
X190500Y336296D01*
X215900Y336296D02*
X215900Y349504D01*
X342900Y349504D02*
X342900Y336296D01*
X368300Y336296D02*
X368300Y349504D01*
X241300Y349504D02*
X241300Y336296D01*
X266700Y336296D02*
X266700Y349504D01*
X317500Y349504D02*
X317500Y336296D01*
X292100Y336296D02*
X292100Y349504D01*
X368300Y412496D02*
X368300Y425704D01*
X342900Y425704D02*
X342900Y412496D01*
X317500Y412496D02*
X317500Y425704D01*
X292100Y425704D02*
X292100Y412496D01*
X266700Y412496D02*
X266700Y425704D01*
X241300Y425704D02*
X241300Y412496D01*
X215900Y412496D02*
X215900Y425704D01*
X190500Y425704D02*
X190500Y412496D01*
X190500Y222504D02*
X190500Y209296D01*
X215900Y209296D02*
X215900Y222504D01*
X342900Y222504D02*
X342900Y209296D01*
X368300Y209296D02*
X368300Y222504D01*
X241300Y222504D02*
X241300Y209296D01*
X266700Y209296D02*
X266700Y222504D01*
X317500Y222504D02*
X317500Y209296D01*
X292100Y209296D02*
X292100Y222504D01*
X368300Y285496D02*
X368300Y298704D01*
X342900Y298704D02*
X342900Y285496D01*
X317500Y285496D02*
X317500Y298704D01*
X292100Y298704D02*
X292100Y285496D01*
X266700Y285496D02*
X266700Y298704D01*
X241300Y298704D02*
X241300Y285496D01*
X215900Y285496D02*
X215900Y298704D01*
X190500Y298704D02*
X190500Y285496D01*
D10*
X406400Y335788D02*
X406400Y350012D01*
X431800Y350012D02*
X431800Y335788D01*
X457200Y335788D02*
X457200Y350012D01*
X482600Y350012D02*
X482600Y335788D01*
X406400Y299212D02*
X406400Y284988D01*
X431800Y284988D02*
X431800Y299212D01*
X457200Y299212D02*
X457200Y284988D01*
X482600Y284988D02*
X482600Y299212D01*
M02*
