M48
;GenerationSoftware,Autodesk,EAGLE,9.6.2*%
;CreationDate,2022-12-07T04:40:43Z*%
FMAT,2
ICI,OFF
METRIC,TZ,000.000
T3C0.813
T2C0.914
%
G90
M71
T2
X43180Y60960
X48260Y29210
X45720Y29210
X43180Y29210
X40640Y29210
X48260Y34290
X45720Y34290
X43180Y34290
X40640Y34290
X40640Y60960
X45720Y60960
X48260Y60960
X40640Y55880
X43180Y55880
X45720Y55880
X48260Y55880
T3
X34290Y21590
X26670Y34290
X21590Y21590
X19050Y21590
X19050Y41910
X21590Y41910
X24130Y41910
X26670Y41910
X29210Y41910
X31750Y41910
X34290Y41910
X36830Y41910
X29210Y34290
X31750Y34290
X24130Y34290
X36830Y21590
X24130Y21590
X26670Y21590
X31750Y21590
X29210Y21590
X36830Y29210
X34290Y29210
X31750Y29210
X29210Y29210
X26670Y29210
X24130Y29210
X21590Y29210
X19050Y29210
X19050Y60960
X31750Y68580
X34290Y48260
X21590Y48260
X19050Y48260
X19050Y68580
X21590Y68580
X24130Y68580
X26670Y68580
X29210Y68580
X36830Y48260
X34290Y68580
X36830Y68580
X29210Y60960
X31750Y60960
X26670Y60960
X24130Y60960
X36830Y60960
X34290Y60960
X29210Y55880
X36830Y34290
X34290Y34290
X21590Y34290
X19050Y34290
X19050Y55880
X21590Y55880
X24130Y55880
X26670Y55880
X21590Y60960
X31750Y55880
X34290Y55880
X36830Y55880
X29210Y48260
X31750Y48260
X26670Y48260
X24130Y48260
M30